<svg width="18" height="18" viewBox="0 0 18 18" fill="none" xmlns="http://www.w3.org/2000/svg">
<path fill-rule="evenodd" clip-rule="evenodd" d="M2.96619 3.79581C2.25 4.78155 2.25 6.1877 2.25 9C2.25 11.8123 2.25 13.2184 2.96619 14.2042C3.19748 14.5225 3.47745 14.8025 3.79581 15.0338C4.78155 15.75 6.1877 15.75 9 15.75C11.8123 15.75 13.2184 15.75 14.2042 15.0338C14.5225 14.8025 14.8025 14.5225 15.0338 14.2042C15.75 13.2184 15.75 11.8123 15.75 9C15.75 6.1877 15.75 4.78155 15.0338 3.79581C14.8025 3.47745 14.5225 3.19748 14.2042 2.96619C13.2184 2.25 11.8123 2.25 9 2.25C6.1877 2.25 4.78155 2.25 3.79581 2.96619C3.47745 3.19748 3.19748 3.47745 2.96619 3.79581ZM7.80674 7.19324C7.58707 6.97357 7.23092 6.97357 7.01125 7.19324C6.79158 7.41291 6.79158 7.76907 7.01125 7.98874L8.20449 9.18198L7.01125 10.3752C6.79158 10.5949 6.79158 10.951 7.01125 11.1707C7.23092 11.3904 7.58707 11.3904 7.80674 11.1707L8.99999 9.97748L10.1932 11.1707C10.4129 11.3904 10.7691 11.3904 10.9887 11.1707C11.2084 10.951 11.2084 10.5949 10.9887 10.3752L9.79548 9.18198L10.9887 7.98874C11.2084 7.76907 11.2084 7.41291 10.9887 7.19324C10.7691 6.97357 10.4129 6.97357 10.1932 7.19324L8.99999 8.38649L7.80674 7.19324Z"/>
</svg>
