<svg width="30" height="30" viewBox="0 0 30 30" fill="none" xmlns="http://www.w3.org/2000/svg">
<path fill-rule="evenodd" clip-rule="evenodd" d="M8.30471 0.560592C10.0179 0.374978 12.1773 0.374988 14.9321 0.375H15.0679C17.8227 0.374988 19.9821 0.374978 21.6953 0.560592C23.4436 0.750009 24.8602 1.14349 26.0696 2.02223C26.8019 2.55421 27.4458 3.19814 27.9778 3.93035C28.8565 5.13984 29.25 6.55641 29.4394 8.30471C29.625 10.0179 29.625 12.1774 29.625 14.9321V15.009C29.625 16.4104 29.625 17.6523 29.6023 18.7508C29.5354 21.9819 29.2826 24.2737 27.9778 26.0696C27.4458 26.8019 26.8019 27.4458 26.0696 27.9778C24.8602 28.8565 23.4436 29.25 21.6953 29.4394C19.9821 29.625 17.8228 29.625 15.068 29.625H14.9321C12.1774 29.625 10.0179 29.625 8.30471 29.4394C6.55641 29.25 5.13984 28.8565 3.93035 27.9778C3.22471 27.4651 2.60107 26.8485 2.08059 26.149C2.06099 26.1227 2.04153 26.0962 2.02223 26.0696C1.14349 24.8602 0.750009 23.4436 0.560592 21.6953C0.374978 19.9821 0.374988 17.8227 0.375 15.0679V14.9321C0.374988 12.1773 0.374979 10.0179 0.560593 8.30471C0.75001 6.55641 1.14349 5.13984 2.02223 3.93035C2.55422 3.19814 3.19814 2.55422 3.93035 2.02223C5.13984 1.14349 6.55641 0.750009 8.30471 0.560592ZM27.368 17.6275L27.2734 17.5362C26.8595 17.1386 26.5536 16.8695 26.2659 16.6652C23.0428 14.3767 18.5967 14.9828 16.1036 18.0504C15.8025 18.4209 15.5011 18.9146 15.0273 19.7433L14.25 19.5C12.4567 19.1413 11.5601 18.962 10.7371 18.9795C8.53477 19.0263 6.46434 20.0389 5.0753 21.7486C4.61226 22.3186 4.23684 23.031 3.58052 24.3395C3.66147 24.4827 3.74868 24.618 3.84252 24.7471L3.88565 24.8058C4.27036 25.3228 4.73131 25.7785 5.25287 26.1575C6.01488 26.7111 6.9902 27.0338 8.54707 27.2025C10.125 27.3735 12.1626 27.375 15 27.375C17.8374 27.375 19.875 27.3735 21.4529 27.2025C23.0098 27.0338 23.9851 26.7111 24.7471 26.1575C25.2883 25.7643 25.7643 25.2883 26.1575 24.7471C27 23.5875 27.285 21.9789 27.3527 18.7042C27.3599 18.3609 27.3647 18.0024 27.368 17.6275ZM13.5 13.5C11.8431 13.5 10.5 12.1569 10.5 10.5C10.5 8.84315 11.8431 7.5 13.5 7.5C15.1569 7.5 16.5 8.84315 16.5 10.5C16.5 12.1569 15.1569 13.5 13.5 13.5Z" fill="white"/>
</svg>
