<svg width="36" height="37" viewBox="0 0 36 37" fill="none" xmlns="http://www.w3.org/2000/svg">
<g clip-path="url(#clip0_115_4917)">
<path d="M18.8914 8.09143C18.6032 7.15285 17.396 7.15285 17.1078 8.09143C16.6898 9.45231 15.476 10.4084 14.0696 10.4084C13.6346 10.4084 13.3098 10.6825 13.1778 11.1123C13.045 11.5448 13.1535 11.9992 13.5305 12.289C14.6455 13.1461 15.0952 14.645 14.6789 16.0003C14.5253 16.5006 14.7092 16.9291 15.0316 17.1769C15.3488 17.4208 15.746 17.4566 16.1099 17.1769C17.2341 16.3127 18.765 16.3127 19.8893 17.1769C20.2532 17.4566 20.6504 17.4208 20.9676 17.1769C21.29 16.9291 21.4739 16.5006 21.3202 16.0003C20.904 14.645 21.3536 13.1461 22.4687 12.289C22.8457 11.9992 22.9542 11.5448 22.8213 11.1123C22.6893 10.6825 22.3646 10.4084 21.9295 10.4084C20.5232 10.4084 19.3093 9.45231 18.8914 8.09143Z"/>
<path fill-rule="evenodd" clip-rule="evenodd" d="M4.87458 13.9169C4.87458 6.49259 10.7508 0.473999 17.9996 0.473999C25.2483 0.473999 31.1246 6.49259 31.1246 13.9169C31.1246 14.573 31.0786 15.2184 30.9898 15.8498C30.7998 16.3668 30.5812 16.8694 30.3361 17.3555C28.3684 21.2577 24.6889 24.1047 20.3203 24.8576C19.5664 24.9875 18.7912 25.0553 17.9996 25.0553C17.0741 25.0553 16.1708 24.9627 15.2977 24.7862C11.0193 23.9218 7.44342 21.0396 5.55917 17.1449C5.35576 16.7245 5.17206 16.2922 5.00932 15.8494C4.92052 15.2181 4.87458 14.5728 4.87458 13.9169ZM14.9615 7.39997C15.9102 4.31067 20.089 4.31067 21.0377 7.39997C21.173 7.84041 21.5457 8.10391 21.9295 8.10391C25.0931 8.10391 26.2377 12.2731 23.8193 14.1321C23.486 14.3883 23.3296 14.8628 23.4666 15.3088C23.9314 16.8224 23.3352 18.2383 22.3181 19.0201C21.2958 19.8059 19.7941 19.9851 18.5387 19.0201C18.2147 18.771 17.7845 18.771 17.4605 19.0201C16.2051 19.9851 14.7034 19.8059 13.681 19.0201C12.664 18.2383 12.0678 16.8224 12.5326 15.3088C12.6696 14.8628 12.5132 14.3883 12.1799 14.1321C9.76144 12.2731 10.9061 8.10391 14.0696 8.10391C14.4535 8.10391 14.8262 7.84041 14.9615 7.39997Z"/>
<path d="M4.89501 20.4697C4.76203 20.7002 4.62196 20.9488 4.47111 21.2166L1.73214 26.0755C1.39394 26.6753 1.08121 27.2299 0.900917 27.689C0.724317 28.1386 0.501908 28.9184 0.9934 29.6402C1.49112 30.371 2.29005 30.4144 2.76354 30.3903C3.24293 30.3659 3.85235 30.243 4.507 30.111L5.6939 29.8719C6.35189 29.7393 6.74229 29.6629 7.03194 29.6425C7.16423 29.6331 7.23526 29.6394 7.27021 29.6454C7.28627 29.6482 7.29574 29.6515 7.29574 29.6515L7.30015 29.6536L7.30412 29.6564C7.30412 29.6564 7.31163 29.6632 7.32199 29.6761C7.34455 29.704 7.38537 29.7639 7.44363 29.8859C7.57121 30.153 7.70176 30.5375 7.91867 31.1875L8.3099 32.3597C8.52564 33.0064 8.72647 33.6084 8.94553 34.0459C9.16189 34.4779 9.598 35.1649 10.4649 35.241C11.3209 35.316 11.869 34.7289 12.1609 34.3474C12.459 33.9579 12.7716 33.4032 13.1096 32.8033L15.7935 28.042C15.9532 27.7586 16.0993 27.4995 16.2309 27.2615C15.7687 27.2098 15.3122 27.1381 14.8622 27.0472C10.7712 26.2206 7.23867 23.8113 4.89501 20.4697Z"/>
<path d="M30.8717 20.793C30.9398 20.9133 31.0099 21.0378 31.0824 21.1665L33.8496 26.0756C34.1877 26.6753 34.5005 27.2299 34.6808 27.689C34.8574 28.1386 35.0798 28.9184 34.5883 29.6402C34.0906 30.371 33.2916 30.4144 32.8181 30.3903C32.3388 30.3659 31.7293 30.243 31.0747 30.111L29.8878 29.8719C29.2298 29.7393 28.8394 29.6629 28.5497 29.6425C28.4174 29.6331 28.3464 29.6394 28.3115 29.6454C28.2954 29.6482 28.2859 29.6515 28.2859 29.6515L28.2815 29.6536L28.2794 29.6549L28.2776 29.6564C28.2776 29.6564 28.2701 29.6632 28.2597 29.6761C28.2371 29.704 28.1963 29.7639 28.138 29.8859C28.0105 30.153 27.8799 30.5375 27.663 31.1875L27.2718 32.3597C27.056 33.0064 26.8552 33.6085 26.6361 34.0459C26.4198 34.4779 25.9837 35.1649 25.1168 35.241C24.2608 35.316 23.7127 34.7289 23.4208 34.3474C23.1227 33.9579 22.8101 33.4032 22.4721 32.8033L19.7881 28.0419C19.6371 27.7741 19.4984 27.5279 19.3725 27.3007C19.8181 27.2622 20.2588 27.2051 20.6937 27.1302C24.838 26.4158 28.4431 24.0843 30.8717 20.793Z"/>
</g>
<defs>
<clipPath id="clip0_115_4917">
<rect width="36" height="36.872" fill="white" transform="translate(0 0.0899658)"/>
</clipPath>
</defs>
</svg>
