<svg width="62" height="90" viewBox="0 0 62 90" fill="none" xmlns="http://www.w3.org/2000/svg">
<path d="M0 45C0 36.0999 2.6392 27.3996 7.58386 19.9994C12.5285 12.5992 19.5566 6.83138 27.7793 3.42545C36.0019 0.0195008 45.0499 -0.871654 53.7792 0.864682C62.5084 2.60101 70.5263 6.88684 76.82 13.1802C83.1132 19.4736 87.3991 27.4918 89.1353 36.221C90.8716 44.9501 89.9806 53.9981 86.5745 62.2207C83.1687 70.4434 77.4008 77.4716 70.0006 82.416C62.6007 87.3607 53.9003 90 45 90C33.0653 90 21.6194 85.2589 13.1802 76.8199C4.74109 68.3809 0 56.9347 0 45Z" fill="#FEEEDF"/>
<g clip-path="url(#clip0_78_201)">
<path d="M13 45C13 38.671 14.8768 32.4842 18.393 27.2218C21.9092 21.9594 26.9069 17.8579 32.7541 15.4359C38.6014 13.0139 45.0355 12.3802 51.2429 13.6149C57.4504 14.8496 63.152 17.8973 67.6275 22.3726C72.1027 26.8479 75.1504 32.5498 76.3851 38.7571C77.6197 44.9645 76.9861 51.3987 74.564 57.2459C72.1421 63.0931 68.0405 68.0909 62.7781 71.6069C57.516 75.1232 51.3291 77 45 77C36.5131 77 28.3738 73.6285 22.3726 67.6275C16.3714 61.6264 13 53.4869 13 45Z" fill="url(#paint0_linear_78_201)"/>
<path fill-rule="evenodd" clip-rule="evenodd" d="M44.5484 27.6318C44.8492 27.6169 45.1505 27.6169 45.4513 27.6318C46.6125 27.6895 47.6815 28.0268 48.8732 28.5799C50.0333 29.1182 51.3814 29.8965 53.0869 30.8812L53.1835 30.937C54.8891 31.9217 56.2372 32.7 57.2835 33.4356C58.3583 34.1911 59.185 34.9482 59.8155 35.925C59.9788 36.178 60.1295 36.4389 60.2669 36.7069C60.7976 37.7413 61.0399 38.8358 61.1568 40.1444C61.2707 41.4182 61.2707 42.9749 61.2706 44.9442V45.0558C61.2707 47.0251 61.2707 48.5819 61.1568 49.8558C61.0399 51.1643 60.7976 52.2588 60.2669 53.2932C60.1295 53.5612 59.9788 53.8221 59.8155 54.0752C59.185 55.0519 58.3583 55.809 57.2835 56.5646C56.2372 57.3001 54.8891 58.0784 53.1835 59.0631L53.087 59.1188C51.3815 60.1035 50.0334 60.8819 48.8732 61.4203C47.6815 61.9733 46.6125 62.3107 45.4513 62.3683C45.1505 62.3832 44.8492 62.3832 44.5484 62.3683C43.3873 62.3107 42.3183 61.9733 41.1265 61.4203C39.9664 60.8819 38.6183 60.1036 36.9129 59.1189L36.8161 59.063C35.1107 58.0784 33.7625 57.3 32.7162 56.5646C31.6415 55.809 30.8148 55.0519 30.1842 54.0752C30.0209 53.8221 29.8703 53.5612 29.7328 53.2932C29.2021 52.2588 28.9598 51.1643 28.8429 49.8558C28.7291 48.5819 28.7291 47.0252 28.7291 45.0558V44.9443C28.7291 42.9749 28.7291 41.4183 28.8429 40.1444C28.9598 38.8358 29.2021 37.7413 29.7328 36.7069C29.8703 36.439 30.0209 36.178 30.1842 35.925C30.8148 34.9482 31.6414 34.1911 32.7162 33.4356C33.7626 32.7 35.1107 31.9217 36.8162 30.937L36.9127 30.8813C38.6183 29.8966 39.9664 29.1182 41.1265 28.5799C42.3183 28.0268 43.3873 27.6895 44.5484 27.6318ZM53.9826 40.9992C54.2715 40.4104 54.0283 39.6989 53.4395 39.4101C52.8506 39.1213 52.1392 39.3645 51.8503 39.9533L49.5382 44.6669C48.8215 46.128 46.7151 46.0566 46.0989 44.5504C44.7069 41.1478 39.9483 40.9866 38.3292 44.2872L36.017 49.0009C35.7282 49.5897 35.9714 50.3012 36.5602 50.59C37.149 50.8788 37.8605 50.6357 38.1493 50.0468L40.4615 45.3332C41.1782 43.8722 43.2846 43.9435 43.9007 45.4497C45.2927 48.8523 50.0514 49.0135 51.6704 45.7129L53.9826 40.9992Z" fill="white"/>
</g>
<defs>
<linearGradient id="paint0_linear_78_201" x1="107.918" y1="115.746" x2="17.3707" y2="13.9416" gradientUnits="userSpaceOnUse">
<stop stop-color="#F8943A" stop-opacity="0.11"/>
<stop offset="0.41" stop-color="#F8943A"/>
<stop offset="0.78" stop-color="#FCB77A"/>
<stop offset="1" stop-color="#FFB573"/>
</linearGradient>
<clipPath id="clip0_78_201">
<rect width="64" height="64" fill="white" transform="translate(13 13)"/>
</clipPath>
</defs>
</svg>
