<svg width="34" height="36" viewBox="0 0 34 36" fill="none" xmlns="http://www.w3.org/2000/svg">
<path fill-rule="evenodd" clip-rule="evenodd" d="M11.6534 4.135C13.1885 -1.24389 20.8114 -1.24389 22.3465 4.135C22.8367 5.85274 24.6015 6.87163 26.3342 6.4373C31.76 5.07726 35.5714 11.6789 31.6807 15.6978C30.4382 16.9812 30.4382 19.019 31.6807 20.3024C35.5714 24.3212 31.76 30.9229 26.3342 29.5628C24.6015 29.1285 22.8367 30.1474 22.3465 31.8651C20.8114 37.244 13.1885 37.244 11.6534 31.8651C11.1632 30.1474 9.39843 29.1285 7.66572 29.5628C2.23993 30.9229 -1.57154 24.3212 2.31918 20.3024C3.56168 19.019 3.56168 16.9812 2.31918 15.6978C-1.57154 11.6789 2.23993 5.07726 7.66572 6.4373C9.39843 6.87163 11.1632 5.85274 11.6534 4.135ZM21.7808 13.2193C22.2201 13.6586 22.2201 14.3709 21.7808 14.8103L13.2955 23.2956C12.8562 23.7349 12.1438 23.7349 11.7045 23.2956C11.2652 22.8562 11.2652 22.1439 11.7045 21.7046L20.1898 13.2193C20.6291 12.78 21.3414 12.78 21.7808 13.2193ZM12.5 15.0001C11.6716 15.0001 11 14.3285 11 13.5001C11 12.6717 11.6716 12.0001 12.5 12.0001C13.3284 12.0001 14 12.6717 14 13.5001C14 14.3285 13.3284 15.0001 12.5 15.0001ZM21.5 24.0001C20.6716 24.0001 20 23.3286 20 22.5001C20 21.6717 20.6716 21.0001 21.5 21.0001C22.3284 21.0001 23 21.6717 23 22.5001C23 23.3286 22.3284 24.0001 21.5 24.0001Z"/>
</svg>
