<svg width="51" height="64" viewBox="0 0 51 64" fill="none" xmlns="http://www.w3.org/2000/svg">
<g clip-path="url(#clip0_78_156)">
<path d="M0 32C0 25.671 1.87676 19.4842 5.39296 14.2218C8.90917 8.95941 13.9069 4.85787 19.7541 2.43587C25.6014 0.0138672 32.0355 -0.619843 38.2429 0.614885C44.4504 1.84961 50.152 4.89731 54.6275 9.37259C59.1027 13.8479 62.1504 19.5498 63.3851 25.7571C64.6197 31.9645 63.9861 38.3987 61.564 44.2459C59.1421 50.0931 55.0405 55.0909 49.7781 58.6069C44.516 62.1232 38.3291 64 32 64C23.5131 64 15.3738 60.6285 9.37259 54.6275C3.37144 48.6264 0 40.4869 0 32Z" fill="url(#paint0_linear_78_156)"/>
<path d="M43.0237 47.9917L43.2773 47.8882L47.5317 45.4096L51.9202 42.857C52.1546 42.7293 52.3664 42.5648 52.5472 42.3701C52.868 42.0317 53.0765 41.6045 53.1445 41.1456C53.1445 40.9389 53.1445 30.8173 53.1445 30.596C53.0634 30.0872 52.8293 29.6144 52.4728 29.2386C52.1389 28.9269 51.7618 28.6637 51.3531 28.4568L43.3669 23.8385C43.0317 23.6881 42.668 23.6103 42.2997 23.6103C41.9314 23.6103 41.5677 23.6881 41.2325 23.8385C41.0981 23.8385 40.1874 24.4139 38.1722 25.5795L33.2762 28.4272L28.4397 31.2306C26.9469 32.1453 25.5588 32.9125 25.4543 32.9421C25.1168 33.1114 24.743 33.1973 24.3646 33.1928C23.9898 33.1938 23.6189 33.1184 23.2749 32.9714C23.1107 32.9714 18.6474 30.3304 18.4086 30.1533C18.1749 29.9778 17.9686 29.769 17.7966 29.5338C17.6055 29.2456 17.469 28.9258 17.3935 28.5896C17.3402 27.6066 17.3402 26.6215 17.3935 25.6386C17.2734 24.4931 17.3086 23.337 17.498 22.2008C17.5961 21.9234 17.7317 21.6603 17.901 21.4188C18.0705 21.1898 18.2773 20.9903 18.5131 20.8286C18.6922 20.7105 22.9913 18.1876 23.1256 18.0843C23.472 17.9267 23.8489 17.8451 24.2302 17.8451C24.6116 17.8451 24.9884 17.9267 25.3349 18.0843C25.4841 18.158 29.813 20.681 30.1416 20.8728C30.4576 21.0849 30.7186 21.3681 30.9026 21.6991C31.0226 21.902 31.113 22.1205 31.1714 22.3483V22.5696V24.414C31.1714 25.432 31.1714 26.273 31.1714 26.273L33.1568 25.1369L35.1122 24.0008V22.1565C35.1122 20.1056 35.1122 20.1794 34.9778 19.7662C34.7965 19.2697 34.4754 18.8346 34.0525 18.5122C33.9032 18.4089 25.7826 13.6874 25.3945 13.4809L25.0811 13.3333H24.9467H23.454L23.2301 13.4218C23.0659 13.4956 21.9165 14.1448 18.7519 15.9744C16.4084 17.3318 14.4379 18.4826 14.3633 18.5417C14.0939 18.7271 13.8642 18.9634 13.6875 19.2368C13.5108 19.5103 13.3904 19.8156 13.3333 20.1351C13.3333 20.3417 13.3333 20.504 13.3333 25.55C13.3333 30.596 13.3333 30.773 13.3333 30.965C13.3907 31.2925 13.5179 31.6045 13.7065 31.8797C13.9009 32.1552 14.1376 32.3992 14.4081 32.6026C14.6021 32.7208 22.8868 37.5456 23.0958 37.6488C23.4531 37.8146 23.8429 37.9005 24.2377 37.9005C24.6324 37.9005 25.0223 37.8146 25.3796 37.6488L28.365 35.893C30.7984 34.4176 31.5594 34.0192 33.1866 33.1192C34.8136 32.2192 35.2616 31.9682 38.0232 30.301L41.0085 28.4861C41.6344 28.2024 42.3482 28.176 42.9938 28.4125C43.0981 28.4384 43.1986 28.4781 43.2925 28.5304C43.4714 28.6189 47.9645 31.3338 48.0989 31.4813C48.609 31.881 48.9496 32.4546 49.0544 33.0896C49.0544 33.3552 49.0544 38.8586 49.0544 39.1242C48.9482 39.7776 48.5898 40.3648 48.0541 40.7618C47.905 40.8653 43.576 43.4325 43.2328 43.58C42.892 43.7301 42.5234 43.8077 42.1504 43.8077C41.7776 43.8077 41.4088 43.7301 41.0682 43.58C40.9488 43.58 40.0829 43.0194 38.6053 42.1045L36.2018 40.629C35.7736 40.3056 35.4514 39.8642 35.2765 39.3602C35.157 38.9914 35.157 39.0946 35.1421 37.029V35.1405L33.1866 36.2765L31.2312 37.4128V39.316C31.2312 41.3816 31.2312 41.3669 31.3357 41.721C31.4205 41.98 31.5464 42.224 31.7088 42.444C31.877 42.669 32.0781 42.868 32.3058 43.0341C32.4402 43.1373 40.6949 47.9768 40.889 48.0802C41.0832 48.1834 41.1877 48.2424 42.0085 48.2424H42.74L43.0237 47.9917Z" fill="white"/>
</g>
<defs>
<linearGradient id="paint0_linear_78_156" x1="94.9179" y1="102.746" x2="4.37066" y2="0.941598" gradientUnits="userSpaceOnUse">
<stop stop-color="#A762FF" stop-opacity="0.11"/>
<stop offset="0.41" stop-color="#5C19EB"/>
<stop offset="0.78" stop-color="#A586FF"/>
<stop offset="1" stop-color="#E2C5FF"/>
</linearGradient>
<clipPath id="clip0_78_156">
<rect width="64" height="64" fill="white"/>
</clipPath>
</defs>
</svg>
