<svg width="65" height="65" viewBox="0 0 65 65" fill="none" xmlns="http://www.w3.org/2000/svg">
<g clip-path="url(#clip0_78_268)">
<path d="M0 32.5C0 26.0721 1.90608 19.7886 5.47723 14.444C9.04838 9.0994 14.1242 4.93377 20.0628 2.47393C26.0014 0.0140839 32.536 -0.629528 38.8405 0.624493C45.1449 1.87851 50.9356 4.97383 55.481 9.51903C60.0261 14.0642 63.1215 19.8552 64.3755 26.1596C65.6294 32.464 64.9859 38.9986 62.5259 44.9372C60.0662 50.8758 55.9005 55.9517 50.5559 59.5227C45.2116 63.0939 38.928 65 32.5 65C23.8805 65 15.614 61.5759 9.51903 55.481C3.42412 49.3862 0 41.1195 0 32.5Z" fill="url(#paint0_linear_78_268)"/>
<path d="M43.696 48.7416L43.9536 48.6365L48.2744 46.1191L52.7315 43.5267C52.9696 43.3969 53.1846 43.2298 53.3683 43.0321C53.6941 42.6884 53.9059 42.2546 53.9749 41.7885C53.9749 41.5786 53.9749 31.2988 53.9749 31.074C53.8926 30.5573 53.6548 30.0771 53.2927 29.6955C52.9536 29.3789 52.5707 29.1116 52.1555 28.9014L44.0446 24.211C43.7041 24.0582 43.3347 23.9792 42.9607 23.9792C42.5867 23.9792 42.2173 24.0582 41.8768 24.211C41.7403 24.211 40.8154 24.7954 38.7687 25.9792L33.7962 28.8713L28.8841 31.7186C27.368 32.6476 25.9581 33.4268 25.852 33.4568C25.5093 33.6288 25.1296 33.716 24.7453 33.7114C24.3647 33.7125 23.988 33.6358 23.6386 33.4866C23.4718 33.4866 18.9388 30.8043 18.6963 30.6244C18.4589 30.4462 18.2494 30.2342 18.0747 29.9953C17.8807 29.7025 17.742 29.3778 17.6653 29.0363C17.6112 28.038 17.6112 27.0374 17.6653 26.0391C17.5434 24.8758 17.5791 23.7016 17.7715 22.5476C17.8711 22.2659 18.0088 21.9987 18.1808 21.7535C18.3529 21.5209 18.5629 21.3183 18.8024 21.154C18.9843 21.0341 23.3505 18.4717 23.487 18.3668C23.8388 18.2068 24.2215 18.1239 24.6089 18.1239C24.9962 18.1239 25.3789 18.2068 25.7308 18.3668C25.8824 18.4417 30.2789 21.0041 30.6126 21.199C30.9335 21.4144 31.1987 21.7019 31.3855 22.0381C31.5074 22.2442 31.5992 22.4661 31.6585 22.6975V22.9223V24.7954C31.6585 25.8294 31.6585 26.6835 31.6585 26.6835L33.6749 25.5297L35.6609 24.3758V22.5027C35.6609 20.4198 35.6609 20.4946 35.5244 20.0751C35.3403 19.5707 35.0142 19.1289 34.5846 18.8014C34.433 18.6965 26.1855 13.9013 25.7914 13.6915L25.473 13.5416H25.3366H23.8205L23.5931 13.6315C23.4263 13.7065 22.259 14.3658 19.045 16.224C16.6648 17.6026 14.6636 18.7714 14.5878 18.8314C14.3142 19.0197 14.0809 19.2596 13.9014 19.5374C13.7219 19.8151 13.5996 20.1252 13.5417 20.4497C13.5417 20.6595 13.5417 20.8244 13.5417 25.9492C13.5417 31.074 13.5417 31.2539 13.5417 31.4489C13.6 31.7814 13.7292 32.0983 13.9207 32.3778C14.1182 32.6576 14.3585 32.9054 14.6333 33.112C14.8303 33.232 23.2444 38.1322 23.4567 38.237C23.8196 38.4055 24.2155 38.4927 24.6164 38.4927C25.0174 38.4927 25.4133 38.4055 25.7762 38.237L28.8083 36.4539C31.2796 34.9553 32.0526 34.5507 33.7052 33.6366C35.3576 32.7226 35.8126 32.4677 38.6173 30.7745L41.6493 28.9312C42.285 28.643 43.01 28.6162 43.6657 28.8564C43.7716 28.8827 43.8737 28.9231 43.969 28.9761C44.1507 29.0661 48.714 31.8234 48.8505 31.9732C49.3686 32.3792 49.7145 32.9617 49.8209 33.6066C49.8209 33.8763 49.8209 39.4658 49.8209 39.7355C49.7131 40.3991 49.3491 40.9955 48.805 41.3987C48.6536 41.5038 44.2569 44.1111 43.9083 44.2609C43.5622 44.4134 43.1879 44.4922 42.809 44.4922C42.4304 44.4922 42.0558 44.4134 41.71 44.2609C41.5886 44.2609 40.7093 43.6916 39.2086 42.7624L36.7675 41.2639C36.3326 40.9353 36.0054 40.4871 35.8277 39.9752C35.7064 39.6007 35.7064 39.7055 35.6912 37.6076V35.6896L33.7052 36.8433L31.7192 37.9973V39.9303C31.7192 42.0281 31.7192 42.0133 31.8254 42.3729C31.9115 42.6359 32.0393 42.8837 32.2043 43.1071C32.3752 43.3357 32.5794 43.5378 32.8107 43.7065C32.9472 43.8113 41.3308 48.7264 41.528 48.8315C41.7251 48.9363 41.8313 48.9961 42.6649 48.9961H43.4078L43.696 48.7416Z" fill="white"/>
</g>
<defs>
<linearGradient id="paint0_linear_78_268" x1="96.401" y1="104.351" x2="4.43896" y2="0.956304" gradientUnits="userSpaceOnUse">
<stop stop-color="#F8943A" stop-opacity="0.11"/>
<stop offset="0.41" stop-color="#F8943A"/>
<stop offset="0.78" stop-color="#FCB77A"/>
<stop offset="1" stop-color="#FFB573"/>
</linearGradient>
<clipPath id="clip0_78_268">
<rect width="65" height="65" fill="white"/>
</clipPath>
</defs>
</svg>
