<svg width="27" height="23" viewBox="0 0 27 23" fill="none" xmlns="http://www.w3.org/2000/svg">
<g clip-path="url(#clip0_78_546)">
<path fill-rule="evenodd" clip-rule="evenodd" d="M7.72754 21.1338L11.2644 22.0285V20.8585L11.5531 20.5832H13.5742V21.9597V22.9233H11.4087L8.73807 21.8221L7.72754 21.1338Z" fill="#CDBDB2"/>
<path fill-rule="evenodd" clip-rule="evenodd" d="M19.2764 21.1338L15.8117 22.0285V20.8585L15.523 20.5832H13.5019V21.9597V22.9233H15.6673L18.338 21.8221L19.2764 21.1338Z" fill="#CDBDB2"/>
<path fill-rule="evenodd" clip-rule="evenodd" d="M11.553 18.5872L11.2643 20.8585L11.6252 20.5832H15.3786L15.8117 20.8585L15.5229 18.5872L14.9455 18.2431L12.0583 18.3119L11.553 18.5872Z" fill="#393939"/>
<path fill-rule="evenodd" clip-rule="evenodd" d="M9.60425 3.23889L11.3366 7.09317L12.1306 18.3119H14.9456L15.8118 7.09317L17.3997 3.23889H9.60425Z" fill="#F89C35"/>
<path fill-rule="evenodd" clip-rule="evenodd" d="M2.0252 11.7046L0.00415039 17.2795L5.05679 17.0042H8.30491V14.5953L8.16055 9.63976L7.43874 10.1904L2.0252 11.7046Z" fill="#F89D35"/>
<path fill-rule="evenodd" clip-rule="evenodd" d="M5.85083 12.324L11.7696 12.4616L11.12 15.3524L8.30497 14.6641L5.85083 12.324Z" fill="#D87C30"/>
<path fill-rule="evenodd" clip-rule="evenodd" d="M5.85083 12.3928L8.30497 14.5953V16.7977L5.85083 12.3928Z" fill="#EA8D3A"/>
<path fill-rule="evenodd" clip-rule="evenodd" d="M8.30493 14.6641L11.1922 15.3524L12.1305 18.3119L11.4809 18.656L8.30493 16.8665V14.6641Z" fill="#F89D35"/>
<path fill-rule="evenodd" clip-rule="evenodd" d="M8.30498 16.8665L7.72754 21.1338L11.5531 18.5872L8.30498 16.8665Z" fill="#EB8F35"/>
<path fill-rule="evenodd" clip-rule="evenodd" d="M11.7697 12.4616L12.1306 18.3119L11.0479 15.3179L11.7697 12.4616Z" fill="#EA8E3A"/>
<path fill-rule="evenodd" clip-rule="evenodd" d="M4.98462 16.9354L8.30492 16.8665L7.72748 21.1338L4.98462 16.9354Z" fill="#D87C30"/>
<path fill-rule="evenodd" clip-rule="evenodd" d="M1.59212 22.9921L7.72746 21.1338L4.98461 16.9354L0.00415039 17.2795L1.59212 22.9921Z" fill="#EB8F35"/>
<path fill-rule="evenodd" clip-rule="evenodd" d="M11.3365 7.09317L8.23279 9.57093L5.85083 12.324L11.7696 12.5305L11.3365 7.09317Z" fill="#E8821E"/>
<path fill-rule="evenodd" clip-rule="evenodd" d="M7.72754 21.1338L11.5531 18.5872L11.2644 20.7897V22.0285L8.66589 21.5468L7.72754 21.1338Z" fill="#DFCEC3"/>
<path fill-rule="evenodd" clip-rule="evenodd" d="M19.2764 21.1338L15.523 18.5872L15.8117 20.7897V22.0285L18.4102 21.5468L19.2764 21.1338Z" fill="#DFCEC3"/>
<path fill-rule="evenodd" clip-rule="evenodd" d="M10.1816 13.7005L10.9756 15.2835L8.16055 14.5953L10.1816 13.7005Z" fill="#393939"/>
<path fill-rule="evenodd" clip-rule="evenodd" d="M1.52002 0.00403786L11.3366 7.09317L9.67642 3.23889L1.52002 0.00403786Z" fill="#E88F35"/>
<path fill-rule="evenodd" clip-rule="evenodd" d="M1.51995 0.00403786L0.220703 3.7895L0.942508 7.91909L0.437245 8.1944L1.15905 8.81384L0.581606 9.29562L1.37559 9.98389L0.870328 10.3968L2.02522 11.7734L7.43875 10.1904C10.0854 8.17146 11.3846 7.13906 11.3365 7.09317C11.2884 7.04729 8.0162 4.68424 1.51995 0.00403786Z" fill="#8E5A30"/>
<path fill-rule="evenodd" clip-rule="evenodd" d="M24.9786 11.7046L26.9996 17.2795L21.947 17.0042H18.6989V14.5953L18.8432 9.63976L19.565 10.1904L24.9786 11.7046Z" fill="#F89D35"/>
<path fill-rule="evenodd" clip-rule="evenodd" d="M21.153 12.324L15.2342 12.4616L15.8838 15.3524L18.6988 14.6641L21.153 12.324Z" fill="#D87C30"/>
<path fill-rule="evenodd" clip-rule="evenodd" d="M21.153 12.3928L18.6988 14.5953V16.7977L21.153 12.3928Z" fill="#EA8D3A"/>
<path fill-rule="evenodd" clip-rule="evenodd" d="M18.6989 14.6641L15.8116 15.3524L14.8733 18.3119L15.5229 18.656L18.6989 16.8665V14.6641Z" fill="#F89D35"/>
<path fill-rule="evenodd" clip-rule="evenodd" d="M18.6989 16.8665L19.2764 21.1338L15.523 18.656L18.6989 16.8665Z" fill="#EB8F35"/>
<path fill-rule="evenodd" clip-rule="evenodd" d="M15.2342 12.4616L14.8733 18.3119L15.9561 15.3179L15.2342 12.4616Z" fill="#EA8E3A"/>
<path fill-rule="evenodd" clip-rule="evenodd" d="M22.0192 16.9354L18.6989 16.8665L19.2763 21.1338L22.0192 16.9354Z" fill="#D87C30"/>
<path fill-rule="evenodd" clip-rule="evenodd" d="M25.4117 22.9921L19.2763 21.1338L22.0192 16.9354L26.9996 17.2795L25.4117 22.9921Z" fill="#EB8F35"/>
<path fill-rule="evenodd" clip-rule="evenodd" d="M15.6672 7.09317L18.771 9.57093L21.153 12.324L15.2342 12.5305L15.6672 7.09317Z" fill="#E8821E"/>
<path fill-rule="evenodd" clip-rule="evenodd" d="M16.8222 13.7005L16.0282 15.2835L18.8432 14.5953L16.8222 13.7005Z" fill="#393939"/>
<path fill-rule="evenodd" clip-rule="evenodd" d="M25.4839 0.00403786L15.6673 7.09317L17.3275 3.23889L25.4839 0.00403786Z" fill="#E88F35"/>
<path fill-rule="evenodd" clip-rule="evenodd" d="M25.4838 0.00403786L26.7831 3.7895L26.0613 7.91909L26.5665 8.1944L25.8447 8.81384L26.4222 9.29562L25.6282 9.98389L26.1335 10.3968L24.9786 11.7734L19.565 10.1904C16.9184 8.17146 15.6192 7.13906 15.6673 7.09317C15.7154 7.04729 18.9876 4.68424 25.4838 0.00403786Z" fill="#8E5A30"/>
</g>
<defs>
<clipPath id="clip0_78_546">
<rect width="27" height="23" fill="white"/>
</clipPath>
</defs>
</svg>
