<svg width="24" height="63" viewBox="0 0 24 63" fill="none" xmlns="http://www.w3.org/2000/svg">
<path opacity="0.4" d="M23.4675 61.1631H23.4552C22.3074 60.7636 21.1844 60.2871 20.086 59.7031C19.7898 59.5495 19.4936 59.3804 19.1974 59.2114C18.9753 58.8886 18.5927 58.3354 18.1484 57.6131C18.2348 57.2442 18.4446 55.8457 17.4819 53.9708C16.3589 51.7577 15.3222 50.8817 15.3222 49.6215C15.3222 49.6215 13.7548 55.4769 18.0126 57.9204C18.2348 58.2585 18.4816 58.5966 18.7408 58.9347C18.1114 58.5505 17.5066 58.1356 16.9019 57.6899C15.8652 56.9369 14.8902 56.0609 13.9646 55.1388C13.6931 54.8775 13.4216 54.5855 13.1624 54.3089C12.965 53.8478 12.6564 53.064 12.3232 52.0651C12.5083 51.6502 13.1007 50.0826 12.422 47.5007C11.6198 44.4732 10.6201 43.0439 10.9163 41.5532C10.9163 41.5532 7.64582 47.8849 12.0887 52.3725C12.2615 52.8181 12.4466 53.2792 12.6564 53.7402C12.6441 53.7249 12.6194 53.7095 12.6071 53.6788L11.953 52.9104C11.7308 52.6491 11.5334 52.3725 11.3236 52.1112C10.509 51.0201 9.71918 49.8828 9.02806 48.6533C8.36162 47.4854 7.74455 46.2559 7.20153 44.9957C7.1645 44.4732 7.12748 43.5818 7.12748 42.4599C7.43602 42.1679 8.46035 41.0153 8.63313 38.2951C8.84294 35.1139 8.36162 33.3158 9.08977 32.0863C9.08977 32.0863 4.10383 36.3587 6.8066 42.629C6.81894 43.1669 6.85597 43.7355 6.91768 44.3041C6.4487 43.1361 6.02909 41.9528 5.67119 40.7233C5.25158 39.3094 4.9307 37.8648 4.67153 36.3894C4.58514 35.9284 4.52344 35.4673 4.44939 34.9909C4.54812 34.5452 4.78261 33.6078 5.16519 32.4091C5.53543 32.2861 6.83128 31.6714 7.79392 29.2278C8.91699 26.3539 9.00338 24.4636 10.0524 23.6645C10.0524 23.6645 4.16554 25.355 4.81963 32.4244C4.64685 33.0238 4.49875 33.6846 4.37534 34.3608C4.27661 33.5463 4.2149 32.7472 4.16554 31.9326L4.12851 31.364C4.11617 31.1796 4.10383 30.9952 4.10383 30.7954L4.07915 29.6581C4.07915 29.2739 4.09149 28.9051 4.09149 28.5209C4.09149 28.3365 4.09149 28.1367 4.10383 27.9522L4.12851 27.3836L4.15319 26.815L4.16554 26.5384L4.20256 26.2771L4.30129 25.1552C4.32597 24.771 4.38768 24.4022 4.43705 24.0333L4.44939 23.9719C4.64685 23.6491 5.15285 22.8192 5.91802 21.7896C6.3006 21.8357 7.68284 21.8357 9.27489 19.9761C11.1508 17.7938 11.7679 16.0726 12.9773 15.7806C12.9773 15.7806 6.99172 14.7509 5.5848 21.6359C5.21456 22.1738 4.869 22.7578 4.52344 23.4032C4.54812 23.2342 4.5728 23.0805 4.59749 22.9268C4.73324 22.1891 4.84431 21.4515 5.01709 20.7138L5.14051 20.1605L5.20222 19.8839L5.27627 19.6073L5.56012 18.5315C5.96739 17.1022 6.42402 15.7037 7.00407 14.3513L7.21387 13.8442C7.28792 13.6751 7.36197 13.5061 7.43602 13.3524L7.49772 13.2141H7.57177C7.57177 13.2141 8.34928 12.461 9.60811 11.5543C9.96601 11.7387 11.2865 12.2459 13.2488 11.0471C15.5567 9.64861 16.544 8.21936 17.7781 8.38841C17.7781 8.38841 12.2985 5.22254 9.32425 11.293C8.78123 11.7233 8.22587 12.2305 7.68284 12.8145L7.89265 12.3688L8.38631 11.4006C8.4727 11.2469 8.54674 11.0779 8.63313 10.9242L8.8923 10.4631C9.34894 9.61787 9.85494 8.81872 10.3856 8.03494C10.6818 7.58926 11.0027 7.18968 11.3482 6.79011L12.8539 5.09959C13.2241 5.20717 14.6064 5.42233 16.3712 3.83939C18.4446 1.9952 19.2344 0.366157 20.4686 0.273948C20.4686 0.273948 14.6311 -1.69319 12.533 4.91517C12.1381 5.36085 11.6691 6.00632 11.2248 6.65179C11.1014 6.83621 10.978 7.00526 10.8546 7.17431C10.1018 8.17325 9.37362 9.2183 8.71952 10.3402L8.44801 10.8012C8.36162 10.9549 8.27523 11.124 8.18884 11.2776L7.6705 12.2305L7.18919 13.2141C7.12748 13.3677 7.04109 13.5214 6.96704 13.6905L6.74489 14.1976C6.73255 14.213 6.73255 14.2284 6.72021 14.2591C6.7449 13.7212 6.8066 12.9682 6.91768 12.0614C7.25089 11.8309 8.39865 10.8627 8.86762 8.20399C9.42299 5.08422 9.15147 3.22466 10.0154 2.13351C10.0154 2.13351 4.59749 5.49917 6.57212 12.169C6.51041 12.9835 6.47338 13.8442 6.49807 14.7509C6.00441 15.9189 5.5848 17.1483 5.18988 18.3778L4.88134 19.4689L4.80729 19.7456L4.74558 20.0222L4.60983 20.5755C4.42471 21.3131 4.27661 22.0508 4.12851 22.8039C4.09149 22.9883 4.05446 23.1727 4.02978 23.3725L3.94339 23.9411C3.89402 24.3253 3.81998 24.6942 3.78295 25.0784L3.74593 25.4318C3.6472 24.9708 3.54846 24.4175 3.43739 23.7874C3.68422 23.434 4.5111 22.0355 4.23958 19.3306C3.93105 16.1648 3.16588 14.5204 3.68422 13.1218C3.68422 13.1218 -0.511867 18.5469 3.1412 24.018C3.27695 24.6942 3.44973 25.4011 3.65954 26.1081L3.6472 26.2156L3.61017 26.5076L3.58549 26.7996L3.54846 27.3683L3.51144 27.9369C3.4991 28.1213 3.4991 28.3211 3.48676 28.5209C3.47442 28.9051 3.44973 29.2893 3.44973 29.6735V30.8261C3.44973 31.0259 3.44973 31.2103 3.46207 31.4101L3.48676 31.9941C3.54846 33.5309 3.68422 35.0831 3.91871 36.5892C3.99276 37.0349 4.0668 37.496 4.14085 37.9416C3.93105 37.5882 3.69656 37.1579 3.43739 36.6661C3.56081 36.2204 3.91871 34.5452 2.86969 32.1632C1.64788 29.3661 0.450765 28.1828 0.524814 26.6459C0.524814 26.6459 -1.77069 33.6078 3.23993 37.0349C3.54846 37.5728 3.89402 38.1107 4.27661 38.6486C4.43705 39.4785 4.63451 40.293 4.85666 41.0921C5.25158 42.5521 5.7329 43.9967 6.27592 45.3953C6.60914 46.2098 6.96704 47.0089 7.33728 47.7927C7.09046 47.6237 6.83129 47.4392 6.54743 47.2395C6.49807 46.763 6.21421 45.0725 4.42471 43.5203C2.32666 41.6915 0.833349 41.3073 0.352034 39.8934C0.352034 39.8934 0.796325 47.4085 6.51041 47.6698C6.85597 47.9003 7.22621 48.1155 7.6088 48.3306C7.79392 48.6994 7.97904 49.0529 8.16416 49.4064C8.85528 50.6973 9.64513 51.9114 10.472 53.0794C10.6818 53.3714 10.8916 53.6634 11.1138 53.94L11.7679 54.7699C12.1011 55.1541 12.422 55.5383 12.7675 55.9072C12.3973 55.8764 11.9406 55.815 11.4223 55.7381C11.2372 55.3232 10.435 53.9093 8.29992 53.356C5.7946 52.7106 4.30129 53.0794 3.41271 52.019C3.41271 52.019 6.18953 58.7042 11.521 56.1531C12.0147 56.1992 12.533 56.2299 13.0637 56.2299C13.1007 56.2607 13.1254 56.3068 13.1624 56.3375C14.1251 57.3364 15.1247 58.2893 16.1861 59.1038C16.9142 59.6724 17.6671 60.2103 18.4322 60.7021C18.0496 60.7789 17.5807 60.8558 17.0377 60.9172C16.7785 60.5791 15.7418 59.4112 13.5574 59.4726C10.9903 59.5495 9.60811 60.3179 8.54674 59.5341C8.54674 59.5341 12.459 65.2665 17.1981 61.2861C17.7041 61.1939 18.2348 61.0709 18.7778 60.9019C19.0123 61.0402 19.2468 61.1939 19.4936 61.3168C20.6413 61.9623 21.8261 62.5155 23.0232 62.9612C23.4922 63.1303 23.9859 62.7307 23.9982 62.0699C24.0229 61.6549 23.7884 61.2861 23.4675 61.1631ZM17.8892 57.1981C16.9759 55.6152 15.9022 53.3868 15.4333 50.9893C15.4333 50.9893 15.6801 53.9554 17.5066 57.1366C16.8525 56.4912 14.8409 54.2167 15.2852 50.6512C15.2852 50.6512 16.1737 52.2034 16.7785 53.0487C17.3709 53.8632 18.2471 56.0609 17.8892 57.1981ZM10.7065 43.1822C10.7065 43.1822 10.2745 46.7784 11.6815 51.2352C11.0644 50.2363 9.23786 46.7784 10.6324 42.7212C10.6324 42.7212 11.2989 44.8881 11.8172 46.1176C12.3109 47.3163 12.8169 50.2516 12.1258 51.4504C11.4223 49.2527 10.6818 46.2098 10.7065 43.1822ZM9.17616 24.2792C9.17616 24.2792 8.44801 26.4154 8.11479 27.7371C7.79392 29.028 6.51041 31.5792 5.35031 31.8251C6.0908 29.6428 7.27558 26.8304 8.97869 24.6788C8.97869 24.6788 6.65851 26.8765 5.15285 31.2872C5.27627 30.0423 5.90568 25.9851 9.17616 24.2792ZM12.0023 15.965C12.0023 15.965 10.7065 17.6248 10.0154 18.7313C9.34894 19.7917 7.42367 21.6051 6.25124 21.3285C7.57177 19.6073 9.48469 17.5172 11.6938 16.2723C11.6938 16.2723 8.8923 17.2866 6.22656 20.7445C6.70787 19.6073 8.46035 16.1033 12.0023 15.965ZM10.1511 10.6783C10.8669 9.78692 13.3599 7.06673 16.7785 8.21936C16.7785 8.21936 15.1494 9.34124 14.2361 10.1404C13.3476 10.9088 11.0767 11.9385 10.0277 11.2469C11.6938 10.0943 14.014 8.77262 16.4206 8.38841C16.4329 8.38841 13.508 8.3423 10.1511 10.6783ZM13.2735 4.11602C13.8536 3.08635 15.9516 -0.125628 19.4813 0.304684C19.4813 0.304684 18.025 1.7493 17.2351 2.73287C16.4699 3.68571 14.3719 5.17643 13.2488 4.71539C14.7298 3.22466 16.8402 1.44194 19.1604 0.550577C19.1604 0.550577 16.2725 1.1192 13.2735 4.11602ZM9.29957 2.97877C9.29957 2.97877 8.97869 5.26864 8.91699 6.65179C8.85528 7.98883 8.07777 10.8473 6.99172 11.4313C7.30026 9.09535 7.92967 6.00632 9.1885 3.42445C9.1885 3.42445 7.33728 6.23685 6.70787 10.9549C6.58446 9.71008 6.43636 5.57601 9.29957 2.97877ZM3.25227 14.6894C3.25227 14.6894 2.26496 18.1165 2.94373 22.8192C2.4871 21.682 1.24062 17.8553 3.23993 14.213C3.23993 14.213 3.56081 16.5029 3.86934 17.8245C4.16554 19.1155 4.2149 22.1277 3.33866 23.1266C3.00544 20.806 2.77095 17.6401 3.25227 14.6894ZM3.16588 36.1128C2.16622 34.0842 1.00613 31.2564 0.586521 28.275C0.586521 28.275 0.685252 31.9019 2.69691 35.9745C1.94408 35.1292 -0.351428 32.1324 0.426082 27.8447C0.426082 27.8447 1.40106 29.8272 2.07983 30.9183C2.74627 31.9941 3.67188 34.7758 3.16588 36.1128ZM5.65885 47.0397C4.68388 46.7016 1.56149 45.3031 0.709935 41.0153C0.709935 41.0153 2.28964 42.2448 3.28929 42.8441C4.26427 43.4281 6.0908 45.3953 6.11548 46.8706C4.48641 45.6412 2.43774 43.7509 0.993788 41.3227C0.993788 41.3227 2.38837 44.5193 5.65885 47.0397ZM6.78192 41.3995C6.52275 40.1854 5.91802 36.1128 8.46035 33.0392C8.46035 33.0392 8.39865 35.3598 8.48504 36.7429C8.57143 38.08 8.12714 41.046 7.11514 41.8145C7.1645 39.4477 7.43602 36.2819 8.38631 33.5002C8.38631 33.5002 6.88065 36.6046 6.78192 41.3995ZM10.5461 55.9994C9.5464 56.1684 6.22655 56.4143 4.09149 52.895C4.09149 52.895 5.93036 53.2485 7.04109 53.3253C8.11479 53.3868 10.4226 54.3089 10.904 55.6459C9.01572 55.2924 6.53509 54.5701 4.43705 53.0333C4.46173 53.0179 6.7449 55.2771 10.5461 55.9994ZM16.2355 61.409C15.2852 61.8547 12.1011 63.0227 9.38596 60.1796C9.38596 60.1796 11.2372 60.0105 12.3356 59.7646C13.3969 59.5187 15.8035 59.78 16.5193 60.948C14.6187 61.1324 12.0641 61.117 9.7562 60.2103C9.76855 60.2257 12.3973 61.7779 16.2355 61.409Z" fill="white"/>
</svg>
