<svg width="134" height="134" viewBox="0 0 134 134" fill="none" xmlns="http://www.w3.org/2000/svg">
<g clip-path="url(#clip0_115_5010)">
<path d="M0 67C0 53.7487 3.92947 40.795 11.2915 29.7769C18.6536 18.7588 29.1176 10.1712 41.3602 5.10011C53.6029 0.0290345 67.0743 -1.2978 80.0711 1.28742C93.068 3.87262 105.006 10.2537 114.376 19.6239C123.746 28.994 130.127 40.9323 132.712 53.929C135.298 66.9257 133.971 80.3972 128.9 92.6398C123.829 104.882 115.241 115.347 104.223 122.708C93.2054 130.07 80.2515 134 67 134C49.2305 134 32.1888 126.941 19.6239 114.376C7.05895 101.812 0 84.7695 0 67Z" fill="url(#paint0_linear_115_5010)"/>
<path d="M90.0808 100.483L90.6118 100.266L99.5194 95.0764L108.708 89.7321C109.199 89.4646 109.642 89.1201 110.021 88.7125C110.692 88.004 111.129 87.1096 111.271 86.1487C111.271 85.716 111.271 64.5239 111.271 64.0605C111.101 62.9952 110.611 62.0052 109.865 61.2185C109.166 60.5658 108.376 60.0148 107.52 59.5815L90.7994 49.912C90.0975 49.5971 89.336 49.4342 88.5649 49.4342C87.7939 49.4342 87.0323 49.5971 86.3305 49.912C86.0491 49.912 84.1424 51.1168 79.923 53.5573L69.672 59.5195L59.5455 65.3893C56.42 67.3044 53.5135 68.9107 53.2948 68.9727C52.5882 69.3272 51.8055 69.507 51.0133 69.4975C50.2286 69.4997 49.452 69.3417 48.7317 69.0341C48.3879 69.0341 39.0429 63.5044 38.5429 63.1336C38.0535 62.7662 37.6217 62.3291 37.2614 61.8366C36.8615 61.2331 36.5756 60.5636 36.4176 59.8596C36.3059 57.8015 36.3059 55.7388 36.4176 53.6809C36.1662 51.2826 36.2397 48.862 36.6364 46.483C36.8417 45.9022 37.1256 45.3514 37.4802 44.8457C37.8349 44.3663 38.268 43.9486 38.7616 43.6099C39.1367 43.3628 48.1378 38.0803 48.4191 37.8641C49.1444 37.5341 49.9334 37.3632 50.7319 37.3632C51.5304 37.3632 52.3194 37.5341 53.0447 37.8641C53.3573 38.0185 62.4209 43.301 63.1088 43.7026C63.7704 44.1467 64.317 44.7396 64.7023 45.4326C64.9535 45.8574 65.1428 46.3149 65.2651 46.7919V47.2553V51.1168C65.2651 53.2484 65.2651 55.0092 65.2651 55.0092L69.4219 52.6305L73.5162 50.2519V46.3903C73.5162 42.0963 73.5162 42.2507 73.2348 41.3857C72.8551 40.346 72.1829 39.4351 71.2973 38.76C70.9847 38.5437 53.9823 28.6582 53.1697 28.2257L52.5134 27.9167H52.2321H49.1067L48.6379 28.1021C48.2941 28.2565 45.8876 29.6159 39.2617 33.4465C34.3549 36.2886 30.2293 38.6981 30.073 38.8217C29.509 39.21 29.0281 39.7047 28.6581 40.2772C28.288 40.8498 28.036 41.4889 27.9165 42.158C27.9165 42.5905 27.9165 42.9304 27.9165 53.4955C27.9165 64.0605 27.9165 64.4312 27.9165 64.8332C28.0367 65.5188 28.303 66.1721 28.6978 66.7483C29.1049 67.325 29.6005 67.8359 30.1668 68.2619C30.5731 68.5093 47.9191 78.6112 48.3566 78.8273C49.1048 79.1745 49.921 79.3543 50.7475 79.3543C51.574 79.3543 52.3904 79.1745 53.1385 78.8273L59.3892 75.1512C64.484 72.0619 66.0775 71.2278 69.4844 69.3434C72.8908 67.459 73.8288 66.9336 79.6109 63.4429L85.8615 59.6429C87.1719 59.0489 88.6665 58.9936 90.0183 59.4888C90.2366 59.543 90.447 59.6262 90.6436 59.7356C91.0182 59.921 100.426 65.6054 100.707 65.9141C101.775 66.7511 102.488 67.952 102.707 69.2814C102.707 69.8375 102.707 81.3604 102.707 81.9165C102.485 83.2844 101.735 84.5139 100.613 85.3452C100.301 85.5619 91.2371 90.9369 90.5185 91.2457C89.805 91.56 89.0334 91.7225 88.2522 91.7225C87.4717 91.7225 86.6995 91.56 85.9865 91.2457C85.7364 91.2457 83.9235 90.0721 80.8298 88.1564L75.7975 85.0672C74.9008 84.3899 74.2263 83.4659 73.8601 82.4106C73.6099 81.6385 73.61 81.8545 73.5787 77.5297V73.5756L69.4844 75.9541L65.3902 78.3331V82.318C65.3902 86.6428 65.3902 86.6121 65.609 87.3536C65.7866 87.8957 66.0501 88.4066 66.3901 88.8672C66.7425 89.3384 67.1634 89.755 67.6403 90.1028C67.9217 90.3189 85.2049 100.452 85.6113 100.668C86.0178 100.884 86.2367 101.008 87.9552 101.008H89.4867L90.0808 100.483Z" fill="white"/>
</g>
<defs>
<linearGradient id="paint0_linear_115_5010" x1="198.734" y1="215.124" x2="9.1511" y2="1.97145" gradientUnits="userSpaceOnUse">
<stop stop-color="#A762FF" stop-opacity="0.11"/>
<stop offset="0.41" stop-color="#5C19EB"/>
<stop offset="0.78" stop-color="#A586FF"/>
<stop offset="1" stop-color="#E2C5FF"/>
</linearGradient>
<clipPath id="clip0_115_5010">
<rect width="134" height="134" fill="white"/>
</clipPath>
</defs>
</svg>
