<svg width="79" height="16" viewBox="0 0 79 16" fill="none" xmlns="http://www.w3.org/2000/svg">
<path opacity="0.4" d="M12.8721 5.58457C12.5614 5.40653 12.1619 5.40653 11.8068 5.58457L9.32115 7.05341L7.63447 7.98813L5.19321 9.45697C4.88251 9.63501 4.48303 9.63501 4.12794 9.45697L2.21932 8.2997C1.90862 8.12166 1.68668 7.76558 1.68668 7.36498V5.13947C1.68668 4.78338 1.86423 4.4273 2.21932 4.20475L4.12794 3.09199C4.43864 2.91395 4.83812 2.91395 5.19321 3.09199L7.10183 4.24926C7.41253 4.4273 7.63447 4.78338 7.63447 5.18398V6.65282L9.32115 5.67359V4.16024C9.32115 3.80415 9.1436 3.44807 8.78851 3.22552L5.2376 1.13353C4.92689 0.95549 4.52741 0.95549 4.17232 1.13353L0.532637 3.27003C0.177546 3.44807 0 3.80415 0 4.16024V8.34421C0 8.7003 0.177546 9.05638 0.532637 9.27893L4.12794 11.3709C4.43864 11.549 4.83812 11.549 5.19321 11.3709L7.63447 9.94659L9.32115 8.96736L11.7624 7.54303C12.0731 7.36499 12.4726 7.36499 12.8277 7.54303L14.7363 8.65579C15.047 8.83383 15.2689 9.18991 15.2689 9.5905V11.816C15.2689 12.1721 15.0914 12.5282 14.7363 12.7507L12.8721 13.8635C12.5614 14.0415 12.1619 14.0415 11.8068 13.8635L9.89817 12.7507C9.58747 12.5727 9.36554 12.2166 9.36554 11.816V10.3917L7.67885 11.3709V12.8398C7.67885 13.1958 7.8564 13.5519 8.21149 13.7745L11.8068 15.8665C12.1175 16.0445 12.517 16.0445 12.8721 15.8665L16.4674 13.7745C16.7781 13.5964 17 13.2404 17 12.8398V8.61128C17 8.25519 16.8225 7.89911 16.4674 7.67656L12.8721 5.58457Z" fill="#061024"/>
<path opacity="0.4" d="M28.54 5.692L30.472 8.38L30.584 8.604L30.71 8.38L32.628 5.692H34L31.298 9.36L34.014 13H32.642L30.71 10.326L30.584 10.116L30.472 10.326L28.54 13H27.168L29.884 9.36L27.182 5.692H28.54ZM34.7797 13C34.7797 12.6267 34.8077 12.2767 34.8637 11.95C34.9291 11.6233 35.0411 11.3107 35.1997 11.012C35.3677 10.7133 35.6011 10.4287 35.8997 10.158C36.1984 9.878 36.5857 9.60733 37.0617 9.346C37.3417 9.18733 37.6217 9.038 37.9017 8.898C38.1911 8.758 38.4571 8.60867 38.6997 8.45C38.9517 8.29133 39.1524 8.11867 39.3017 7.932C39.4511 7.736 39.5257 7.512 39.5257 7.26C39.5257 7.04533 39.4604 6.84 39.3297 6.644C39.2084 6.43867 39.0217 6.27533 38.7697 6.154C38.5271 6.02333 38.2237 5.958 37.8597 5.958C37.5797 5.958 37.3231 5.99533 37.0897 6.07C36.8657 6.14467 36.6604 6.24267 36.4737 6.364C36.2964 6.476 36.1377 6.59733 35.9977 6.728C35.8671 6.84933 35.7551 6.96133 35.6617 7.064L34.8917 6.196C34.9664 6.112 35.0924 6 35.2697 5.86C35.4471 5.71067 35.6711 5.56133 35.9417 5.412C36.2124 5.26267 36.5251 5.13667 36.8797 5.034C37.2437 4.922 37.6404 4.866 38.0697 4.866C38.6484 4.866 39.1431 4.96867 39.5537 5.174C39.9737 5.37 40.2957 5.64067 40.5197 5.986C40.7437 6.322 40.8557 6.7 40.8557 7.12C40.8557 7.484 40.7764 7.80133 40.6177 8.072C40.4684 8.34267 40.2724 8.58067 40.0297 8.786C39.7964 8.99133 39.5491 9.16867 39.2877 9.318C39.0357 9.458 38.8071 9.57933 38.6017 9.682C38.1817 9.88733 37.8224 10.074 37.5237 10.242C37.2251 10.41 36.9777 10.578 36.7817 10.746C36.5951 10.9047 36.4411 11.0727 36.3197 11.25C36.2077 11.4273 36.1237 11.6373 36.0677 11.88H41.0097V13H34.7797ZM53.6819 13H52.4499V8.912C52.4499 8.14667 52.3239 7.582 52.0719 7.218C51.8293 6.854 51.4653 6.672 50.9799 6.672C50.4853 6.672 50.0373 6.854 49.6359 7.218C49.2346 7.57267 48.9499 8.03467 48.7819 8.604V13H47.5499V8.912C47.5499 8.13733 47.4286 7.57267 47.1859 7.218C46.9433 6.854 46.5793 6.672 46.0939 6.672C45.6086 6.672 45.1606 6.84933 44.7499 7.204C44.3486 7.54933 44.0639 8.01133 43.8959 8.59V13H42.6639V5.692H43.7839V7.26C44.0826 6.71867 44.4699 6.30333 44.9459 6.014C45.4219 5.71533 45.9586 5.566 46.5559 5.566C47.1626 5.566 47.6479 5.734 48.0119 6.07C48.3759 6.39667 48.5999 6.82133 48.6839 7.344C49.0106 6.76533 49.4073 6.32667 49.8739 6.028C50.3406 5.72 50.8726 5.566 51.4699 5.566C51.8899 5.566 52.2399 5.64533 52.5199 5.804C52.8093 5.95333 53.0379 6.168 53.2059 6.448C53.3739 6.71867 53.4953 7.04067 53.5699 7.414C53.6446 7.78733 53.6819 8.19333 53.6819 8.632V13ZM55.0235 10.886C55.0235 10.4193 55.1542 10.018 55.4155 9.682C55.6862 9.33667 56.0548 9.07067 56.5215 8.884C56.9882 8.69733 57.5295 8.604 58.1455 8.604C58.4722 8.604 58.8175 8.632 59.1815 8.688C59.5455 8.73467 59.8675 8.80933 60.1475 8.912V8.38C60.1475 7.82 59.9795 7.38133 59.6435 7.064C59.3075 6.73733 58.8315 6.574 58.2155 6.574C57.8142 6.574 57.4268 6.64867 57.0535 6.798C56.6895 6.938 56.3022 7.14333 55.8915 7.414L55.4435 6.546C55.9195 6.21933 56.3955 5.97667 56.8715 5.818C57.3475 5.65 57.8422 5.566 58.3555 5.566C59.2888 5.566 60.0262 5.82733 60.5675 6.35C61.1088 6.86333 61.3795 7.582 61.3795 8.506V11.6C61.3795 11.7493 61.4075 11.8613 61.4635 11.936C61.5288 12.0013 61.6315 12.0387 61.7715 12.048V13C61.6502 13.0187 61.5428 13.0327 61.4495 13.042C61.3655 13.0513 61.2955 13.056 61.2395 13.056C60.9502 13.056 60.7308 12.9767 60.5815 12.818C60.4415 12.6593 60.3622 12.4913 60.3435 12.314L60.3155 11.852C59.9982 12.2627 59.5828 12.58 59.0695 12.804C58.5562 13.028 58.0475 13.14 57.5435 13.14C57.0582 13.14 56.6242 13.042 56.2415 12.846C55.8588 12.6407 55.5602 12.37 55.3455 12.034C55.1308 11.6887 55.0235 11.306 55.0235 10.886ZM59.7835 11.404C59.8955 11.2733 59.9842 11.1427 60.0495 11.012C60.1148 10.872 60.1475 10.7553 60.1475 10.662V9.752C59.8582 9.64 59.5548 9.556 59.2375 9.5C58.9202 9.43467 58.6075 9.402 58.2995 9.402C57.6742 9.402 57.1655 9.528 56.7735 9.78C56.3908 10.0227 56.1995 10.3587 56.1995 10.788C56.1995 11.0213 56.2602 11.25 56.3815 11.474C56.5122 11.6887 56.6988 11.866 56.9415 12.006C57.1935 12.146 57.5015 12.216 57.8655 12.216C58.2482 12.216 58.6122 12.1413 58.9575 11.992C59.3028 11.8333 59.5782 11.6373 59.7835 11.404ZM67.0748 12.636C66.9721 12.6827 66.8321 12.7433 66.6548 12.818C66.4774 12.8927 66.2721 12.958 66.0388 13.014C65.8054 13.07 65.5581 13.098 65.2968 13.098C64.9981 13.098 64.7228 13.0467 64.4708 12.944C64.2188 12.832 64.0181 12.664 63.8688 12.44C63.7194 12.2067 63.6448 11.9173 63.6448 11.572V6.658H62.6508V5.692H63.6448V3.256H64.8768V5.692H66.5148V6.658H64.8768V11.194C64.8954 11.4553 64.9841 11.6513 65.1428 11.782C65.3014 11.9033 65.4881 11.964 65.7028 11.964C65.9454 11.964 66.1694 11.922 66.3748 11.838C66.5801 11.754 66.7154 11.6933 66.7808 11.656L67.0748 12.636ZM68.2167 13V5.692H69.4487V13H68.2167ZM68.2167 4.32V2.78H69.4487V4.32H68.2167ZM74.6772 13.14C74.1266 13.14 73.6226 13.042 73.1652 12.846C72.7172 12.6407 72.3252 12.3607 71.9892 12.006C71.6626 11.6513 71.4059 11.2453 71.2192 10.788C71.0419 10.3307 70.9532 9.84533 70.9532 9.332C70.9532 8.64133 71.1072 8.01133 71.4152 7.442C71.7232 6.87267 72.1572 6.42 72.7172 6.084C73.2772 5.73867 73.9259 5.566 74.6632 5.566C75.3819 5.566 76.0072 5.72933 76.5392 6.056C77.0806 6.37333 77.4819 6.80267 77.7432 7.344L76.5392 7.722C76.3526 7.37667 76.0912 7.11067 75.7552 6.924C75.4192 6.728 75.0459 6.63 74.6352 6.63C74.1872 6.63 73.7766 6.74667 73.4032 6.98C73.0392 7.21333 72.7499 7.53533 72.5352 7.946C72.3206 8.34733 72.2132 8.80933 72.2132 9.332C72.2132 9.84533 72.3206 10.312 72.5352 10.732C72.7592 11.1427 73.0532 11.4693 73.4172 11.712C73.7906 11.9547 74.2012 12.076 74.6492 12.076C74.9386 12.076 75.2139 12.0247 75.4752 11.922C75.7459 11.8193 75.9792 11.684 76.1752 11.516C76.3806 11.3387 76.5206 11.1473 76.5952 10.942L77.7992 11.306C77.6499 11.6607 77.4212 11.978 77.1132 12.258C76.8146 12.5287 76.4552 12.7433 76.0352 12.902C75.6246 13.0607 75.1719 13.14 74.6772 13.14Z" fill="#061024"/>
</svg>
