<svg width="35" height="31" viewBox="0 0 35 31" fill="none" xmlns="http://www.w3.org/2000/svg">
<path d="M26.5013 9.47478C25.8616 9.10682 25.0392 9.10682 24.3081 9.47478L19.1906 12.5104L15.718 14.4421L10.6919 17.4777C10.0522 17.8457 9.22977 17.8457 8.49869 17.4777L4.56919 15.0861C3.9295 14.7181 3.47258 13.9822 3.47258 13.1543V8.5549C3.47258 7.81899 3.83812 7.08309 4.56919 6.62315L8.49869 4.32344C9.13838 3.95549 9.96084 3.95549 10.6919 4.32344L14.6214 6.71513C15.2611 7.08309 15.718 7.81899 15.718 8.64688V11.6825L19.1906 9.65875V6.53116C19.1906 5.79525 18.8251 5.05935 18.094 4.59941L10.7833 0.275964C10.1436 -0.0919881 9.32115 -0.0919881 8.59008 0.275964L1.09661 4.69139C0.365535 5.05935 0 5.79525 0 6.53116V15.178C0 15.9139 0.365535 16.6499 1.09661 17.1098L8.49869 21.4332C9.13838 21.8012 9.96084 21.8012 10.6919 21.4332L15.718 18.4896L19.1906 16.4659L24.2167 13.5223C24.8564 13.1543 25.6789 13.1543 26.4099 13.5223L30.3394 15.822C30.9791 16.1899 31.436 16.9258 31.436 17.7537V22.3531C31.436 23.089 31.0705 23.8249 30.3394 24.2849L26.5013 26.5846C25.8616 26.9525 25.0392 26.9525 24.3081 26.5846L20.3786 24.2849C19.7389 23.9169 19.282 23.181 19.282 22.3531V19.4095L15.8094 21.4332V24.4688C15.8094 25.2047 16.1749 25.9407 16.906 26.4006L24.3081 30.724C24.9478 31.092 25.7702 31.092 26.5013 30.724L33.9034 26.4006C34.5431 26.0326 35 25.2967 35 24.4688V15.73C35 14.9941 34.6345 14.2582 33.9034 13.7982L26.5013 9.47478Z" fill="#834AFC"/>
</svg>
