<svg width="14" height="10" viewBox="0 0 14 10" fill="none" xmlns="http://www.w3.org/2000/svg">
<path d="M10.396 0.850482C10.1753 0.631794 9.81917 0.633383 9.60048 0.854031C9.38179 1.07468 9.38338 1.43083 9.60403 1.64952L10.9263 2.96C11.4629 3.49185 11.831 3.85788 12.0801 4.16803C12.161 4.26882 12.2242 4.35755 12.2732 4.4375L1 4.4375C0.68934 4.4375 0.4375 4.68934 0.4375 5C0.4375 5.31066 0.68934 5.5625 1 5.5625L12.2732 5.5625C12.2242 5.64245 12.161 5.73118 12.0801 5.83197C11.831 6.14212 11.4629 6.50815 10.9263 7.04L9.60403 8.35048C9.38338 8.56917 9.38179 8.92532 9.60048 9.14597C9.81917 9.36662 10.1753 9.36821 10.396 9.14952L11.742 7.81542C12.249 7.31297 12.6634 6.90231 12.9572 6.53641C13.2628 6.15591 13.484 5.76971 13.5431 5.30612C13.556 5.20449 13.5625 5.10224 13.5625 5C13.5625 4.89776 13.556 4.79551 13.5431 4.69388C13.484 4.23029 13.2628 3.84409 12.9572 3.46359C12.6634 3.09769 12.249 2.68703 11.742 2.18456L10.396 0.850482Z" fill="#834AFC"/>
</svg>
