<svg width="12" height="6" viewBox="0 0 12 6" fill="none" xmlns="http://www.w3.org/2000/svg">
<path d="M11.5327 1.52771C11.8243 1.23352 11.8222 0.758649 11.528 0.467065C11.2338 0.175481 10.7589 0.1776 10.4673 0.471797L8.72 2.23477C8.01086 2.95026 7.52282 3.44106 7.1093 3.77316C6.7076 4.09576 6.44958 4.20643 6.2185 4.23589C6.07341 4.25438 5.92659 4.25438 5.7815 4.23589C5.55042 4.20643 5.2924 4.09576 4.89071 3.77316C4.47718 3.44106 3.98914 2.95026 3.28 2.23477L1.53269 0.471798C1.24111 0.177601 0.766238 0.175482 0.472041 0.467066C0.177844 0.758649 0.175726 1.23352 0.467309 1.52772L2.24609 3.32244C2.91604 3.99842 3.46359 4.55089 3.95146 4.9427C4.45879 5.35013 4.97373 5.64506 5.59184 5.72385C5.86287 5.75839 6.13714 5.75839 6.40816 5.72385C7.02628 5.64506 7.54122 5.35013 8.04854 4.9427C8.53641 4.55089 9.08396 3.99842 9.7539 3.32245L11.5327 1.52771Z"/>
</svg>
