<svg width="670" height="16" viewBox="0 0 670 16" fill="none" xmlns="http://www.w3.org/2000/svg">
<path opacity="0.4" d="M12.8721 5.58457C12.5614 5.40653 12.1619 5.40653 11.8068 5.58457L9.32115 7.05341L7.63447 7.98813L5.19321 9.45697C4.88251 9.63501 4.48303 9.63501 4.12794 9.45697L2.21932 8.2997C1.90862 8.12166 1.68668 7.76558 1.68668 7.36499V5.13947C1.68668 4.78338 1.86423 4.4273 2.21932 4.20475L4.12794 3.09199C4.43864 2.91395 4.83812 2.91395 5.19321 3.09199L7.10183 4.24926C7.41253 4.4273 7.63447 4.78338 7.63447 5.18398V6.65282L9.32115 5.67359V4.16024C9.32115 3.80415 9.1436 3.44807 8.78851 3.22552L5.2376 1.13353C4.92689 0.95549 4.52741 0.95549 4.17232 1.13353L0.532637 3.27003C0.177546 3.44807 0 3.80415 0 4.16024V8.34421C0 8.7003 0.177546 9.05638 0.532637 9.27893L4.12794 11.3709C4.43864 11.549 4.83812 11.549 5.19321 11.3709L7.63447 9.94659L9.32115 8.96736L11.7624 7.54303C12.0731 7.36499 12.4726 7.36499 12.8277 7.54303L14.7363 8.65579C15.047 8.83383 15.2689 9.18991 15.2689 9.5905V11.816C15.2689 12.1721 15.0914 12.5282 14.7363 12.7507L12.8721 13.8635C12.5614 14.0415 12.1619 14.0415 11.8068 13.8635L9.89817 12.7507C9.58747 12.5727 9.36554 12.2166 9.36554 11.816V10.3917L7.67885 11.3709V12.8398C7.67885 13.1958 7.8564 13.5519 8.21149 13.7745L11.8068 15.8665C12.1175 16.0445 12.517 16.0445 12.8721 15.8665L16.4674 13.7745C16.7781 13.5964 17 13.2404 17 12.8398V8.61128C17 8.25519 16.8225 7.89911 16.4674 7.67656L12.8721 5.58457Z" fill="#061024"/>
<path opacity="0.4" d="M28.54 5.692L30.472 8.38L30.584 8.604L30.71 8.38L32.628 5.692H34L31.298 9.36L34.014 13H32.642L30.71 10.326L30.584 10.116L30.472 10.326L28.54 13H27.168L29.884 9.36L27.182 5.692H28.54ZM34.7797 13C34.7797 12.6267 34.8077 12.2767 34.8637 11.95C34.9291 11.6233 35.0411 11.3107 35.1997 11.012C35.3677 10.7133 35.6011 10.4287 35.8997 10.158C36.1984 9.878 36.5857 9.60733 37.0617 9.346C37.3417 9.18733 37.6217 9.038 37.9017 8.898C38.1911 8.758 38.4571 8.60867 38.6997 8.45C38.9517 8.29133 39.1524 8.11867 39.3017 7.932C39.4511 7.736 39.5257 7.512 39.5257 7.26C39.5257 7.04533 39.4604 6.84 39.3297 6.644C39.2084 6.43867 39.0217 6.27533 38.7697 6.154C38.5271 6.02333 38.2237 5.958 37.8597 5.958C37.5797 5.958 37.3231 5.99533 37.0897 6.07C36.8657 6.14467 36.6604 6.24267 36.4737 6.364C36.2964 6.476 36.1377 6.59733 35.9977 6.728C35.8671 6.84933 35.7551 6.96133 35.6617 7.064L34.8917 6.196C34.9664 6.112 35.0924 6 35.2697 5.86C35.4471 5.71067 35.6711 5.56133 35.9417 5.412C36.2124 5.26267 36.5251 5.13667 36.8797 5.034C37.2437 4.922 37.6404 4.866 38.0697 4.866C38.6484 4.866 39.1431 4.96867 39.5537 5.174C39.9737 5.37 40.2957 5.64067 40.5197 5.986C40.7437 6.322 40.8557 6.7 40.8557 7.12C40.8557 7.484 40.7764 7.80133 40.6177 8.072C40.4684 8.34267 40.2724 8.58067 40.0297 8.786C39.7964 8.99133 39.5491 9.16867 39.2877 9.318C39.0357 9.458 38.8071 9.57933 38.6017 9.682C38.1817 9.88733 37.8224 10.074 37.5237 10.242C37.2251 10.41 36.9777 10.578 36.7817 10.746C36.5951 10.9047 36.4411 11.0727 36.3197 11.25C36.2077 11.4273 36.1237 11.6373 36.0677 11.88H41.0097V13H34.7797ZM53.6819 13H52.4499V8.912C52.4499 8.14667 52.3239 7.582 52.0719 7.218C51.8293 6.854 51.4653 6.672 50.9799 6.672C50.4853 6.672 50.0373 6.854 49.6359 7.218C49.2346 7.57267 48.9499 8.03467 48.7819 8.604V13H47.5499V8.912C47.5499 8.13733 47.4286 7.57267 47.1859 7.218C46.9433 6.854 46.5793 6.672 46.0939 6.672C45.6086 6.672 45.1606 6.84933 44.7499 7.204C44.3486 7.54933 44.0639 8.01133 43.8959 8.59V13H42.6639V5.692H43.7839V7.26C44.0826 6.71867 44.4699 6.30333 44.9459 6.014C45.4219 5.71533 45.9586 5.566 46.5559 5.566C47.1626 5.566 47.6479 5.734 48.0119 6.07C48.3759 6.39667 48.5999 6.82133 48.6839 7.344C49.0106 6.76533 49.4073 6.32667 49.8739 6.028C50.3406 5.72 50.8726 5.566 51.4699 5.566C51.8899 5.566 52.2399 5.64533 52.5199 5.804C52.8093 5.95333 53.0379 6.168 53.2059 6.448C53.3739 6.71867 53.4953 7.04067 53.5699 7.414C53.6446 7.78733 53.6819 8.19333 53.6819 8.632V13ZM55.0235 10.886C55.0235 10.4193 55.1542 10.018 55.4155 9.682C55.6862 9.33667 56.0548 9.07067 56.5215 8.884C56.9882 8.69733 57.5295 8.604 58.1455 8.604C58.4722 8.604 58.8175 8.632 59.1815 8.688C59.5455 8.73467 59.8675 8.80933 60.1475 8.912V8.38C60.1475 7.82 59.9795 7.38133 59.6435 7.064C59.3075 6.73733 58.8315 6.574 58.2155 6.574C57.8142 6.574 57.4268 6.64867 57.0535 6.798C56.6895 6.938 56.3022 7.14333 55.8915 7.414L55.4435 6.546C55.9195 6.21933 56.3955 5.97667 56.8715 5.818C57.3475 5.65 57.8422 5.566 58.3555 5.566C59.2888 5.566 60.0262 5.82733 60.5675 6.35C61.1088 6.86333 61.3795 7.582 61.3795 8.506V11.6C61.3795 11.7493 61.4075 11.8613 61.4635 11.936C61.5288 12.0013 61.6315 12.0387 61.7715 12.048V13C61.6502 13.0187 61.5428 13.0327 61.4495 13.042C61.3655 13.0513 61.2955 13.056 61.2395 13.056C60.9502 13.056 60.7308 12.9767 60.5815 12.818C60.4415 12.6593 60.3622 12.4913 60.3435 12.314L60.3155 11.852C59.9982 12.2627 59.5828 12.58 59.0695 12.804C58.5562 13.028 58.0475 13.14 57.5435 13.14C57.0582 13.14 56.6242 13.042 56.2415 12.846C55.8588 12.6407 55.5602 12.37 55.3455 12.034C55.1308 11.6887 55.0235 11.306 55.0235 10.886ZM59.7835 11.404C59.8955 11.2733 59.9842 11.1427 60.0495 11.012C60.1148 10.872 60.1475 10.7553 60.1475 10.662V9.752C59.8582 9.64 59.5548 9.556 59.2375 9.5C58.9202 9.43467 58.6075 9.402 58.2995 9.402C57.6742 9.402 57.1655 9.528 56.7735 9.78C56.3908 10.0227 56.1995 10.3587 56.1995 10.788C56.1995 11.0213 56.2602 11.25 56.3815 11.474C56.5122 11.6887 56.6988 11.866 56.9415 12.006C57.1935 12.146 57.5015 12.216 57.8655 12.216C58.2482 12.216 58.6122 12.1413 58.9575 11.992C59.3028 11.8333 59.5782 11.6373 59.7835 11.404ZM67.0748 12.636C66.9721 12.6827 66.8321 12.7433 66.6548 12.818C66.4774 12.8927 66.2721 12.958 66.0388 13.014C65.8054 13.07 65.5581 13.098 65.2968 13.098C64.9981 13.098 64.7228 13.0467 64.4708 12.944C64.2188 12.832 64.0181 12.664 63.8688 12.44C63.7194 12.2067 63.6448 11.9173 63.6448 11.572V6.658H62.6508V5.692H63.6448V3.256H64.8768V5.692H66.5148V6.658H64.8768V11.194C64.8954 11.4553 64.9841 11.6513 65.1428 11.782C65.3014 11.9033 65.4881 11.964 65.7028 11.964C65.9454 11.964 66.1694 11.922 66.3748 11.838C66.5801 11.754 66.7154 11.6933 66.7808 11.656L67.0748 12.636ZM68.2167 13V5.692H69.4487V13H68.2167ZM68.2167 4.32V2.78H69.4487V4.32H68.2167ZM74.6772 13.14C74.1266 13.14 73.6226 13.042 73.1652 12.846C72.7172 12.6407 72.3252 12.3607 71.9892 12.006C71.6626 11.6513 71.4059 11.2453 71.2192 10.788C71.0419 10.3307 70.9532 9.84533 70.9532 9.332C70.9532 8.64133 71.1072 8.01133 71.4152 7.442C71.7232 6.87267 72.1572 6.42 72.7172 6.084C73.2772 5.73867 73.9259 5.566 74.6632 5.566C75.3819 5.566 76.0072 5.72933 76.5392 6.056C77.0806 6.37333 77.4819 6.80267 77.7432 7.344L76.5392 7.722C76.3526 7.37667 76.0912 7.11067 75.7552 6.924C75.4192 6.728 75.0459 6.63 74.6352 6.63C74.1872 6.63 73.7766 6.74667 73.4032 6.98C73.0392 7.21333 72.7499 7.53533 72.5352 7.946C72.3206 8.34733 72.2132 8.80933 72.2132 9.332C72.2132 9.84533 72.3206 10.312 72.5352 10.732C72.7592 11.1427 73.0532 11.4693 73.4172 11.712C73.7906 11.9547 74.2012 12.076 74.6492 12.076C74.9386 12.076 75.2139 12.0247 75.4752 11.922C75.7459 11.8193 75.9792 11.684 76.1752 11.516C76.3806 11.3387 76.5206 11.1473 76.5952 10.942L77.7992 11.306C77.6499 11.6607 77.4212 11.978 77.1132 12.258C76.8146 12.5287 76.4552 12.7433 76.0352 12.902C75.6246 13.0607 75.1719 13.14 74.6772 13.14Z" fill="#061024"/>
<path opacity="0.4" d="M101.872 5.58457C101.561 5.40653 101.162 5.40653 100.807 5.58457L98.3211 7.05341L96.6345 7.98813L94.1932 9.45697C93.8825 9.63501 93.483 9.63501 93.1279 9.45697L91.2193 8.2997C90.9086 8.12166 90.6867 7.76558 90.6867 7.36499V5.13947C90.6867 4.78338 90.8642 4.4273 91.2193 4.20475L93.1279 3.09199C93.4386 2.91395 93.8381 2.91395 94.1932 3.09199L96.1018 4.24926C96.4125 4.4273 96.6345 4.78338 96.6345 5.18398V6.65282L98.3211 5.67359V4.16024C98.3211 3.80415 98.1436 3.44807 97.7885 3.22552L94.2376 1.13353C93.9269 0.95549 93.5274 0.95549 93.1723 1.13353L89.5326 3.27003C89.1775 3.44807 89 3.80415 89 4.16024V8.34421C89 8.7003 89.1775 9.05638 89.5326 9.27893L93.1279 11.3709C93.4386 11.549 93.8381 11.549 94.1932 11.3709L96.6345 9.94659L98.3211 8.96736L100.762 7.54303C101.073 7.36499 101.473 7.36499 101.828 7.54303L103.736 8.65579C104.047 8.83383 104.269 9.18991 104.269 9.5905V11.816C104.269 12.1721 104.091 12.5282 103.736 12.7507L101.872 13.8635C101.561 14.0415 101.162 14.0415 100.807 13.8635L98.8982 12.7507C98.5875 12.5727 98.3655 12.2166 98.3655 11.816V10.3917L96.6789 11.3709V12.8398C96.6789 13.1958 96.8564 13.5519 97.2115 13.7745L100.807 15.8665C101.117 16.0445 101.517 16.0445 101.872 15.8665L105.467 13.7745C105.778 13.5964 106 13.2404 106 12.8398V8.61128C106 8.25519 105.822 7.89911 105.467 7.67656L101.872 5.58457Z" fill="#061024"/>
<path opacity="0.4" d="M117.54 5.692L119.472 8.38L119.584 8.604L119.71 8.38L121.628 5.692H123L120.298 9.36L123.014 13H121.642L119.71 10.326L119.584 10.116L119.472 10.326L117.54 13H116.168L118.884 9.36L116.182 5.692H117.54ZM123.78 13C123.78 12.6267 123.808 12.2767 123.864 11.95C123.929 11.6233 124.041 11.3107 124.2 11.012C124.368 10.7133 124.601 10.4287 124.9 10.158C125.198 9.878 125.586 9.60733 126.062 9.346C126.342 9.18733 126.622 9.038 126.902 8.898C127.191 8.758 127.457 8.60867 127.7 8.45C127.952 8.29133 128.152 8.11867 128.302 7.932C128.451 7.736 128.526 7.512 128.526 7.26C128.526 7.04533 128.46 6.84 128.33 6.644C128.208 6.43867 128.022 6.27533 127.77 6.154C127.527 6.02333 127.224 5.958 126.86 5.958C126.58 5.958 126.323 5.99533 126.09 6.07C125.866 6.14467 125.66 6.24267 125.474 6.364C125.296 6.476 125.138 6.59733 124.998 6.728C124.867 6.84933 124.755 6.96133 124.662 7.064L123.892 6.196C123.966 6.112 124.092 6 124.27 5.86C124.447 5.71067 124.671 5.56133 124.942 5.412C125.212 5.26267 125.525 5.13667 125.88 5.034C126.244 4.922 126.64 4.866 127.07 4.866C127.648 4.866 128.143 4.96867 128.554 5.174C128.974 5.37 129.296 5.64067 129.52 5.986C129.744 6.322 129.856 6.7 129.856 7.12C129.856 7.484 129.776 7.80133 129.618 8.072C129.468 8.34267 129.272 8.58067 129.03 8.786C128.796 8.99133 128.549 9.16867 128.288 9.318C128.036 9.458 127.807 9.57933 127.602 9.682C127.182 9.88733 126.822 10.074 126.524 10.242C126.225 10.41 125.978 10.578 125.782 10.746C125.595 10.9047 125.441 11.0727 125.32 11.25C125.208 11.4273 125.124 11.6373 125.068 11.88H130.01V13H123.78ZM142.682 13H141.45V8.912C141.45 8.14667 141.324 7.582 141.072 7.218C140.829 6.854 140.465 6.672 139.98 6.672C139.485 6.672 139.037 6.854 138.636 7.218C138.235 7.57267 137.95 8.03467 137.782 8.604V13H136.55V8.912C136.55 8.13733 136.429 7.57267 136.186 7.218C135.943 6.854 135.579 6.672 135.094 6.672C134.609 6.672 134.161 6.84933 133.75 7.204C133.349 7.54933 133.064 8.01133 132.896 8.59V13H131.664V5.692H132.784V7.26C133.083 6.71867 133.47 6.30333 133.946 6.014C134.422 5.71533 134.959 5.566 135.556 5.566C136.163 5.566 136.648 5.734 137.012 6.07C137.376 6.39667 137.6 6.82133 137.684 7.344C138.011 6.76533 138.407 6.32667 138.874 6.028C139.341 5.72 139.873 5.566 140.47 5.566C140.89 5.566 141.24 5.64533 141.52 5.804C141.809 5.95333 142.038 6.168 142.206 6.448C142.374 6.71867 142.495 7.04067 142.57 7.414C142.645 7.78733 142.682 8.19333 142.682 8.632V13ZM144.024 10.886C144.024 10.4193 144.154 10.018 144.416 9.682C144.686 9.33667 145.055 9.07067 145.522 8.884C145.988 8.69733 146.53 8.604 147.146 8.604C147.472 8.604 147.818 8.632 148.182 8.688C148.546 8.73467 148.868 8.80933 149.148 8.912V8.38C149.148 7.82 148.98 7.38133 148.644 7.064C148.308 6.73733 147.832 6.574 147.216 6.574C146.814 6.574 146.427 6.64867 146.054 6.798C145.69 6.938 145.302 7.14333 144.892 7.414L144.444 6.546C144.92 6.21933 145.396 5.97667 145.872 5.818C146.348 5.65 146.842 5.566 147.356 5.566C148.289 5.566 149.026 5.82733 149.568 6.35C150.109 6.86333 150.38 7.582 150.38 8.506V11.6C150.38 11.7493 150.408 11.8613 150.464 11.936C150.529 12.0013 150.632 12.0387 150.772 12.048V13C150.65 13.0187 150.543 13.0327 150.45 13.042C150.366 13.0513 150.296 13.056 150.24 13.056C149.95 13.056 149.731 12.9767 149.582 12.818C149.442 12.6593 149.362 12.4913 149.344 12.314L149.316 11.852C148.998 12.2627 148.583 12.58 148.07 12.804C147.556 13.028 147.048 13.14 146.544 13.14C146.058 13.14 145.624 13.042 145.242 12.846C144.859 12.6407 144.56 12.37 144.346 12.034C144.131 11.6887 144.024 11.306 144.024 10.886ZM148.784 11.404C148.896 11.2733 148.984 11.1427 149.05 11.012C149.115 10.872 149.148 10.7553 149.148 10.662V9.752C148.858 9.64 148.555 9.556 148.238 9.5C147.92 9.43467 147.608 9.402 147.3 9.402C146.674 9.402 146.166 9.528 145.774 9.78C145.391 10.0227 145.2 10.3587 145.2 10.788C145.2 11.0213 145.26 11.25 145.382 11.474C145.512 11.6887 145.699 11.866 145.942 12.006C146.194 12.146 146.502 12.216 146.866 12.216C147.248 12.216 147.612 12.1413 147.958 11.992C148.303 11.8333 148.578 11.6373 148.784 11.404ZM156.075 12.636C155.972 12.6827 155.832 12.7433 155.655 12.818C155.477 12.8927 155.272 12.958 155.039 13.014C154.805 13.07 154.558 13.098 154.297 13.098C153.998 13.098 153.723 13.0467 153.471 12.944C153.219 12.832 153.018 12.664 152.869 12.44C152.719 12.2067 152.645 11.9173 152.645 11.572V6.658H151.651V5.692H152.645V3.256H153.877V5.692H155.515V6.658H153.877V11.194C153.895 11.4553 153.984 11.6513 154.143 11.782C154.301 11.9033 154.488 11.964 154.703 11.964C154.945 11.964 155.169 11.922 155.375 11.838C155.58 11.754 155.715 11.6933 155.781 11.656L156.075 12.636ZM157.217 13V5.692H158.449V13H157.217ZM157.217 4.32V2.78H158.449V4.32H157.217ZM163.677 13.14C163.127 13.14 162.623 13.042 162.165 12.846C161.717 12.6407 161.325 12.3607 160.989 12.006C160.663 11.6513 160.406 11.2453 160.219 10.788C160.042 10.3307 159.953 9.84533 159.953 9.332C159.953 8.64133 160.107 8.01133 160.415 7.442C160.723 6.87267 161.157 6.42 161.717 6.084C162.277 5.73867 162.926 5.566 163.663 5.566C164.382 5.566 165.007 5.72933 165.539 6.056C166.081 6.37333 166.482 6.80267 166.743 7.344L165.539 7.722C165.353 7.37667 165.091 7.11067 164.755 6.924C164.419 6.728 164.046 6.63 163.635 6.63C163.187 6.63 162.777 6.74667 162.403 6.98C162.039 7.21333 161.75 7.53533 161.535 7.946C161.321 8.34733 161.213 8.80933 161.213 9.332C161.213 9.84533 161.321 10.312 161.535 10.732C161.759 11.1427 162.053 11.4693 162.417 11.712C162.791 11.9547 163.201 12.076 163.649 12.076C163.939 12.076 164.214 12.0247 164.475 11.922C164.746 11.8193 164.979 11.684 165.175 11.516C165.381 11.3387 165.521 11.1473 165.595 10.942L166.799 11.306C166.65 11.6607 166.421 11.978 166.113 12.258C165.815 12.5287 165.455 12.7433 165.035 12.902C164.625 13.0607 164.172 13.14 163.677 13.14Z" fill="#061024"/>
<path opacity="0.4" d="M190.872 5.58457C190.561 5.40653 190.162 5.40653 189.807 5.58457L187.321 7.05341L185.634 7.98813L183.193 9.45697C182.883 9.63501 182.483 9.63501 182.128 9.45697L180.219 8.2997C179.909 8.12166 179.687 7.76558 179.687 7.36499V5.13947C179.687 4.78338 179.864 4.4273 180.219 4.20475L182.128 3.09199C182.439 2.91395 182.838 2.91395 183.193 3.09199L185.102 4.24926C185.413 4.4273 185.634 4.78338 185.634 5.18398V6.65282L187.321 5.67359V4.16024C187.321 3.80415 187.144 3.44807 186.789 3.22552L183.238 1.13353C182.927 0.95549 182.527 0.95549 182.172 1.13353L178.533 3.27003C178.178 3.44807 178 3.80415 178 4.16024V8.34421C178 8.7003 178.178 9.05638 178.533 9.27893L182.128 11.3709C182.439 11.549 182.838 11.549 183.193 11.3709L185.634 9.94659L187.321 8.96736L189.762 7.54303C190.073 7.36499 190.473 7.36499 190.828 7.54303L192.736 8.65579C193.047 8.83383 193.269 9.18991 193.269 9.5905V11.816C193.269 12.1721 193.091 12.5282 192.736 12.7507L190.872 13.8635C190.561 14.0415 190.162 14.0415 189.807 13.8635L187.898 12.7507C187.587 12.5727 187.366 12.2166 187.366 11.816V10.3917L185.679 11.3709V12.8398C185.679 13.1958 185.856 13.5519 186.211 13.7745L189.807 15.8665C190.117 16.0445 190.517 16.0445 190.872 15.8665L194.467 13.7745C194.778 13.5964 195 13.2404 195 12.8398V8.61128C195 8.25519 194.822 7.89911 194.467 7.67656L190.872 5.58457Z" fill="#061024"/>
<path opacity="0.4" d="M206.54 5.692L208.472 8.38L208.584 8.604L208.71 8.38L210.628 5.692H212L209.298 9.36L212.014 13H210.642L208.71 10.326L208.584 10.116L208.472 10.326L206.54 13H205.168L207.884 9.36L205.182 5.692H206.54ZM212.78 13C212.78 12.6267 212.808 12.2767 212.864 11.95C212.929 11.6233 213.041 11.3107 213.2 11.012C213.368 10.7133 213.601 10.4287 213.9 10.158C214.198 9.878 214.586 9.60733 215.062 9.346C215.342 9.18733 215.622 9.038 215.902 8.898C216.191 8.758 216.457 8.60867 216.7 8.45C216.952 8.29133 217.152 8.11867 217.302 7.932C217.451 7.736 217.526 7.512 217.526 7.26C217.526 7.04533 217.46 6.84 217.33 6.644C217.208 6.43867 217.022 6.27533 216.77 6.154C216.527 6.02333 216.224 5.958 215.86 5.958C215.58 5.958 215.323 5.99533 215.09 6.07C214.866 6.14467 214.66 6.24267 214.474 6.364C214.296 6.476 214.138 6.59733 213.998 6.728C213.867 6.84933 213.755 6.96133 213.662 7.064L212.892 6.196C212.966 6.112 213.092 6 213.27 5.86C213.447 5.71067 213.671 5.56133 213.942 5.412C214.212 5.26267 214.525 5.13667 214.88 5.034C215.244 4.922 215.64 4.866 216.07 4.866C216.648 4.866 217.143 4.96867 217.554 5.174C217.974 5.37 218.296 5.64067 218.52 5.986C218.744 6.322 218.856 6.7 218.856 7.12C218.856 7.484 218.776 7.80133 218.618 8.072C218.468 8.34267 218.272 8.58067 218.03 8.786C217.796 8.99133 217.549 9.16867 217.288 9.318C217.036 9.458 216.807 9.57933 216.602 9.682C216.182 9.88733 215.822 10.074 215.524 10.242C215.225 10.41 214.978 10.578 214.782 10.746C214.595 10.9047 214.441 11.0727 214.32 11.25C214.208 11.4273 214.124 11.6373 214.068 11.88H219.01V13H212.78ZM231.682 13H230.45V8.912C230.45 8.14667 230.324 7.582 230.072 7.218C229.829 6.854 229.465 6.672 228.98 6.672C228.485 6.672 228.037 6.854 227.636 7.218C227.235 7.57267 226.95 8.03467 226.782 8.604V13H225.55V8.912C225.55 8.13733 225.429 7.57267 225.186 7.218C224.943 6.854 224.579 6.672 224.094 6.672C223.609 6.672 223.161 6.84933 222.75 7.204C222.349 7.54933 222.064 8.01133 221.896 8.59V13H220.664V5.692H221.784V7.26C222.083 6.71867 222.47 6.30333 222.946 6.014C223.422 5.71533 223.959 5.566 224.556 5.566C225.163 5.566 225.648 5.734 226.012 6.07C226.376 6.39667 226.6 6.82133 226.684 7.344C227.011 6.76533 227.407 6.32667 227.874 6.028C228.341 5.72 228.873 5.566 229.47 5.566C229.89 5.566 230.24 5.64533 230.52 5.804C230.809 5.95333 231.038 6.168 231.206 6.448C231.374 6.71867 231.495 7.04067 231.57 7.414C231.645 7.78733 231.682 8.19333 231.682 8.632V13ZM233.024 10.886C233.024 10.4193 233.154 10.018 233.416 9.682C233.686 9.33667 234.055 9.07067 234.522 8.884C234.988 8.69733 235.53 8.604 236.146 8.604C236.472 8.604 236.818 8.632 237.182 8.688C237.546 8.73467 237.868 8.80933 238.148 8.912V8.38C238.148 7.82 237.98 7.38133 237.644 7.064C237.308 6.73733 236.832 6.574 236.216 6.574C235.814 6.574 235.427 6.64867 235.054 6.798C234.69 6.938 234.302 7.14333 233.892 7.414L233.444 6.546C233.92 6.21933 234.396 5.97667 234.872 5.818C235.348 5.65 235.842 5.566 236.356 5.566C237.289 5.566 238.026 5.82733 238.568 6.35C239.109 6.86333 239.38 7.582 239.38 8.506V11.6C239.38 11.7493 239.408 11.8613 239.464 11.936C239.529 12.0013 239.632 12.0387 239.772 12.048V13C239.65 13.0187 239.543 13.0327 239.45 13.042C239.366 13.0513 239.296 13.056 239.24 13.056C238.95 13.056 238.731 12.9767 238.582 12.818C238.442 12.6593 238.362 12.4913 238.344 12.314L238.316 11.852C237.998 12.2627 237.583 12.58 237.07 12.804C236.556 13.028 236.048 13.14 235.544 13.14C235.058 13.14 234.624 13.042 234.242 12.846C233.859 12.6407 233.56 12.37 233.346 12.034C233.131 11.6887 233.024 11.306 233.024 10.886ZM237.784 11.404C237.896 11.2733 237.984 11.1427 238.05 11.012C238.115 10.872 238.148 10.7553 238.148 10.662V9.752C237.858 9.64 237.555 9.556 237.238 9.5C236.92 9.43467 236.608 9.402 236.3 9.402C235.674 9.402 235.166 9.528 234.774 9.78C234.391 10.0227 234.2 10.3587 234.2 10.788C234.2 11.0213 234.26 11.25 234.382 11.474C234.512 11.6887 234.699 11.866 234.942 12.006C235.194 12.146 235.502 12.216 235.866 12.216C236.248 12.216 236.612 12.1413 236.958 11.992C237.303 11.8333 237.578 11.6373 237.784 11.404ZM245.075 12.636C244.972 12.6827 244.832 12.7433 244.655 12.818C244.477 12.8927 244.272 12.958 244.039 13.014C243.805 13.07 243.558 13.098 243.297 13.098C242.998 13.098 242.723 13.0467 242.471 12.944C242.219 12.832 242.018 12.664 241.869 12.44C241.719 12.2067 241.645 11.9173 241.645 11.572V6.658H240.651V5.692H241.645V3.256H242.877V5.692H244.515V6.658H242.877V11.194C242.895 11.4553 242.984 11.6513 243.143 11.782C243.301 11.9033 243.488 11.964 243.703 11.964C243.945 11.964 244.169 11.922 244.375 11.838C244.58 11.754 244.715 11.6933 244.781 11.656L245.075 12.636ZM246.217 13V5.692H247.449V13H246.217ZM246.217 4.32V2.78H247.449V4.32H246.217ZM252.677 13.14C252.127 13.14 251.623 13.042 251.165 12.846C250.717 12.6407 250.325 12.3607 249.989 12.006C249.663 11.6513 249.406 11.2453 249.219 10.788C249.042 10.3307 248.953 9.84533 248.953 9.332C248.953 8.64133 249.107 8.01133 249.415 7.442C249.723 6.87267 250.157 6.42 250.717 6.084C251.277 5.73867 251.926 5.566 252.663 5.566C253.382 5.566 254.007 5.72933 254.539 6.056C255.081 6.37333 255.482 6.80267 255.743 7.344L254.539 7.722C254.353 7.37667 254.091 7.11067 253.755 6.924C253.419 6.728 253.046 6.63 252.635 6.63C252.187 6.63 251.777 6.74667 251.403 6.98C251.039 7.21333 250.75 7.53533 250.535 7.946C250.321 8.34733 250.213 8.80933 250.213 9.332C250.213 9.84533 250.321 10.312 250.535 10.732C250.759 11.1427 251.053 11.4693 251.417 11.712C251.791 11.9547 252.201 12.076 252.649 12.076C252.939 12.076 253.214 12.0247 253.475 11.922C253.746 11.8193 253.979 11.684 254.175 11.516C254.381 11.3387 254.521 11.1473 254.595 10.942L255.799 11.306C255.65 11.6607 255.421 11.978 255.113 12.258C254.815 12.5287 254.455 12.7433 254.035 12.902C253.625 13.0607 253.172 13.14 252.677 13.14Z" fill="#061024"/>
<path opacity="0.4" d="M279.872 5.58457C279.561 5.40653 279.162 5.40653 278.807 5.58457L276.321 7.05341L274.634 7.98813L272.193 9.45697C271.883 9.63501 271.483 9.63501 271.128 9.45697L269.219 8.2997C268.909 8.12166 268.687 7.76558 268.687 7.36499V5.13947C268.687 4.78338 268.864 4.4273 269.219 4.20475L271.128 3.09199C271.439 2.91395 271.838 2.91395 272.193 3.09199L274.102 4.24926C274.413 4.4273 274.634 4.78338 274.634 5.18398V6.65282L276.321 5.67359V4.16024C276.321 3.80415 276.144 3.44807 275.789 3.22552L272.238 1.13353C271.927 0.95549 271.527 0.95549 271.172 1.13353L267.533 3.27003C267.178 3.44807 267 3.80415 267 4.16024V8.34421C267 8.7003 267.178 9.05638 267.533 9.27893L271.128 11.3709C271.439 11.549 271.838 11.549 272.193 11.3709L274.634 9.94659L276.321 8.96736L278.762 7.54303C279.073 7.36499 279.473 7.36499 279.828 7.54303L281.736 8.65579C282.047 8.83383 282.269 9.18991 282.269 9.5905V11.816C282.269 12.1721 282.091 12.5282 281.736 12.7507L279.872 13.8635C279.561 14.0415 279.162 14.0415 278.807 13.8635L276.898 12.7507C276.587 12.5727 276.366 12.2166 276.366 11.816V10.3917L274.679 11.3709V12.8398C274.679 13.1958 274.856 13.5519 275.211 13.7745L278.807 15.8665C279.117 16.0445 279.517 16.0445 279.872 15.8665L283.467 13.7745C283.778 13.5964 284 13.2404 284 12.8398V8.61128C284 8.25519 283.822 7.89911 283.467 7.67656L279.872 5.58457Z" fill="#061024"/>
<path opacity="0.4" d="M295.54 5.692L297.472 8.38L297.584 8.604L297.71 8.38L299.628 5.692H301L298.298 9.36L301.014 13H299.642L297.71 10.326L297.584 10.116L297.472 10.326L295.54 13H294.168L296.884 9.36L294.182 5.692H295.54ZM301.78 13C301.78 12.6267 301.808 12.2767 301.864 11.95C301.929 11.6233 302.041 11.3107 302.2 11.012C302.368 10.7133 302.601 10.4287 302.9 10.158C303.198 9.878 303.586 9.60733 304.062 9.346C304.342 9.18733 304.622 9.038 304.902 8.898C305.191 8.758 305.457 8.60867 305.7 8.45C305.952 8.29133 306.152 8.11867 306.302 7.932C306.451 7.736 306.526 7.512 306.526 7.26C306.526 7.04533 306.46 6.84 306.33 6.644C306.208 6.43867 306.022 6.27533 305.77 6.154C305.527 6.02333 305.224 5.958 304.86 5.958C304.58 5.958 304.323 5.99533 304.09 6.07C303.866 6.14467 303.66 6.24267 303.474 6.364C303.296 6.476 303.138 6.59733 302.998 6.728C302.867 6.84933 302.755 6.96133 302.662 7.064L301.892 6.196C301.966 6.112 302.092 6 302.27 5.86C302.447 5.71067 302.671 5.56133 302.942 5.412C303.212 5.26267 303.525 5.13667 303.88 5.034C304.244 4.922 304.64 4.866 305.07 4.866C305.648 4.866 306.143 4.96867 306.554 5.174C306.974 5.37 307.296 5.64067 307.52 5.986C307.744 6.322 307.856 6.7 307.856 7.12C307.856 7.484 307.776 7.80133 307.618 8.072C307.468 8.34267 307.272 8.58067 307.03 8.786C306.796 8.99133 306.549 9.16867 306.288 9.318C306.036 9.458 305.807 9.57933 305.602 9.682C305.182 9.88733 304.822 10.074 304.524 10.242C304.225 10.41 303.978 10.578 303.782 10.746C303.595 10.9047 303.441 11.0727 303.32 11.25C303.208 11.4273 303.124 11.6373 303.068 11.88H308.01V13H301.78ZM320.682 13H319.45V8.912C319.45 8.14667 319.324 7.582 319.072 7.218C318.829 6.854 318.465 6.672 317.98 6.672C317.485 6.672 317.037 6.854 316.636 7.218C316.235 7.57267 315.95 8.03467 315.782 8.604V13H314.55V8.912C314.55 8.13733 314.429 7.57267 314.186 7.218C313.943 6.854 313.579 6.672 313.094 6.672C312.609 6.672 312.161 6.84933 311.75 7.204C311.349 7.54933 311.064 8.01133 310.896 8.59V13H309.664V5.692H310.784V7.26C311.083 6.71867 311.47 6.30333 311.946 6.014C312.422 5.71533 312.959 5.566 313.556 5.566C314.163 5.566 314.648 5.734 315.012 6.07C315.376 6.39667 315.6 6.82133 315.684 7.344C316.011 6.76533 316.407 6.32667 316.874 6.028C317.341 5.72 317.873 5.566 318.47 5.566C318.89 5.566 319.24 5.64533 319.52 5.804C319.809 5.95333 320.038 6.168 320.206 6.448C320.374 6.71867 320.495 7.04067 320.57 7.414C320.645 7.78733 320.682 8.19333 320.682 8.632V13ZM322.024 10.886C322.024 10.4193 322.154 10.018 322.416 9.682C322.686 9.33667 323.055 9.07067 323.522 8.884C323.988 8.69733 324.53 8.604 325.146 8.604C325.472 8.604 325.818 8.632 326.182 8.688C326.546 8.73467 326.868 8.80933 327.148 8.912V8.38C327.148 7.82 326.98 7.38133 326.644 7.064C326.308 6.73733 325.832 6.574 325.216 6.574C324.814 6.574 324.427 6.64867 324.054 6.798C323.69 6.938 323.302 7.14333 322.892 7.414L322.444 6.546C322.92 6.21933 323.396 5.97667 323.872 5.818C324.348 5.65 324.842 5.566 325.356 5.566C326.289 5.566 327.026 5.82733 327.568 6.35C328.109 6.86333 328.38 7.582 328.38 8.506V11.6C328.38 11.7493 328.408 11.8613 328.464 11.936C328.529 12.0013 328.632 12.0387 328.772 12.048V13C328.65 13.0187 328.543 13.0327 328.45 13.042C328.366 13.0513 328.296 13.056 328.24 13.056C327.95 13.056 327.731 12.9767 327.582 12.818C327.442 12.6593 327.362 12.4913 327.344 12.314L327.316 11.852C326.998 12.2627 326.583 12.58 326.07 12.804C325.556 13.028 325.048 13.14 324.544 13.14C324.058 13.14 323.624 13.042 323.242 12.846C322.859 12.6407 322.56 12.37 322.346 12.034C322.131 11.6887 322.024 11.306 322.024 10.886ZM326.784 11.404C326.896 11.2733 326.984 11.1427 327.05 11.012C327.115 10.872 327.148 10.7553 327.148 10.662V9.752C326.858 9.64 326.555 9.556 326.238 9.5C325.92 9.43467 325.608 9.402 325.3 9.402C324.674 9.402 324.166 9.528 323.774 9.78C323.391 10.0227 323.2 10.3587 323.2 10.788C323.2 11.0213 323.26 11.25 323.382 11.474C323.512 11.6887 323.699 11.866 323.942 12.006C324.194 12.146 324.502 12.216 324.866 12.216C325.248 12.216 325.612 12.1413 325.958 11.992C326.303 11.8333 326.578 11.6373 326.784 11.404ZM334.075 12.636C333.972 12.6827 333.832 12.7433 333.655 12.818C333.477 12.8927 333.272 12.958 333.039 13.014C332.805 13.07 332.558 13.098 332.297 13.098C331.998 13.098 331.723 13.0467 331.471 12.944C331.219 12.832 331.018 12.664 330.869 12.44C330.719 12.2067 330.645 11.9173 330.645 11.572V6.658H329.651V5.692H330.645V3.256H331.877V5.692H333.515V6.658H331.877V11.194C331.895 11.4553 331.984 11.6513 332.143 11.782C332.301 11.9033 332.488 11.964 332.703 11.964C332.945 11.964 333.169 11.922 333.375 11.838C333.58 11.754 333.715 11.6933 333.781 11.656L334.075 12.636ZM335.217 13V5.692H336.449V13H335.217ZM335.217 4.32V2.78H336.449V4.32H335.217ZM341.677 13.14C341.127 13.14 340.623 13.042 340.165 12.846C339.717 12.6407 339.325 12.3607 338.989 12.006C338.663 11.6513 338.406 11.2453 338.219 10.788C338.042 10.3307 337.953 9.84533 337.953 9.332C337.953 8.64133 338.107 8.01133 338.415 7.442C338.723 6.87267 339.157 6.42 339.717 6.084C340.277 5.73867 340.926 5.566 341.663 5.566C342.382 5.566 343.007 5.72933 343.539 6.056C344.081 6.37333 344.482 6.80267 344.743 7.344L343.539 7.722C343.353 7.37667 343.091 7.11067 342.755 6.924C342.419 6.728 342.046 6.63 341.635 6.63C341.187 6.63 340.777 6.74667 340.403 6.98C340.039 7.21333 339.75 7.53533 339.535 7.946C339.321 8.34733 339.213 8.80933 339.213 9.332C339.213 9.84533 339.321 10.312 339.535 10.732C339.759 11.1427 340.053 11.4693 340.417 11.712C340.791 11.9547 341.201 12.076 341.649 12.076C341.939 12.076 342.214 12.0247 342.475 11.922C342.746 11.8193 342.979 11.684 343.175 11.516C343.381 11.3387 343.521 11.1473 343.595 10.942L344.799 11.306C344.65 11.6607 344.421 11.978 344.113 12.258C343.815 12.5287 343.455 12.7433 343.035 12.902C342.625 13.0607 342.172 13.14 341.677 13.14Z" fill="#061024"/>
<path opacity="0.4" d="M368.872 5.58457C368.561 5.40653 368.162 5.40653 367.807 5.58457L365.321 7.05341L363.634 7.98813L361.193 9.45697C360.883 9.63501 360.483 9.63501 360.128 9.45697L358.219 8.2997C357.909 8.12166 357.687 7.76558 357.687 7.36499V5.13947C357.687 4.78338 357.864 4.4273 358.219 4.20475L360.128 3.09199C360.439 2.91395 360.838 2.91395 361.193 3.09199L363.102 4.24926C363.413 4.4273 363.634 4.78338 363.634 5.18398V6.65282L365.321 5.67359V4.16024C365.321 3.80415 365.144 3.44807 364.789 3.22552L361.238 1.13353C360.927 0.95549 360.527 0.95549 360.172 1.13353L356.533 3.27003C356.178 3.44807 356 3.80415 356 4.16024V8.34421C356 8.7003 356.178 9.05638 356.533 9.27893L360.128 11.3709C360.439 11.549 360.838 11.549 361.193 11.3709L363.634 9.94659L365.321 8.96736L367.762 7.54303C368.073 7.36499 368.473 7.36499 368.828 7.54303L370.736 8.65579C371.047 8.83383 371.269 9.18991 371.269 9.5905V11.816C371.269 12.1721 371.091 12.5282 370.736 12.7507L368.872 13.8635C368.561 14.0415 368.162 14.0415 367.807 13.8635L365.898 12.7507C365.587 12.5727 365.366 12.2166 365.366 11.816V10.3917L363.679 11.3709V12.8398C363.679 13.1958 363.856 13.5519 364.211 13.7745L367.807 15.8665C368.117 16.0445 368.517 16.0445 368.872 15.8665L372.467 13.7745C372.778 13.5964 373 13.2404 373 12.8398V8.61128C373 8.25519 372.822 7.89911 372.467 7.67656L368.872 5.58457Z" fill="#061024"/>
<path opacity="0.4" d="M384.54 5.692L386.472 8.38L386.584 8.604L386.71 8.38L388.628 5.692H390L387.298 9.36L390.014 13H388.642L386.71 10.326L386.584 10.116L386.472 10.326L384.54 13H383.168L385.884 9.36L383.182 5.692H384.54ZM390.78 13C390.78 12.6267 390.808 12.2767 390.864 11.95C390.929 11.6233 391.041 11.3107 391.2 11.012C391.368 10.7133 391.601 10.4287 391.9 10.158C392.198 9.878 392.586 9.60733 393.062 9.346C393.342 9.18733 393.622 9.038 393.902 8.898C394.191 8.758 394.457 8.60867 394.7 8.45C394.952 8.29133 395.152 8.11867 395.302 7.932C395.451 7.736 395.526 7.512 395.526 7.26C395.526 7.04533 395.46 6.84 395.33 6.644C395.208 6.43867 395.022 6.27533 394.77 6.154C394.527 6.02333 394.224 5.958 393.86 5.958C393.58 5.958 393.323 5.99533 393.09 6.07C392.866 6.14467 392.66 6.24267 392.474 6.364C392.296 6.476 392.138 6.59733 391.998 6.728C391.867 6.84933 391.755 6.96133 391.662 7.064L390.892 6.196C390.966 6.112 391.092 6 391.27 5.86C391.447 5.71067 391.671 5.56133 391.942 5.412C392.212 5.26267 392.525 5.13667 392.88 5.034C393.244 4.922 393.64 4.866 394.07 4.866C394.648 4.866 395.143 4.96867 395.554 5.174C395.974 5.37 396.296 5.64067 396.52 5.986C396.744 6.322 396.856 6.7 396.856 7.12C396.856 7.484 396.776 7.80133 396.618 8.072C396.468 8.34267 396.272 8.58067 396.03 8.786C395.796 8.99133 395.549 9.16867 395.288 9.318C395.036 9.458 394.807 9.57933 394.602 9.682C394.182 9.88733 393.822 10.074 393.524 10.242C393.225 10.41 392.978 10.578 392.782 10.746C392.595 10.9047 392.441 11.0727 392.32 11.25C392.208 11.4273 392.124 11.6373 392.068 11.88H397.01V13H390.78ZM409.682 13H408.45V8.912C408.45 8.14667 408.324 7.582 408.072 7.218C407.829 6.854 407.465 6.672 406.98 6.672C406.485 6.672 406.037 6.854 405.636 7.218C405.235 7.57267 404.95 8.03467 404.782 8.604V13H403.55V8.912C403.55 8.13733 403.429 7.57267 403.186 7.218C402.943 6.854 402.579 6.672 402.094 6.672C401.609 6.672 401.161 6.84933 400.75 7.204C400.349 7.54933 400.064 8.01133 399.896 8.59V13H398.664V5.692H399.784V7.26C400.083 6.71867 400.47 6.30333 400.946 6.014C401.422 5.71533 401.959 5.566 402.556 5.566C403.163 5.566 403.648 5.734 404.012 6.07C404.376 6.39667 404.6 6.82133 404.684 7.344C405.011 6.76533 405.407 6.32667 405.874 6.028C406.341 5.72 406.873 5.566 407.47 5.566C407.89 5.566 408.24 5.64533 408.52 5.804C408.809 5.95333 409.038 6.168 409.206 6.448C409.374 6.71867 409.495 7.04067 409.57 7.414C409.645 7.78733 409.682 8.19333 409.682 8.632V13ZM411.024 10.886C411.024 10.4193 411.154 10.018 411.416 9.682C411.686 9.33667 412.055 9.07067 412.522 8.884C412.988 8.69733 413.53 8.604 414.146 8.604C414.472 8.604 414.818 8.632 415.182 8.688C415.546 8.73467 415.868 8.80933 416.148 8.912V8.38C416.148 7.82 415.98 7.38133 415.644 7.064C415.308 6.73733 414.832 6.574 414.216 6.574C413.814 6.574 413.427 6.64867 413.054 6.798C412.69 6.938 412.302 7.14333 411.892 7.414L411.444 6.546C411.92 6.21933 412.396 5.97667 412.872 5.818C413.348 5.65 413.842 5.566 414.356 5.566C415.289 5.566 416.026 5.82733 416.568 6.35C417.109 6.86333 417.38 7.582 417.38 8.506V11.6C417.38 11.7493 417.408 11.8613 417.464 11.936C417.529 12.0013 417.632 12.0387 417.772 12.048V13C417.65 13.0187 417.543 13.0327 417.45 13.042C417.366 13.0513 417.296 13.056 417.24 13.056C416.95 13.056 416.731 12.9767 416.582 12.818C416.442 12.6593 416.362 12.4913 416.344 12.314L416.316 11.852C415.998 12.2627 415.583 12.58 415.07 12.804C414.556 13.028 414.048 13.14 413.544 13.14C413.058 13.14 412.624 13.042 412.242 12.846C411.859 12.6407 411.56 12.37 411.346 12.034C411.131 11.6887 411.024 11.306 411.024 10.886ZM415.784 11.404C415.896 11.2733 415.984 11.1427 416.05 11.012C416.115 10.872 416.148 10.7553 416.148 10.662V9.752C415.858 9.64 415.555 9.556 415.238 9.5C414.92 9.43467 414.608 9.402 414.3 9.402C413.674 9.402 413.166 9.528 412.774 9.78C412.391 10.0227 412.2 10.3587 412.2 10.788C412.2 11.0213 412.26 11.25 412.382 11.474C412.512 11.6887 412.699 11.866 412.942 12.006C413.194 12.146 413.502 12.216 413.866 12.216C414.248 12.216 414.612 12.1413 414.958 11.992C415.303 11.8333 415.578 11.6373 415.784 11.404ZM423.075 12.636C422.972 12.6827 422.832 12.7433 422.655 12.818C422.477 12.8927 422.272 12.958 422.039 13.014C421.805 13.07 421.558 13.098 421.297 13.098C420.998 13.098 420.723 13.0467 420.471 12.944C420.219 12.832 420.018 12.664 419.869 12.44C419.719 12.2067 419.645 11.9173 419.645 11.572V6.658H418.651V5.692H419.645V3.256H420.877V5.692H422.515V6.658H420.877V11.194C420.895 11.4553 420.984 11.6513 421.143 11.782C421.301 11.9033 421.488 11.964 421.703 11.964C421.945 11.964 422.169 11.922 422.375 11.838C422.58 11.754 422.715 11.6933 422.781 11.656L423.075 12.636ZM424.217 13V5.692H425.449V13H424.217ZM424.217 4.32V2.78H425.449V4.32H424.217ZM430.677 13.14C430.127 13.14 429.623 13.042 429.165 12.846C428.717 12.6407 428.325 12.3607 427.989 12.006C427.663 11.6513 427.406 11.2453 427.219 10.788C427.042 10.3307 426.953 9.84533 426.953 9.332C426.953 8.64133 427.107 8.01133 427.415 7.442C427.723 6.87267 428.157 6.42 428.717 6.084C429.277 5.73867 429.926 5.566 430.663 5.566C431.382 5.566 432.007 5.72933 432.539 6.056C433.081 6.37333 433.482 6.80267 433.743 7.344L432.539 7.722C432.353 7.37667 432.091 7.11067 431.755 6.924C431.419 6.728 431.046 6.63 430.635 6.63C430.187 6.63 429.777 6.74667 429.403 6.98C429.039 7.21333 428.75 7.53533 428.535 7.946C428.321 8.34733 428.213 8.80933 428.213 9.332C428.213 9.84533 428.321 10.312 428.535 10.732C428.759 11.1427 429.053 11.4693 429.417 11.712C429.791 11.9547 430.201 12.076 430.649 12.076C430.939 12.076 431.214 12.0247 431.475 11.922C431.746 11.8193 431.979 11.684 432.175 11.516C432.381 11.3387 432.521 11.1473 432.595 10.942L433.799 11.306C433.65 11.6607 433.421 11.978 433.113 12.258C432.815 12.5287 432.455 12.7433 432.035 12.902C431.625 13.0607 431.172 13.14 430.677 13.14Z" fill="#061024"/>
<path opacity="0.4" d="M457.872 5.58457C457.561 5.40653 457.162 5.40653 456.807 5.58457L454.321 7.05341L452.634 7.98813L450.193 9.45697C449.883 9.63501 449.483 9.63501 449.128 9.45697L447.219 8.2997C446.909 8.12166 446.687 7.76558 446.687 7.36499V5.13947C446.687 4.78338 446.864 4.4273 447.219 4.20475L449.128 3.09199C449.439 2.91395 449.838 2.91395 450.193 3.09199L452.102 4.24926C452.413 4.4273 452.634 4.78338 452.634 5.18398V6.65282L454.321 5.67359V4.16024C454.321 3.80415 454.144 3.44807 453.789 3.22552L450.238 1.13353C449.927 0.95549 449.527 0.95549 449.172 1.13353L445.533 3.27003C445.178 3.44807 445 3.80415 445 4.16024V8.34421C445 8.7003 445.178 9.05638 445.533 9.27893L449.128 11.3709C449.439 11.549 449.838 11.549 450.193 11.3709L452.634 9.94659L454.321 8.96736L456.762 7.54303C457.073 7.36499 457.473 7.36499 457.828 7.54303L459.736 8.65579C460.047 8.83383 460.269 9.18991 460.269 9.5905V11.816C460.269 12.1721 460.091 12.5282 459.736 12.7507L457.872 13.8635C457.561 14.0415 457.162 14.0415 456.807 13.8635L454.898 12.7507C454.587 12.5727 454.366 12.2166 454.366 11.816V10.3917L452.679 11.3709V12.8398C452.679 13.1958 452.856 13.5519 453.211 13.7745L456.807 15.8665C457.117 16.0445 457.517 16.0445 457.872 15.8665L461.467 13.7745C461.778 13.5964 462 13.2404 462 12.8398V8.61128C462 8.25519 461.822 7.89911 461.467 7.67656L457.872 5.58457Z" fill="#061024"/>
<path opacity="0.4" d="M473.54 5.692L475.472 8.38L475.584 8.604L475.71 8.38L477.628 5.692H479L476.298 9.36L479.014 13H477.642L475.71 10.326L475.584 10.116L475.472 10.326L473.54 13H472.168L474.884 9.36L472.182 5.692H473.54ZM479.78 13C479.78 12.6267 479.808 12.2767 479.864 11.95C479.929 11.6233 480.041 11.3107 480.2 11.012C480.368 10.7133 480.601 10.4287 480.9 10.158C481.198 9.878 481.586 9.60733 482.062 9.346C482.342 9.18733 482.622 9.038 482.902 8.898C483.191 8.758 483.457 8.60867 483.7 8.45C483.952 8.29133 484.152 8.11867 484.302 7.932C484.451 7.736 484.526 7.512 484.526 7.26C484.526 7.04533 484.46 6.84 484.33 6.644C484.208 6.43867 484.022 6.27533 483.77 6.154C483.527 6.02333 483.224 5.958 482.86 5.958C482.58 5.958 482.323 5.99533 482.09 6.07C481.866 6.14467 481.66 6.24267 481.474 6.364C481.296 6.476 481.138 6.59733 480.998 6.728C480.867 6.84933 480.755 6.96133 480.662 7.064L479.892 6.196C479.966 6.112 480.092 6 480.27 5.86C480.447 5.71067 480.671 5.56133 480.942 5.412C481.212 5.26267 481.525 5.13667 481.88 5.034C482.244 4.922 482.64 4.866 483.07 4.866C483.648 4.866 484.143 4.96867 484.554 5.174C484.974 5.37 485.296 5.64067 485.52 5.986C485.744 6.322 485.856 6.7 485.856 7.12C485.856 7.484 485.776 7.80133 485.618 8.072C485.468 8.34267 485.272 8.58067 485.03 8.786C484.796 8.99133 484.549 9.16867 484.288 9.318C484.036 9.458 483.807 9.57933 483.602 9.682C483.182 9.88733 482.822 10.074 482.524 10.242C482.225 10.41 481.978 10.578 481.782 10.746C481.595 10.9047 481.441 11.0727 481.32 11.25C481.208 11.4273 481.124 11.6373 481.068 11.88H486.01V13H479.78ZM498.682 13H497.45V8.912C497.45 8.14667 497.324 7.582 497.072 7.218C496.829 6.854 496.465 6.672 495.98 6.672C495.485 6.672 495.037 6.854 494.636 7.218C494.235 7.57267 493.95 8.03467 493.782 8.604V13H492.55V8.912C492.55 8.13733 492.429 7.57267 492.186 7.218C491.943 6.854 491.579 6.672 491.094 6.672C490.609 6.672 490.161 6.84933 489.75 7.204C489.349 7.54933 489.064 8.01133 488.896 8.59V13H487.664V5.692H488.784V7.26C489.083 6.71867 489.47 6.30333 489.946 6.014C490.422 5.71533 490.959 5.566 491.556 5.566C492.163 5.566 492.648 5.734 493.012 6.07C493.376 6.39667 493.6 6.82133 493.684 7.344C494.011 6.76533 494.407 6.32667 494.874 6.028C495.341 5.72 495.873 5.566 496.47 5.566C496.89 5.566 497.24 5.64533 497.52 5.804C497.809 5.95333 498.038 6.168 498.206 6.448C498.374 6.71867 498.495 7.04067 498.57 7.414C498.645 7.78733 498.682 8.19333 498.682 8.632V13ZM500.024 10.886C500.024 10.4193 500.154 10.018 500.416 9.682C500.686 9.33667 501.055 9.07067 501.522 8.884C501.988 8.69733 502.53 8.604 503.146 8.604C503.472 8.604 503.818 8.632 504.182 8.688C504.546 8.73467 504.868 8.80933 505.148 8.912V8.38C505.148 7.82 504.98 7.38133 504.644 7.064C504.308 6.73733 503.832 6.574 503.216 6.574C502.814 6.574 502.427 6.64867 502.054 6.798C501.69 6.938 501.302 7.14333 500.892 7.414L500.444 6.546C500.92 6.21933 501.396 5.97667 501.872 5.818C502.348 5.65 502.842 5.566 503.356 5.566C504.289 5.566 505.026 5.82733 505.568 6.35C506.109 6.86333 506.38 7.582 506.38 8.506V11.6C506.38 11.7493 506.408 11.8613 506.464 11.936C506.529 12.0013 506.632 12.0387 506.772 12.048V13C506.65 13.0187 506.543 13.0327 506.45 13.042C506.366 13.0513 506.296 13.056 506.24 13.056C505.95 13.056 505.731 12.9767 505.582 12.818C505.442 12.6593 505.362 12.4913 505.344 12.314L505.316 11.852C504.998 12.2627 504.583 12.58 504.07 12.804C503.556 13.028 503.048 13.14 502.544 13.14C502.058 13.14 501.624 13.042 501.242 12.846C500.859 12.6407 500.56 12.37 500.346 12.034C500.131 11.6887 500.024 11.306 500.024 10.886ZM504.784 11.404C504.896 11.2733 504.984 11.1427 505.05 11.012C505.115 10.872 505.148 10.7553 505.148 10.662V9.752C504.858 9.64 504.555 9.556 504.238 9.5C503.92 9.43467 503.608 9.402 503.3 9.402C502.674 9.402 502.166 9.528 501.774 9.78C501.391 10.0227 501.2 10.3587 501.2 10.788C501.2 11.0213 501.26 11.25 501.382 11.474C501.512 11.6887 501.699 11.866 501.942 12.006C502.194 12.146 502.502 12.216 502.866 12.216C503.248 12.216 503.612 12.1413 503.958 11.992C504.303 11.8333 504.578 11.6373 504.784 11.404ZM512.075 12.636C511.972 12.6827 511.832 12.7433 511.655 12.818C511.477 12.8927 511.272 12.958 511.039 13.014C510.805 13.07 510.558 13.098 510.297 13.098C509.998 13.098 509.723 13.0467 509.471 12.944C509.219 12.832 509.018 12.664 508.869 12.44C508.719 12.2067 508.645 11.9173 508.645 11.572V6.658H507.651V5.692H508.645V3.256H509.877V5.692H511.515V6.658H509.877V11.194C509.895 11.4553 509.984 11.6513 510.143 11.782C510.301 11.9033 510.488 11.964 510.703 11.964C510.945 11.964 511.169 11.922 511.375 11.838C511.58 11.754 511.715 11.6933 511.781 11.656L512.075 12.636ZM513.217 13V5.692H514.449V13H513.217ZM513.217 4.32V2.78H514.449V4.32H513.217ZM519.677 13.14C519.127 13.14 518.623 13.042 518.165 12.846C517.717 12.6407 517.325 12.3607 516.989 12.006C516.663 11.6513 516.406 11.2453 516.219 10.788C516.042 10.3307 515.953 9.84533 515.953 9.332C515.953 8.64133 516.107 8.01133 516.415 7.442C516.723 6.87267 517.157 6.42 517.717 6.084C518.277 5.73867 518.926 5.566 519.663 5.566C520.382 5.566 521.007 5.72933 521.539 6.056C522.081 6.37333 522.482 6.80267 522.743 7.344L521.539 7.722C521.353 7.37667 521.091 7.11067 520.755 6.924C520.419 6.728 520.046 6.63 519.635 6.63C519.187 6.63 518.777 6.74667 518.403 6.98C518.039 7.21333 517.75 7.53533 517.535 7.946C517.321 8.34733 517.213 8.80933 517.213 9.332C517.213 9.84533 517.321 10.312 517.535 10.732C517.759 11.1427 518.053 11.4693 518.417 11.712C518.791 11.9547 519.201 12.076 519.649 12.076C519.939 12.076 520.214 12.0247 520.475 11.922C520.746 11.8193 520.979 11.684 521.175 11.516C521.381 11.3387 521.521 11.1473 521.595 10.942L522.799 11.306C522.65 11.6607 522.421 11.978 522.113 12.258C521.815 12.5287 521.455 12.7433 521.035 12.902C520.625 13.0607 520.172 13.14 519.677 13.14Z" fill="#061024"/>
<path opacity="0.4" d="M546.872 5.58457C546.561 5.40653 546.162 5.40653 545.807 5.58457L543.321 7.05341L541.634 7.98813L539.193 9.45697C538.883 9.63501 538.483 9.63501 538.128 9.45697L536.219 8.2997C535.909 8.12166 535.687 7.76558 535.687 7.36499V5.13947C535.687 4.78338 535.864 4.4273 536.219 4.20475L538.128 3.09199C538.439 2.91395 538.838 2.91395 539.193 3.09199L541.102 4.24926C541.413 4.4273 541.634 4.78338 541.634 5.18398V6.65282L543.321 5.67359V4.16024C543.321 3.80415 543.144 3.44807 542.789 3.22552L539.238 1.13353C538.927 0.95549 538.527 0.95549 538.172 1.13353L534.533 3.27003C534.178 3.44807 534 3.80415 534 4.16024V8.34421C534 8.7003 534.178 9.05638 534.533 9.27893L538.128 11.3709C538.439 11.549 538.838 11.549 539.193 11.3709L541.634 9.94659L543.321 8.96736L545.762 7.54303C546.073 7.36499 546.473 7.36499 546.828 7.54303L548.736 8.65579C549.047 8.83383 549.269 9.18991 549.269 9.5905V11.816C549.269 12.1721 549.091 12.5282 548.736 12.7507L546.872 13.8635C546.561 14.0415 546.162 14.0415 545.807 13.8635L543.898 12.7507C543.587 12.5727 543.366 12.2166 543.366 11.816V10.3917L541.679 11.3709V12.8398C541.679 13.1958 541.856 13.5519 542.211 13.7745L545.807 15.8665C546.117 16.0445 546.517 16.0445 546.872 15.8665L550.467 13.7745C550.778 13.5964 551 13.2404 551 12.8398V8.61128C551 8.25519 550.822 7.89911 550.467 7.67656L546.872 5.58457Z" fill="#061024"/>
<path opacity="0.4" d="M562.54 5.692L564.472 8.38L564.584 8.604L564.71 8.38L566.628 5.692H568L565.298 9.36L568.014 13H566.642L564.71 10.326L564.584 10.116L564.472 10.326L562.54 13H561.168L563.884 9.36L561.182 5.692H562.54ZM568.78 13C568.78 12.6267 568.808 12.2767 568.864 11.95C568.929 11.6233 569.041 11.3107 569.2 11.012C569.368 10.7133 569.601 10.4287 569.9 10.158C570.198 9.878 570.586 9.60733 571.062 9.346C571.342 9.18733 571.622 9.038 571.902 8.898C572.191 8.758 572.457 8.60867 572.7 8.45C572.952 8.29133 573.152 8.11867 573.302 7.932C573.451 7.736 573.526 7.512 573.526 7.26C573.526 7.04533 573.46 6.84 573.33 6.644C573.208 6.43867 573.022 6.27533 572.77 6.154C572.527 6.02333 572.224 5.958 571.86 5.958C571.58 5.958 571.323 5.99533 571.09 6.07C570.866 6.14467 570.66 6.24267 570.474 6.364C570.296 6.476 570.138 6.59733 569.998 6.728C569.867 6.84933 569.755 6.96133 569.662 7.064L568.892 6.196C568.966 6.112 569.092 6 569.27 5.86C569.447 5.71067 569.671 5.56133 569.942 5.412C570.212 5.26267 570.525 5.13667 570.88 5.034C571.244 4.922 571.64 4.866 572.07 4.866C572.648 4.866 573.143 4.96867 573.554 5.174C573.974 5.37 574.296 5.64067 574.52 5.986C574.744 6.322 574.856 6.7 574.856 7.12C574.856 7.484 574.776 7.80133 574.618 8.072C574.468 8.34267 574.272 8.58067 574.03 8.786C573.796 8.99133 573.549 9.16867 573.288 9.318C573.036 9.458 572.807 9.57933 572.602 9.682C572.182 9.88733 571.822 10.074 571.524 10.242C571.225 10.41 570.978 10.578 570.782 10.746C570.595 10.9047 570.441 11.0727 570.32 11.25C570.208 11.4273 570.124 11.6373 570.068 11.88H575.01V13H568.78ZM587.682 13H586.45V8.912C586.45 8.14667 586.324 7.582 586.072 7.218C585.829 6.854 585.465 6.672 584.98 6.672C584.485 6.672 584.037 6.854 583.636 7.218C583.235 7.57267 582.95 8.03467 582.782 8.604V13H581.55V8.912C581.55 8.13733 581.429 7.57267 581.186 7.218C580.943 6.854 580.579 6.672 580.094 6.672C579.609 6.672 579.161 6.84933 578.75 7.204C578.349 7.54933 578.064 8.01133 577.896 8.59V13H576.664V5.692H577.784V7.26C578.083 6.71867 578.47 6.30333 578.946 6.014C579.422 5.71533 579.959 5.566 580.556 5.566C581.163 5.566 581.648 5.734 582.012 6.07C582.376 6.39667 582.6 6.82133 582.684 7.344C583.011 6.76533 583.407 6.32667 583.874 6.028C584.341 5.72 584.873 5.566 585.47 5.566C585.89 5.566 586.24 5.64533 586.52 5.804C586.809 5.95333 587.038 6.168 587.206 6.448C587.374 6.71867 587.495 7.04067 587.57 7.414C587.645 7.78733 587.682 8.19333 587.682 8.632V13ZM589.024 10.886C589.024 10.4193 589.154 10.018 589.416 9.682C589.686 9.33667 590.055 9.07067 590.522 8.884C590.988 8.69733 591.53 8.604 592.146 8.604C592.472 8.604 592.818 8.632 593.182 8.688C593.546 8.73467 593.868 8.80933 594.148 8.912V8.38C594.148 7.82 593.98 7.38133 593.644 7.064C593.308 6.73733 592.832 6.574 592.216 6.574C591.814 6.574 591.427 6.64867 591.054 6.798C590.69 6.938 590.302 7.14333 589.892 7.414L589.444 6.546C589.92 6.21933 590.396 5.97667 590.872 5.818C591.348 5.65 591.842 5.566 592.356 5.566C593.289 5.566 594.026 5.82733 594.568 6.35C595.109 6.86333 595.38 7.582 595.38 8.506V11.6C595.38 11.7493 595.408 11.8613 595.464 11.936C595.529 12.0013 595.632 12.0387 595.772 12.048V13C595.65 13.0187 595.543 13.0327 595.45 13.042C595.366 13.0513 595.296 13.056 595.24 13.056C594.95 13.056 594.731 12.9767 594.582 12.818C594.442 12.6593 594.362 12.4913 594.344 12.314L594.316 11.852C593.998 12.2627 593.583 12.58 593.07 12.804C592.556 13.028 592.048 13.14 591.544 13.14C591.058 13.14 590.624 13.042 590.242 12.846C589.859 12.6407 589.56 12.37 589.346 12.034C589.131 11.6887 589.024 11.306 589.024 10.886ZM593.784 11.404C593.896 11.2733 593.984 11.1427 594.05 11.012C594.115 10.872 594.148 10.7553 594.148 10.662V9.752C593.858 9.64 593.555 9.556 593.238 9.5C592.92 9.43467 592.608 9.402 592.3 9.402C591.674 9.402 591.166 9.528 590.774 9.78C590.391 10.0227 590.2 10.3587 590.2 10.788C590.2 11.0213 590.26 11.25 590.382 11.474C590.512 11.6887 590.699 11.866 590.942 12.006C591.194 12.146 591.502 12.216 591.866 12.216C592.248 12.216 592.612 12.1413 592.958 11.992C593.303 11.8333 593.578 11.6373 593.784 11.404ZM601.075 12.636C600.972 12.6827 600.832 12.7433 600.655 12.818C600.477 12.8927 600.272 12.958 600.039 13.014C599.805 13.07 599.558 13.098 599.297 13.098C598.998 13.098 598.723 13.0467 598.471 12.944C598.219 12.832 598.018 12.664 597.869 12.44C597.719 12.2067 597.645 11.9173 597.645 11.572V6.658H596.651V5.692H597.645V3.256H598.877V5.692H600.515V6.658H598.877V11.194C598.895 11.4553 598.984 11.6513 599.143 11.782C599.301 11.9033 599.488 11.964 599.703 11.964C599.945 11.964 600.169 11.922 600.375 11.838C600.58 11.754 600.715 11.6933 600.781 11.656L601.075 12.636ZM602.217 13V5.692H603.449V13H602.217ZM602.217 4.32V2.78H603.449V4.32H602.217ZM608.677 13.14C608.127 13.14 607.623 13.042 607.165 12.846C606.717 12.6407 606.325 12.3607 605.989 12.006C605.663 11.6513 605.406 11.2453 605.219 10.788C605.042 10.3307 604.953 9.84533 604.953 9.332C604.953 8.64133 605.107 8.01133 605.415 7.442C605.723 6.87267 606.157 6.42 606.717 6.084C607.277 5.73867 607.926 5.566 608.663 5.566C609.382 5.566 610.007 5.72933 610.539 6.056C611.081 6.37333 611.482 6.80267 611.743 7.344L610.539 7.722C610.353 7.37667 610.091 7.11067 609.755 6.924C609.419 6.728 609.046 6.63 608.635 6.63C608.187 6.63 607.777 6.74667 607.403 6.98C607.039 7.21333 606.75 7.53533 606.535 7.946C606.321 8.34733 606.213 8.80933 606.213 9.332C606.213 9.84533 606.321 10.312 606.535 10.732C606.759 11.1427 607.053 11.4693 607.417 11.712C607.791 11.9547 608.201 12.076 608.649 12.076C608.939 12.076 609.214 12.0247 609.475 11.922C609.746 11.8193 609.979 11.684 610.175 11.516C610.381 11.3387 610.521 11.1473 610.595 10.942L611.799 11.306C611.65 11.6607 611.421 11.978 611.113 12.258C610.815 12.5287 610.455 12.7433 610.035 12.902C609.625 13.0607 609.172 13.14 608.677 13.14Z" fill="#061024"/>
<path opacity="0.4" d="M635.872 5.58457C635.561 5.40653 635.162 5.40653 634.807 5.58457L632.321 7.05341L630.634 7.98813L628.193 9.45697C627.883 9.63501 627.483 9.63501 627.128 9.45697L625.219 8.2997C624.909 8.12166 624.687 7.76558 624.687 7.36499V5.13947C624.687 4.78338 624.864 4.4273 625.219 4.20475L627.128 3.09199C627.439 2.91395 627.838 2.91395 628.193 3.09199L630.102 4.24926C630.413 4.4273 630.634 4.78338 630.634 5.18398V6.65282L632.321 5.67359V4.16024C632.321 3.80415 632.144 3.44807 631.789 3.22552L628.238 1.13353C627.927 0.95549 627.527 0.95549 627.172 1.13353L623.533 3.27003C623.178 3.44807 623 3.80415 623 4.16024V8.34421C623 8.7003 623.178 9.05638 623.533 9.27893L627.128 11.3709C627.439 11.549 627.838 11.549 628.193 11.3709L630.634 9.94659L632.321 8.96736L634.762 7.54303C635.073 7.36499 635.473 7.36499 635.828 7.54303L637.736 8.65579C638.047 8.83383 638.269 9.18991 638.269 9.5905V11.816C638.269 12.1721 638.091 12.5282 637.736 12.7507L635.872 13.8635C635.561 14.0415 635.162 14.0415 634.807 13.8635L632.898 12.7507C632.587 12.5727 632.366 12.2166 632.366 11.816V10.3917L630.679 11.3709V12.8398C630.679 13.1958 630.856 13.5519 631.211 13.7745L634.807 15.8665C635.117 16.0445 635.517 16.0445 635.872 15.8665L639.467 13.7745C639.778 13.5964 640 13.2404 640 12.8398V8.61128C640 8.25519 639.822 7.89911 639.467 7.67656L635.872 5.58457Z" fill="#061024"/>
<path opacity="0.4" d="M651.54 5.692L653.472 8.38L653.584 8.604L653.71 8.38L655.628 5.692H657L654.298 9.36L657.014 13H655.642L653.71 10.326L653.584 10.116L653.472 10.326L651.54 13H650.168L652.884 9.36L650.182 5.692H651.54ZM657.78 13C657.78 12.6267 657.808 12.2767 657.864 11.95C657.929 11.6233 658.041 11.3107 658.2 11.012C658.368 10.7133 658.601 10.4287 658.9 10.158C659.198 9.878 659.586 9.60733 660.062 9.346C660.342 9.18733 660.622 9.038 660.902 8.898C661.191 8.758 661.457 8.60867 661.7 8.45C661.952 8.29133 662.152 8.11867 662.302 7.932C662.451 7.736 662.526 7.512 662.526 7.26C662.526 7.04533 662.46 6.84 662.33 6.644C662.208 6.43867 662.022 6.27533 661.77 6.154C661.527 6.02333 661.224 5.958 660.86 5.958C660.58 5.958 660.323 5.99533 660.09 6.07C659.866 6.14467 659.66 6.24267 659.474 6.364C659.296 6.476 659.138 6.59733 658.998 6.728C658.867 6.84933 658.755 6.96133 658.662 7.064L657.892 6.196C657.966 6.112 658.092 6 658.27 5.86C658.447 5.71067 658.671 5.56133 658.942 5.412C659.212 5.26267 659.525 5.13667 659.88 5.034C660.244 4.922 660.64 4.866 661.07 4.866C661.648 4.866 662.143 4.96867 662.554 5.174C662.974 5.37 663.296 5.64067 663.52 5.986C663.744 6.322 663.856 6.7 663.856 7.12C663.856 7.484 663.776 7.80133 663.618 8.072C663.468 8.34267 663.272 8.58067 663.03 8.786C662.796 8.99133 662.549 9.16867 662.288 9.318C662.036 9.458 661.807 9.57933 661.602 9.682C661.182 9.88733 660.822 10.074 660.524 10.242C660.225 10.41 659.978 10.578 659.782 10.746C659.595 10.9047 659.441 11.0727 659.32 11.25C659.208 11.4273 659.124 11.6373 659.068 11.88H664.01V13H657.78ZM676.682 13H675.45V8.912C675.45 8.14667 675.324 7.582 675.072 7.218C674.829 6.854 674.465 6.672 673.98 6.672C673.485 6.672 673.037 6.854 672.636 7.218C672.235 7.57267 671.95 8.03467 671.782 8.604V13H670.55V8.912C670.55 8.13733 670.429 7.57267 670.186 7.218C669.943 6.854 669.579 6.672 669.094 6.672C668.609 6.672 668.161 6.84933 667.75 7.204C667.349 7.54933 667.064 8.01133 666.896 8.59V13H665.664V5.692H666.784V7.26C667.083 6.71867 667.47 6.30333 667.946 6.014C668.422 5.71533 668.959 5.566 669.556 5.566C670.163 5.566 670.648 5.734 671.012 6.07C671.376 6.39667 671.6 6.82133 671.684 7.344C672.011 6.76533 672.407 6.32667 672.874 6.028C673.341 5.72 673.873 5.566 674.47 5.566C674.89 5.566 675.24 5.64533 675.52 5.804C675.809 5.95333 676.038 6.168 676.206 6.448C676.374 6.71867 676.495 7.04067 676.57 7.414C676.645 7.78733 676.682 8.19333 676.682 8.632V13ZM678.024 10.886C678.024 10.4193 678.154 10.018 678.416 9.682C678.686 9.33667 679.055 9.07067 679.522 8.884C679.988 8.69733 680.53 8.604 681.146 8.604C681.472 8.604 681.818 8.632 682.182 8.688C682.546 8.73467 682.868 8.80933 683.148 8.912V8.38C683.148 7.82 682.98 7.38133 682.644 7.064C682.308 6.73733 681.832 6.574 681.216 6.574C680.814 6.574 680.427 6.64867 680.054 6.798C679.69 6.938 679.302 7.14333 678.892 7.414L678.444 6.546C678.92 6.21933 679.396 5.97667 679.872 5.818C680.348 5.65 680.842 5.566 681.356 5.566C682.289 5.566 683.026 5.82733 683.568 6.35C684.109 6.86333 684.38 7.582 684.38 8.506V11.6C684.38 11.7493 684.408 11.8613 684.464 11.936C684.529 12.0013 684.632 12.0387 684.772 12.048V13C684.65 13.0187 684.543 13.0327 684.45 13.042C684.366 13.0513 684.296 13.056 684.24 13.056C683.95 13.056 683.731 12.9767 683.582 12.818C683.442 12.6593 683.362 12.4913 683.344 12.314L683.316 11.852C682.998 12.2627 682.583 12.58 682.07 12.804C681.556 13.028 681.048 13.14 680.544 13.14C680.058 13.14 679.624 13.042 679.242 12.846C678.859 12.6407 678.56 12.37 678.346 12.034C678.131 11.6887 678.024 11.306 678.024 10.886ZM682.784 11.404C682.896 11.2733 682.984 11.1427 683.05 11.012C683.115 10.872 683.148 10.7553 683.148 10.662V9.752C682.858 9.64 682.555 9.556 682.238 9.5C681.92 9.43467 681.608 9.402 681.3 9.402C680.674 9.402 680.166 9.528 679.774 9.78C679.391 10.0227 679.2 10.3587 679.2 10.788C679.2 11.0213 679.26 11.25 679.382 11.474C679.512 11.6887 679.699 11.866 679.942 12.006C680.194 12.146 680.502 12.216 680.866 12.216C681.248 12.216 681.612 12.1413 681.958 11.992C682.303 11.8333 682.578 11.6373 682.784 11.404ZM690.075 12.636C689.972 12.6827 689.832 12.7433 689.655 12.818C689.477 12.8927 689.272 12.958 689.039 13.014C688.805 13.07 688.558 13.098 688.297 13.098C687.998 13.098 687.723 13.0467 687.471 12.944C687.219 12.832 687.018 12.664 686.869 12.44C686.719 12.2067 686.645 11.9173 686.645 11.572V6.658H685.651V5.692H686.645V3.256H687.877V5.692H689.515V6.658H687.877V11.194C687.895 11.4553 687.984 11.6513 688.143 11.782C688.301 11.9033 688.488 11.964 688.703 11.964C688.945 11.964 689.169 11.922 689.375 11.838C689.58 11.754 689.715 11.6933 689.781 11.656L690.075 12.636ZM691.217 13V5.692H692.449V13H691.217ZM691.217 4.32V2.78H692.449V4.32H691.217ZM697.677 13.14C697.127 13.14 696.623 13.042 696.165 12.846C695.717 12.6407 695.325 12.3607 694.989 12.006C694.663 11.6513 694.406 11.2453 694.219 10.788C694.042 10.3307 693.953 9.84533 693.953 9.332C693.953 8.64133 694.107 8.01133 694.415 7.442C694.723 6.87267 695.157 6.42 695.717 6.084C696.277 5.73867 696.926 5.566 697.663 5.566C698.382 5.566 699.007 5.72933 699.539 6.056C700.081 6.37333 700.482 6.80267 700.743 7.344L699.539 7.722C699.353 7.37667 699.091 7.11067 698.755 6.924C698.419 6.728 698.046 6.63 697.635 6.63C697.187 6.63 696.777 6.74667 696.403 6.98C696.039 7.21333 695.75 7.53533 695.535 7.946C695.321 8.34733 695.213 8.80933 695.213 9.332C695.213 9.84533 695.321 10.312 695.535 10.732C695.759 11.1427 696.053 11.4693 696.417 11.712C696.791 11.9547 697.201 12.076 697.649 12.076C697.939 12.076 698.214 12.0247 698.475 11.922C698.746 11.8193 698.979 11.684 699.175 11.516C699.381 11.3387 699.521 11.1473 699.595 10.942L700.799 11.306C700.65 11.6607 700.421 11.978 700.113 12.258C699.815 12.5287 699.455 12.7433 699.035 12.902C698.625 13.0607 698.172 13.14 697.677 13.14Z" fill="#061024"/>
</svg>
