<svg width="36" height="36" viewBox="0 0 36 36" fill="none" xmlns="http://www.w3.org/2000/svg">
<path fill-rule="evenodd" clip-rule="evenodd" d="M12.6534 4.135C14.1885 -1.24389 21.8114 -1.24389 23.3465 4.135C23.8367 5.85274 25.6015 6.87163 27.3342 6.4373C32.76 5.07726 36.5714 11.6789 32.6807 15.6978C31.4382 16.9812 31.4382 19.019 32.6807 20.3024C36.5714 24.3212 32.76 30.9229 27.3342 29.5628C25.6015 29.1285 23.8367 30.1474 23.3465 31.8651C21.8114 37.244 14.1885 37.244 12.6534 31.8651C12.1632 30.1474 10.3984 29.1285 8.66572 29.5628C3.23993 30.9229 -0.571538 24.3212 3.31918 20.3024C4.56168 19.019 4.56168 16.9812 3.31918 15.6978C-0.571537 11.6789 3.23993 5.07726 8.66572 6.4373C10.3984 6.87163 12.1632 5.85274 12.6534 4.135ZM22.7808 13.2193C23.2201 13.6586 23.2201 14.3709 22.7808 14.8103L14.2955 23.2956C13.8562 23.7349 13.1438 23.7349 12.7045 23.2956C12.2652 22.8562 12.2652 22.1439 12.7045 21.7046L21.1898 13.2193C21.6291 12.78 22.3414 12.78 22.7808 13.2193ZM13.5 15.0001C12.6716 15.0001 12 14.3285 12 13.5001C12 12.6717 12.6716 12.0001 13.5 12.0001C14.3284 12.0001 15 12.6717 15 13.5001C15 14.3285 14.3284 15.0001 13.5 15.0001ZM22.5 24.0001C21.6716 24.0001 21 23.3286 21 22.5001C21 21.6717 21.6716 21.0001 22.5 21.0001C23.3284 21.0001 24 21.6717 24 22.5001C24 23.3286 23.3284 24.0001 22.5 24.0001Z" fill="white"/>
</svg>
