<svg width="78" height="24" viewBox="0 0 78 24" fill="none" xmlns="http://www.w3.org/2000/svg">
<circle cx="2" cy="12" r="2" fill="#F7F7F8"/>
<circle cx="62" cy="12" r="2" fill="#F7F7F8"/>
<circle cx="55" cy="12" r="2" fill="url(#paint0_linear_78_289)"/>
<circle cx="9" cy="12" r="2" fill="#F7F7F8"/>
<circle cx="69" cy="12" r="2" fill="#F7F7F8"/>
<circle cx="16" cy="12" r="2" fill="#F7F7F8"/>
<circle cx="16" cy="12" r="2" fill="#F7F7F8"/>
<circle cx="24" cy="12" r="2" fill="url(#paint1_linear_78_289)"/>
<circle cx="23" cy="12" r="2" fill="url(#paint2_linear_78_289)"/>
<circle cx="76" cy="12" r="2" fill="#F7F7F8"/>
<circle cx="39" cy="12" r="12" fill="#FEEEDF"/>
<path fill-rule="evenodd" clip-rule="evenodd" d="M38.8099 4.68709C38.9365 4.6808 39.0634 4.6808 39.19 4.68709C39.679 4.71136 40.1291 4.85342 40.6308 5.08627C41.1193 5.31295 41.6869 5.64066 42.405 6.05526L42.4457 6.07876C43.1638 6.49336 43.7315 6.82108 44.172 7.13078C44.6246 7.4489 44.9726 7.76768 45.2381 8.17894C45.3069 8.28548 45.3703 8.39536 45.4282 8.50818C45.6516 8.94372 45.7537 9.40456 45.8029 9.95553C45.8508 10.4919 45.8508 11.1473 45.8508 11.9765V12.0235C45.8508 12.8527 45.8508 13.5082 45.8029 14.0445C45.7537 14.5955 45.6516 15.0564 45.4282 15.4919C45.3703 15.6047 45.3069 15.7146 45.2381 15.8211C44.9726 16.2324 44.6246 16.5512 44.172 16.8693C43.7315 17.179 43.1638 17.5067 42.4457 17.9213L42.4051 17.9448C41.6869 18.3594 41.1193 18.6871 40.6308 18.9138C40.1291 19.1467 39.679 19.2887 39.19 19.313C39.0634 19.3193 38.9365 19.3193 38.8099 19.313C38.321 19.2887 37.8709 19.1467 37.3691 18.9138C36.8806 18.6871 36.313 18.3594 35.5949 17.9448L35.5542 17.9213C34.8361 17.5067 34.2684 17.179 33.8279 16.8693C33.3754 16.5512 33.0273 16.2324 32.7618 15.8211C32.693 15.7146 32.6296 15.6047 32.5717 15.4919C32.3483 15.0564 32.2463 14.5955 32.197 14.0445C32.1491 13.5082 32.1491 12.8527 32.1491 12.0235V11.9766C32.1491 11.1474 32.1491 10.4919 32.197 9.95553C32.2463 9.40456 32.3483 8.94373 32.5717 8.50818C32.6296 8.39536 32.693 8.28548 32.7618 8.17895C33.0273 7.76768 33.3754 7.4489 33.8279 7.13078C34.2685 6.82108 34.8361 6.49337 35.5542 6.07877L35.5949 6.05529C36.313 5.64068 36.8806 5.31296 37.3691 5.08627C37.8709 4.85342 38.321 4.71136 38.8099 4.68709ZM42.7822 10.3155C42.9038 10.0676 42.8014 9.76799 42.5535 9.64638C42.3056 9.52476 42.006 9.62716 41.8844 9.87508L40.9108 11.8598C40.6091 12.4749 39.7222 12.4449 39.4627 11.8107C38.8766 10.378 36.873 10.3102 36.1913 11.6999L35.2177 13.6846C35.0961 13.9325 35.1985 14.2321 35.4464 14.3537C35.6943 14.4753 35.9939 14.3729 36.1155 14.125L37.0891 12.1403C37.3908 11.5251 38.2777 11.5552 38.5372 12.1894C39.1233 13.6221 41.1269 13.6899 41.8086 12.3002L42.7822 10.3155Z" fill="#F8943A"/>
<defs>
<linearGradient id="paint0_linear_78_289" x1="57" y1="12" x2="53" y2="12" gradientUnits="userSpaceOnUse">
<stop stop-color="#F7F7F8"/>
<stop offset="1" stop-color="#F7F7F8" stop-opacity="0"/>
</linearGradient>
<linearGradient id="paint1_linear_78_289" x1="22" y1="12" x2="26" y2="12" gradientUnits="userSpaceOnUse">
<stop stop-color="#F7F7F8"/>
<stop offset="1" stop-color="#F7F7F8" stop-opacity="0"/>
</linearGradient>
<linearGradient id="paint2_linear_78_289" x1="21" y1="12" x2="25" y2="12" gradientUnits="userSpaceOnUse">
<stop stop-color="#F7F7F8"/>
<stop offset="1" stop-color="#F7F7F8" stop-opacity="0"/>
</linearGradient>
</defs>
</svg>
