<svg width="21" height="21" viewBox="0 0 21 21" fill="none" xmlns="http://www.w3.org/2000/svg">
<path d="M16 11.4988C17.1046 11.4988 18.0221 12.405 17.7787 13.4824C17.5367 14.5534 17.0995 15.5766 16.4832 16.4989C15.4943 17.979 14.0887 19.1325 12.4442 19.8137C10.7996 20.4949 8.99002 20.6731 7.24419 20.3259C5.49836 19.9786 3.89472 19.1214 2.63604 17.8628C1.37737 16.6041 0.520203 15.0004 0.172937 13.2546C-0.17433 11.5088 0.00389957 9.69919 0.685088 8.05465C1.36628 6.41012 2.51983 5.00451 3.99987 4.01558C4.92216 3.39932 5.94542 2.96212 7.0164 2.72012C8.0938 2.47666 9 3.39423 9 4.4988V6.4988C9 9.26023 11.2386 11.4988 14 11.4988H16Z"/>
<path d="M12 3.03307C12 1.08115 13.6408 -0.563083 15.4442 0.183886C16.5361 0.636178 17.5282 1.29911 18.364 2.13484C19.1997 2.97057 19.8626 3.96272 20.3149 5.05465C21.0619 6.85799 19.4177 8.4988 17.4657 8.4988H16.5C14.0147 8.4988 12 6.48408 12 3.9988V3.03307Z"/>
</svg>
