<svg width="78" height="16" viewBox="0 0 78 16" fill="none" xmlns="http://www.w3.org/2000/svg">
<circle cx="2" cy="8" r="2" fill="#F7F7F8"/>
<circle cx="62" cy="8" r="2" fill="#F7F7F8"/>
<circle cx="55" cy="8" r="2" fill="url(#paint0_linear_115_4239)"/>
<circle cx="9" cy="8" r="2" fill="#F7F7F8"/>
<circle cx="69" cy="8" r="2" fill="#F7F7F8"/>
<circle cx="16" cy="8" r="2" fill="#F7F7F8"/>
<circle cx="16" cy="8" r="2" fill="#F7F7F8"/>
<circle cx="23" cy="8" r="2" fill="url(#paint1_linear_115_4239)"/>
<circle cx="76" cy="8" r="2" fill="#F7F7F8"/>
<path fill-rule="evenodd" clip-rule="evenodd" d="M38.8099 0.687089C38.9366 0.680801 39.0635 0.680801 39.1901 0.687089C39.679 0.711362 40.1291 0.853423 40.6309 1.08627C41.1194 1.31295 41.687 1.64066 42.4051 2.05526L42.4458 2.07876C43.1639 2.49336 43.7315 2.82108 44.1721 3.13078C44.6246 3.4489 44.9727 3.76768 45.2382 4.17894C45.3069 4.28548 45.3704 4.39536 45.4283 4.50818C45.6517 4.94372 45.7537 5.40456 45.803 5.95553C45.8509 6.49191 45.8509 7.14733 45.8509 7.97652V8.02351C45.8509 8.8527 45.8509 9.50817 45.803 10.0445C45.7537 10.5955 45.6517 11.0564 45.4283 11.4919C45.3704 11.6047 45.3069 11.7146 45.2382 11.8211C44.9727 12.2324 44.6246 12.5512 44.1721 12.8693C43.7315 13.179 43.1639 13.5067 42.4458 13.9213L42.4051 13.9448C41.687 14.3594 41.1194 14.6871 40.6309 14.9138C40.1291 15.1467 39.679 15.2887 39.1901 15.313C39.0635 15.3193 38.9366 15.3193 38.8099 15.313C38.321 15.2887 37.8709 15.1467 37.3692 14.9138C36.8807 14.6871 36.3131 14.3594 35.595 13.9448L35.5542 13.9213C34.8362 13.5067 34.2685 13.179 33.828 12.8693C33.3754 12.5512 33.0273 12.2324 32.7619 11.8211C32.6931 11.7146 32.6297 11.6047 32.5718 11.4919C32.3483 11.0564 32.2463 10.5955 32.1971 10.0445C32.1492 9.50816 32.1492 8.85273 32.1492 8.02352V7.97656C32.1492 7.14735 32.1492 6.49192 32.1971 5.95553C32.2463 5.40456 32.3483 4.94373 32.5718 4.50818C32.6297 4.39536 32.6931 4.28548 32.7619 4.17895C33.0273 3.76768 33.3754 3.4489 33.828 3.13078C34.2685 2.82108 34.8361 2.49337 35.5543 2.07877L35.5949 2.05529C36.313 1.64068 36.8807 1.31296 37.3691 1.08627C37.8709 0.853423 38.321 0.711362 38.8099 0.687089ZM42.7822 6.31548C42.9038 6.06756 42.8015 5.76799 42.5535 5.64638C42.3056 5.52476 42.006 5.62716 41.8844 5.87508L40.9109 7.85978C40.6091 8.47495 39.7222 8.4449 39.4628 7.81072C38.8767 6.37802 36.873 6.31015 36.1913 7.6999L35.2178 9.6846C35.0962 9.93252 35.1985 10.2321 35.4465 10.3537C35.6944 10.4753 35.994 10.3729 36.1156 10.125L37.0891 8.1403C37.3909 7.52513 38.2778 7.55518 38.5372 8.18936C39.1233 9.62205 41.127 9.68993 41.8087 8.30018L42.7822 6.31548Z" fill="#F8943A"/>
<defs>
<linearGradient id="paint0_linear_115_4239" x1="57" y1="8" x2="53" y2="8" gradientUnits="userSpaceOnUse">
<stop stop-color="#F7F7F8"/>
<stop offset="1" stop-color="#F7F7F8" stop-opacity="0"/>
</linearGradient>
<linearGradient id="paint1_linear_115_4239" x1="21" y1="8" x2="25" y2="8" gradientUnits="userSpaceOnUse">
<stop stop-color="#F7F7F8"/>
<stop offset="1" stop-color="#F7F7F8" stop-opacity="0"/>
</linearGradient>
</defs>
</svg>
