<svg width="78" height="24" viewBox="0 0 78 24" fill="none" xmlns="http://www.w3.org/2000/svg">
<circle cx="2" cy="12" r="2" fill="#F7F7F8"/>
<circle cx="62" cy="12" r="2" fill="#F7F7F8"/>
<circle cx="55" cy="12" r="2" fill="url(#paint0_linear_115_4239)"/>
<circle cx="9" cy="12" r="2" fill="#F7F7F8"/>
<circle cx="69" cy="12" r="2" fill="#F7F7F8"/>
<circle cx="16" cy="12" r="2" fill="#F7F7F8"/>
<circle cx="16" cy="12" r="2" fill="#F7F7F8"/>
<circle cx="23" cy="12" r="2" fill="url(#paint1_linear_115_4239)"/>
<circle cx="76" cy="12" r="2" fill="#F7F7F8"/>
<circle cx="39" cy="12" r="12" fill="#FEEEDF"/>
<path fill-rule="evenodd" clip-rule="evenodd" d="M38.8099 4.68709C38.9366 4.6808 39.0635 4.6808 39.1901 4.68709C39.679 4.71136 40.1291 4.85342 40.6309 5.08627C41.1194 5.31295 41.687 5.64066 42.4051 6.05526L42.4458 6.07876C43.1639 6.49336 43.7315 6.82108 44.1721 7.13078C44.6246 7.4489 44.9727 7.76768 45.2382 8.17894C45.3069 8.28548 45.3704 8.39536 45.4283 8.50818C45.6517 8.94372 45.7537 9.40456 45.803 9.95553C45.8509 10.4919 45.8509 11.1473 45.8509 11.9765V12.0235C45.8509 12.8527 45.8509 13.5082 45.803 14.0445C45.7537 14.5955 45.6517 15.0564 45.4283 15.4919C45.3704 15.6047 45.3069 15.7146 45.2382 15.8211C44.9727 16.2324 44.6246 16.5512 44.1721 16.8693C43.7315 17.179 43.1639 17.5067 42.4458 17.9213L42.4051 17.9448C41.687 18.3594 41.1194 18.6871 40.6309 18.9138C40.1291 19.1467 39.679 19.2887 39.1901 19.313C39.0635 19.3193 38.9366 19.3193 38.8099 19.313C38.321 19.2887 37.8709 19.1467 37.3692 18.9138C36.8807 18.6871 36.3131 18.3594 35.595 17.9448L35.5542 17.9213C34.8362 17.5067 34.2685 17.179 33.828 16.8693C33.3754 16.5512 33.0273 16.2324 32.7619 15.8211C32.6931 15.7146 32.6297 15.6047 32.5718 15.4919C32.3483 15.0564 32.2463 14.5955 32.1971 14.0445C32.1492 13.5082 32.1492 12.8527 32.1492 12.0235V11.9766C32.1492 11.1474 32.1492 10.4919 32.1971 9.95553C32.2463 9.40456 32.3483 8.94373 32.5718 8.50818C32.6297 8.39536 32.6931 8.28548 32.7619 8.17895C33.0273 7.76768 33.3754 7.4489 33.828 7.13078C34.2685 6.82108 34.8361 6.49337 35.5543 6.07877L35.5949 6.05529C36.313 5.64068 36.8807 5.31296 37.3691 5.08627C37.8709 4.85342 38.321 4.71136 38.8099 4.68709ZM42.7822 10.3155C42.9038 10.0676 42.8015 9.76799 42.5535 9.64638C42.3056 9.52476 42.006 9.62716 41.8844 9.87508L40.9109 11.8598C40.6091 12.4749 39.7222 12.4449 39.4628 11.8107C38.8767 10.378 36.873 10.3102 36.1913 11.6999L35.2178 13.6846C35.0962 13.9325 35.1985 14.2321 35.4465 14.3537C35.6944 14.4753 35.994 14.3729 36.1156 14.125L37.0891 12.1403C37.3909 11.5251 38.2778 11.5552 38.5372 12.1894C39.1233 13.6221 41.127 13.6899 41.8087 12.3002L42.7822 10.3155Z" fill="#F8943A"/>
<defs>
<linearGradient id="paint0_linear_115_4239" x1="57" y1="12" x2="53" y2="12" gradientUnits="userSpaceOnUse">
<stop stop-color="#F7F7F8"/>
<stop offset="1" stop-color="#F7F7F8" stop-opacity="0"/>
</linearGradient>
<linearGradient id="paint1_linear_115_4239" x1="21" y1="12" x2="25" y2="12" gradientUnits="userSpaceOnUse">
<stop stop-color="#F7F7F8"/>
<stop offset="1" stop-color="#F7F7F8" stop-opacity="0"/>
</linearGradient>
</defs>
</svg>
