<svg width="16" height="18" viewBox="0 0 16 18" fill="none" xmlns="http://www.w3.org/2000/svg">
<path fill-rule="evenodd" clip-rule="evenodd" d="M7.78609 0.773006C7.92856 0.765932 8.0713 0.765932 8.21378 0.773005C8.7638 0.800313 9.27017 0.960131 9.83467 1.22209C10.3842 1.4771 11.0228 1.84578 11.8306 2.31219L11.8764 2.33864C12.6843 2.80506 13.3229 3.17374 13.8185 3.52215C14.3276 3.88004 14.7192 4.23867 15.0179 4.70134C15.0952 4.82119 15.1666 4.94481 15.2317 5.07173C15.4831 5.56172 15.5978 6.08016 15.6532 6.70001C15.7072 7.30343 15.7071 8.04078 15.7071 8.97362V9.02648C15.7071 9.95932 15.7072 10.6967 15.6532 11.3001C15.5978 11.92 15.4831 12.4384 15.2317 12.9284C15.1666 13.0553 15.0952 13.1789 15.0179 13.2988C14.7192 13.7615 14.3276 14.1201 13.8185 14.478C13.3229 14.8264 12.6843 15.1951 11.8764 15.6615L11.8307 15.6879C11.0228 16.1544 10.3842 16.523 9.83467 16.7781C9.27017 17.04 8.7638 17.1998 8.21378 17.2271C8.0713 17.2342 7.92857 17.2342 7.78609 17.2271C7.23607 17.1998 6.7297 17.04 6.1652 16.7781C5.61567 16.523 4.97711 16.1544 4.16925 15.6879L4.12341 15.6615C3.3156 15.1951 2.67696 14.8264 2.18137 14.478C1.67226 14.1201 1.28067 13.7615 0.982008 13.2988C0.904644 13.179 0.833274 13.0553 0.768162 12.9284C0.516801 12.4384 0.402021 11.92 0.346635 11.3001C0.292716 10.6967 0.29272 9.95935 0.292725 9.02649V8.97366C0.29272 8.0408 0.292716 7.30344 0.346635 6.70001C0.40202 6.08016 0.516801 5.56172 0.768162 5.07174C0.833273 4.94481 0.904643 4.8212 0.982008 4.70134C1.28067 4.23867 1.67226 3.88004 2.18137 3.52216C2.67699 3.17375 3.31557 2.80507 4.12345 2.33864L4.16919 2.31223C4.97707 1.8458 5.61565 1.47711 6.1652 1.22209C6.72969 0.960131 7.23607 0.800313 7.78609 0.773006ZM12.2549 7.10494C12.3917 6.82603 12.2765 6.48902 11.9976 6.3522C11.7187 6.21539 11.3817 6.33058 11.2449 6.60949L10.1496 8.84228C9.81017 9.53435 8.8124 9.50055 8.52053 8.78709C7.86116 7.17531 5.60707 7.09895 4.84014 8.66242L3.74489 10.8952C3.60808 11.1741 3.72327 11.5111 4.00218 11.6479C4.2811 11.7848 4.61811 11.6696 4.75492 11.3907L5.85017 9.15787C6.18965 8.4658 7.18742 8.4996 7.47929 9.21305C8.13866 10.8248 10.3927 10.9012 11.1597 9.33773L12.2549 7.10494Z"/>
</svg>
