<svg width="62" height="90" viewBox="0 0 62 90" fill="none" xmlns="http://www.w3.org/2000/svg">
<path d="M0 45C0 36.0999 2.6392 27.3996 7.58386 19.9994C12.5285 12.5992 19.5566 6.83138 27.7793 3.42545C36.0019 0.0195008 45.0499 -0.871654 53.7792 0.864682C62.5084 2.60101 70.5263 6.88684 76.82 13.1802C83.1132 19.4736 87.3991 27.4918 89.1353 36.221C90.8716 44.9501 89.9806 53.9981 86.5745 62.2207C83.1687 70.4434 77.4008 77.4716 70.0006 82.416C62.6007 87.3607 53.9003 90 45 90C33.0653 90 21.6194 85.2589 13.1802 76.8199C4.74109 68.3809 0 56.9347 0 45Z" fill="#E1F1F5"/>
<g clip-path="url(#clip0_78_183)">
<path d="M13 45C13 38.671 14.8768 32.4842 18.393 27.2218C21.9092 21.9594 26.9069 17.8579 32.7541 15.4359C38.6014 13.0139 45.0355 12.3802 51.2429 13.6149C57.4504 14.8496 63.152 17.8973 67.6275 22.3726C72.1027 26.8479 75.1504 32.5498 76.3851 38.7571C77.6197 44.9645 76.9861 51.3987 74.564 57.2459C72.1421 63.0931 68.0405 68.0909 62.7781 71.6069C57.516 75.1232 51.3291 77 45 77C36.5131 77 28.3738 73.6285 22.3726 67.6275C16.3714 61.6264 13 53.4869 13 45Z" fill="url(#paint0_linear_78_183)"/>
<path fill-rule="evenodd" clip-rule="evenodd" d="M45 60.8333C53.7445 60.8333 60.8333 53.7445 60.8333 45C60.8333 36.2554 53.7445 29.1666 45 29.1666C36.2555 29.1666 29.1667 36.2554 29.1667 45C29.1667 53.7445 36.2555 60.8333 45 60.8333ZM53.8014 41.0421C54.2389 40.5534 54.1974 39.8027 53.7088 39.3652C53.2202 38.9278 52.4694 38.9692 52.032 39.4579L46.6974 45.4162C45.6165 46.6236 44.8885 47.4324 44.2662 47.9555C43.6733 48.4538 43.3251 48.5625 43.0209 48.5625C42.7166 48.5625 42.3684 48.4538 41.7755 47.9555C41.1532 47.4324 40.4252 46.6236 39.3443 45.4162L37.9681 43.8791C37.5306 43.3905 36.7799 43.349 36.2913 43.7865C35.8026 44.2239 35.7612 44.9747 36.1986 45.4633L37.6336 47.0661C38.6404 48.1907 39.4801 49.1287 40.2474 49.7736C41.0591 50.4558 41.9346 50.9375 43.0209 50.9375C44.1071 50.9375 44.9826 50.4558 45.7943 49.7736C46.5616 49.1287 47.4013 48.1907 48.4081 47.0661L53.8014 41.0421Z" fill="white"/>
</g>
<defs>
<linearGradient id="paint0_linear_78_183" x1="107.918" y1="115.746" x2="17.3707" y2="13.9416" gradientUnits="userSpaceOnUse">
<stop stop-color="#44AAC0" stop-opacity="0.11"/>
<stop offset="0.41" stop-color="#44AAC0"/>
<stop offset="0.78" stop-color="#67CFE6"/>
<stop offset="1" stop-color="#4BCDE9"/>
</linearGradient>
<clipPath id="clip0_78_183">
<rect width="64" height="64" fill="white" transform="translate(13 13)"/>
</clipPath>
</defs>
</svg>
