<svg width="160" height="160" viewBox="0 0 160 160" fill="none" xmlns="http://www.w3.org/2000/svg">
<g clip-path="url(#clip0_78_323)">
<path d="M80 159.529C123.923 159.529 159.529 123.923 159.529 80C159.529 36.0771 123.923 0.470581 80 0.470581C36.0771 0.470581 0.470581 36.0771 0.470581 80C0.470581 123.923 36.0771 159.529 80 159.529Z" fill="white" stroke="#F3F4F7"/>
<path d="M59.89 108.216C62.9449 104.937 67.6018 105.198 70.2841 108.775L74.0468 113.804C77.0645 117.79 81.9449 117.79 84.9625 113.804L88.7253 108.775C91.4076 105.198 96.064 104.937 99.1191 108.216C105.751 115.294 111.153 112.947 111.153 103.037V61.051C111.153 46.0373 107.651 42.2745 93.5684 42.2745H65.4037C51.3213 42.2745 47.8194 46.0373 47.8194 61.051V103C47.8567 112.947 53.2958 115.256 59.89 108.216Z" fill="url(#paint0_linear_78_323)"/>
<path d="M69.2841 72.0784H89.7742" stroke="white" stroke-width="4" stroke-linecap="round" stroke-linejoin="round"/>
<path d="M113.882 63.0588C124.278 63.0588 132.706 54.6312 132.706 44.2353C132.706 33.8393 124.278 25.4117 113.882 25.4117C103.486 25.4117 95.0588 33.8393 95.0588 44.2353C95.0588 54.6312 103.486 63.0588 113.882 63.0588Z" fill="url(#paint1_linear_78_323)" stroke="white" stroke-width="2"/>
<path d="M117.932 50.8995L118.034 50.858L119.744 49.8639L121.508 48.8403C121.602 48.789 121.687 48.723 121.76 48.645C121.889 48.5093 121.973 48.3379 122 48.1539C122 48.071 122 44.0118 122 43.9231C121.967 43.719 121.873 43.5294 121.73 43.3787C121.596 43.2537 121.444 43.1481 121.28 43.0651L118.07 41.213C117.936 41.1527 117.79 41.1215 117.642 41.1215C117.494 41.1215 117.347 41.1527 117.213 41.213C117.159 41.213 116.793 41.4438 115.983 41.9112L114.015 43.0533L112.071 44.1776C111.471 44.5444 110.913 44.8521 110.871 44.864C110.736 44.9319 110.586 44.9663 110.433 44.9645C110.283 44.9649 110.134 44.9346 109.995 44.8757C109.93 44.8757 108.136 43.8165 108.04 43.7455C107.946 43.6752 107.863 43.5914 107.794 43.4971C107.717 43.3815 107.662 43.2533 107.632 43.1184C107.61 42.7242 107.61 42.3291 107.632 41.9349C107.584 41.4756 107.598 41.0119 107.674 40.5562C107.713 40.445 107.768 40.3395 107.836 40.2426C107.904 40.1508 107.987 40.0708 108.082 40.0059C108.154 39.9586 109.881 38.9468 109.935 38.9053C110.075 38.8421 110.226 38.8094 110.379 38.8094C110.533 38.8094 110.684 38.8421 110.823 38.9053C110.883 38.9349 112.623 39.9467 112.755 40.0237C112.882 40.1087 112.987 40.2223 113.061 40.355C113.109 40.4364 113.146 40.524 113.169 40.6154V40.7042V41.4438C113.169 41.8521 113.169 42.1894 113.169 42.1894L113.967 41.7337L114.753 41.2781V40.5385C114.753 39.716 114.753 39.7456 114.699 39.5799C114.626 39.3807 114.497 39.2063 114.327 39.0769C114.267 39.0355 111.003 37.142 110.847 37.0592L110.721 37H110.667H110.067L109.977 37.0355C109.911 37.0651 109.45 37.3255 108.178 38.0592C107.236 38.6036 106.444 39.0651 106.414 39.0888C106.306 39.1631 106.213 39.2579 106.142 39.3676C106.071 39.4772 106.023 39.5997 106 39.7278C106 39.8107 106 39.8757 106 41.8994C106 43.9231 106 43.9941 106 44.0711C106.023 44.2024 106.074 44.3275 106.15 44.4379C106.228 44.5484 106.323 44.6462 106.432 44.7278C106.51 44.7752 109.84 46.7101 109.924 46.7515C110.067 46.818 110.224 46.8525 110.382 46.8525C110.541 46.8525 110.698 46.818 110.841 46.7515L112.041 46.0474C113.019 45.4557 113.325 45.2959 113.979 44.935C114.633 44.574 114.813 44.4734 115.923 43.8048L117.123 43.0769C117.374 42.9631 117.661 42.9525 117.92 43.0474C117.962 43.0578 118.003 43.0737 118.041 43.0947C118.112 43.1302 119.918 44.219 119.972 44.2781C120.177 44.4384 120.314 44.6685 120.356 44.9231C120.356 45.0296 120.356 47.2367 120.356 47.3432C120.314 47.6053 120.169 47.8408 119.954 48C119.894 48.0415 118.154 49.071 118.017 49.1302C117.88 49.1904 117.731 49.2215 117.581 49.2215C117.432 49.2215 117.283 49.1904 117.147 49.1302C117.099 49.1302 116.751 48.9054 116.157 48.5385L115.191 47.9467C115.019 47.817 114.889 47.64 114.819 47.4379C114.771 47.29 114.771 47.3314 114.765 46.503V45.7456L113.979 46.2012L113.193 46.6569V47.4201C113.193 48.2485 113.193 48.2426 113.235 48.3847C113.269 48.4885 113.32 48.5864 113.385 48.6746C113.453 48.7649 113.533 48.8446 113.625 48.9113C113.679 48.9527 116.997 50.8935 117.075 50.935C117.153 50.9764 117.195 51 117.524 51H117.818L117.932 50.8995Z" fill="white"/>
</g>
<defs>
<linearGradient id="paint0_linear_78_323" x1="79.4881" y1="33.7231" x2="79.4898" y2="70.9827" gradientUnits="userSpaceOnUse">
<stop stop-color="white"/>
<stop offset="1" stop-color="#CDD6E0"/>
</linearGradient>
<linearGradient id="paint1_linear_78_323" x1="113.882" y1="25.4117" x2="113.882" y2="63.0588" gradientUnits="userSpaceOnUse">
<stop stop-color="#F8943A"/>
<stop offset="1" stop-color="#CF701A"/>
</linearGradient>
<clipPath id="clip0_78_323">
<rect width="160" height="160" fill="white"/>
</clipPath>
</defs>
</svg>
