<svg width="229" height="131" viewBox="0 0 229 131" fill="none" xmlns="http://www.w3.org/2000/svg">
<g filter="url(#filter0_f_115_6453)">
<g clip-path="url(#clip0_115_6453)">
<path d="M162.75 69.25C162.75 59.3115 159.803 49.5962 154.281 41.3326C148.76 33.0691 140.912 26.6284 131.73 22.8251C122.548 19.0218 112.444 18.0267 102.697 19.9656C92.949 21.9045 83.9957 26.6903 76.9678 33.7179C69.9403 40.7455 65.1544 49.6992 63.2156 59.4468C61.2768 69.1943 62.2718 79.2979 66.0753 88.4798C69.8784 97.6618 76.3192 105.51 84.5828 111.031C92.846 116.553 102.561 119.5 112.5 119.5C125.827 119.5 138.608 114.206 148.032 104.782C157.456 95.3586 162.75 82.5771 162.75 69.25Z" fill="url(#paint0_linear_115_6453)"/>
<path d="M95.1893 94.362L94.7911 94.1995L88.1103 90.3073L81.2189 86.299C80.8509 86.0984 80.5184 85.84 80.2345 85.5343C79.7307 85.003 79.4033 84.3321 79.2965 83.6115C79.2965 83.2869 79.2965 67.3928 79.2965 67.0453C79.4238 66.2463 79.7914 65.5039 80.3513 64.9138C80.8756 64.4243 81.4677 64.011 82.1096 63.6861L94.6504 56.4339C95.1767 56.1978 95.7479 56.0756 96.3262 56.0756C96.9045 56.0756 97.4757 56.1978 98.002 56.4339C98.2131 56.4339 99.6431 57.3375 102.808 59.1679L110.496 63.6396L118.091 68.0419C120.435 69.4782 122.615 70.683 122.779 70.7294C123.309 70.9953 123.896 71.1302 124.49 71.1231C125.078 71.1247 125.661 71.0062 126.201 70.7755C126.459 70.7755 133.468 66.6282 133.843 66.3502C134.21 66.0746 134.534 65.7467 134.804 65.3774C135.104 64.9247 135.318 64.4226 135.437 63.8946C135.52 62.3511 135.52 60.8041 135.437 59.2606C135.625 57.4619 135.57 55.6464 135.273 53.8622C135.119 53.4266 134.906 53.0135 134.64 52.6342C134.374 52.2747 134.049 51.9614 133.679 51.7074C133.397 51.5221 126.647 47.5602 126.436 47.398C125.892 47.1505 125.3 47.0224 124.701 47.0224C124.102 47.0224 123.51 47.1505 122.966 47.398C122.732 47.5138 115.934 51.4757 115.418 51.7769C114.922 52.11 114.512 52.5546 114.223 53.0744C114.035 53.393 113.893 53.7361 113.801 54.0938V54.4414V57.3376C113.801 58.9362 113.801 60.2568 113.801 60.2568L110.683 58.4728L107.613 56.6888V53.7927C107.613 50.5722 107.613 50.6879 107.824 50.0392C108.109 49.2594 108.613 48.5763 109.277 48.0699C109.511 47.9077 122.263 40.4936 122.873 40.1692L123.365 39.9375H123.576H125.92L126.271 40.0765C126.529 40.1924 128.334 41.2118 133.304 44.0848C136.984 46.2164 140.078 48.0235 140.195 48.1162C140.618 48.4075 140.979 48.7784 141.256 49.2079C141.534 49.6373 141.723 50.1166 141.812 50.6185C141.812 50.9428 141.812 51.1977 141.812 59.1216C141.812 67.0453 141.812 67.3233 141.812 67.6248C141.722 68.1391 141.523 68.629 141.227 69.0611C140.921 69.4937 140.55 69.8769 140.125 70.1964C139.82 70.3819 126.811 77.9583 126.482 78.1204C125.921 78.3808 125.309 78.5157 124.689 78.5157C124.069 78.5157 123.457 78.3808 122.896 78.1204L118.208 75.3633C114.387 73.0464 113.192 72.4208 110.637 71.0075C108.082 69.5942 107.378 69.2002 103.042 66.5821L98.3538 63.7321C97.371 63.2866 96.25 63.2451 95.2362 63.6166C95.0725 63.6572 94.9146 63.7196 94.7672 63.8016C94.4862 63.9407 87.4307 68.204 87.2196 68.4355C86.4186 69.0632 85.8838 69.964 85.7193 70.961C85.7193 71.3781 85.7193 80.0203 85.7193 80.4373C85.8859 81.4633 86.4487 82.3853 87.29 83.0089C87.5241 83.1713 94.3221 87.2027 94.861 87.4342C95.3962 87.67 95.9749 87.7918 96.5607 87.7918C97.1461 87.7918 97.7252 87.67 98.26 87.4342C98.4476 87.4342 99.8073 86.554 102.128 85.1173L105.902 82.8003C106.574 82.2924 107.08 81.5994 107.355 80.8079C107.542 80.2288 107.542 80.3908 107.566 77.1472V74.1816L110.637 75.9655L113.707 77.7498V80.7384C113.707 83.982 113.707 83.959 113.543 84.5151C113.41 84.9217 113.212 85.3049 112.957 85.6503C112.693 86.0038 112.377 86.3162 112.02 86.577C111.809 86.7391 98.8462 94.3386 98.5414 94.501C98.2365 94.6631 98.0724 94.7556 96.7835 94.7556H95.6348L95.1893 94.362Z" fill="white"/>
</g>
</g>
<defs>
<filter id="filter0_f_115_6453" x="-4" y="0" width="233" height="131" filterUnits="userSpaceOnUse" color-interpolation-filters="sRGB">
<feFlood flood-opacity="0" result="BackgroundImageFix"/>
<feBlend mode="normal" in="SourceGraphic" in2="BackgroundImageFix" result="shape"/>
<feGaussianBlur stdDeviation="2" result="effect1_foregroundBlur_115_6453"/>
</filter>
<linearGradient id="paint0_linear_115_6453" x1="13.6993" y1="180.343" x2="155.887" y2="20.4786" gradientUnits="userSpaceOnUse">
<stop stop-color="#A762FF" stop-opacity="0.11"/>
<stop offset="0.41" stop-color="#5C19EB"/>
<stop offset="0.78" stop-color="#A586FF"/>
<stop offset="1" stop-color="#E2C5FF"/>
</linearGradient>
<clipPath id="clip0_115_6453">
<rect width="100.5" height="100.5" fill="white" transform="matrix(-1 0 0 1 162.75 19)"/>
</clipPath>
</defs>
</svg>
