<svg width="138" height="31" viewBox="0 0 138 31" fill="none" xmlns="http://www.w3.org/2000/svg">
<path d="M26.5012 9.47478C25.8616 9.10682 25.0391 9.10682 24.308 9.47478L19.1905 12.5104L15.718 14.4421L10.6918 17.4777C10.0522 17.8457 9.2297 17.8457 8.49863 17.4777L4.56913 15.0861C3.92944 14.7181 3.47252 13.9822 3.47252 13.1543V8.5549C3.47252 7.81899 3.83806 7.08309 4.56913 6.62315L8.49863 4.32344C9.13832 3.95549 9.96077 3.95549 10.6918 4.32344L14.6213 6.71513C15.261 7.08309 15.718 7.81899 15.718 8.64688V11.6825L19.1905 9.65875V6.53116C19.1905 5.79525 18.825 5.05935 18.0939 4.59941L10.7832 0.275964C10.1435 -0.0919881 9.32109 -0.0919881 8.59002 0.275964L1.09654 4.69139C0.365474 5.05935 -6.10352e-05 5.79525 -6.10352e-05 6.53116V15.178C-6.10352e-05 15.9139 0.365474 16.6499 1.09654 17.1098L8.49863 21.4332C9.13832 21.8012 9.96077 21.8012 10.6918 21.4332L15.718 18.4896L19.1905 16.4659L24.2167 13.5223C24.8563 13.1543 25.6788 13.1543 26.4099 13.5223L30.3394 15.822C30.9791 16.1899 31.436 16.9258 31.436 17.7537V22.3531C31.436 23.089 31.0704 23.8249 30.3394 24.2849L26.5012 26.5846C25.8616 26.9525 25.0391 26.9525 24.308 26.5846L20.3785 24.2849C19.7388 23.9169 19.2819 23.181 19.2819 22.3531V19.4095L15.8093 21.4332V24.4688C15.8093 25.2047 16.1749 25.9407 16.9059 26.4006L24.308 30.724C24.9477 31.092 25.7702 31.092 26.5012 30.724L33.9033 26.4006C34.543 26.0326 34.9999 25.2967 34.9999 24.4688V15.73C34.9999 14.9941 34.6344 14.2582 33.9033 13.7982L26.5012 9.47478Z" fill="#834AFC"/>
<path d="M49.1477 9.45455L52.0809 14.4119H52.1945L55.142 9.45455H58.615L54.1761 16.7273L58.7144 24H55.1775L52.1945 19.0355H52.0809L49.098 24H45.5752L50.1278 16.7273L45.6605 9.45455H49.1477ZM60.4758 24V21.7841L65.6533 16.9901C66.0937 16.5639 66.463 16.1804 66.7613 15.8395C67.0643 15.4986 67.294 15.1648 67.4502 14.8381C67.6065 14.5066 67.6846 14.1491 67.6846 13.7656C67.6846 13.3395 67.5875 12.9725 67.3934 12.6648C67.1993 12.3523 66.9341 12.1132 66.598 11.9474C66.2618 11.777 65.8806 11.6918 65.4545 11.6918C65.0094 11.6918 64.6212 11.7817 64.2897 11.9616C63.9583 12.1416 63.7026 12.3996 63.5227 12.7358C63.3427 13.072 63.2528 13.4721 63.2528 13.9361H60.3337C60.3337 12.9844 60.5492 12.1581 60.9801 11.4574C61.4109 10.7566 62.0146 10.2145 62.7911 9.83097C63.5676 9.44744 64.4625 9.25568 65.4758 9.25568C66.5175 9.25568 67.4242 9.44034 68.196 9.80966C68.9725 10.1742 69.5762 10.6809 70.007 11.3295C70.4379 11.9782 70.6533 12.7216 70.6533 13.5597C70.6533 14.1089 70.5444 14.651 70.3266 15.1861C70.1136 15.7211 69.7324 16.3153 69.1832 16.9688C68.6339 17.6174 67.8598 18.3963 66.8607 19.3054L64.7372 21.3864V21.4858H70.8451V24H60.4758ZM73.1587 9.45455H76.9513L80.957 19.2273H81.1274L85.1331 9.45455H88.9257V24H85.9428V14.5327H85.822L82.0578 23.929H80.0266L76.2624 14.4972H76.1416V24H73.1587V9.45455ZM93.9666 24H90.6711L95.6924 9.45455H99.6555L104.67 24H101.374L97.7308 12.7784H97.6171L93.9666 24ZM93.7606 18.2827H101.545V20.6832H93.7606V18.2827ZM104.089 11.9901V9.45455H116.035V11.9901H111.582V24H108.542V11.9901H104.089ZM121.078 9.45455V24H118.002V9.45455H121.078ZM136.442 14.5469H133.331C133.274 14.1444 133.158 13.7869 132.983 13.4744C132.808 13.1572 132.583 12.8873 132.308 12.6648C132.034 12.4422 131.716 12.2718 131.356 12.1534C131.001 12.035 130.615 11.9759 130.199 11.9759C129.446 11.9759 128.79 12.1629 128.231 12.5369C127.673 12.9062 127.24 13.446 126.932 14.1562C126.624 14.8617 126.47 15.7187 126.47 16.7273C126.47 17.7642 126.624 18.6354 126.932 19.3409C127.244 20.0464 127.68 20.5791 128.239 20.9389C128.797 21.2988 129.444 21.4787 130.177 21.4787C130.589 21.4787 130.971 21.4242 131.321 21.3153C131.676 21.2064 131.991 21.0478 132.266 20.8395C132.54 20.6264 132.767 20.3684 132.947 20.0653C133.132 19.7623 133.26 19.4167 133.331 19.0284L136.442 19.0426C136.361 19.7102 136.16 20.3542 135.838 20.9744C135.521 21.59 135.092 22.1416 134.552 22.6293C134.017 23.1122 133.378 23.4957 132.635 23.7798C131.896 24.0592 131.061 24.1989 130.128 24.1989C128.83 24.1989 127.67 23.9053 126.648 23.3182C125.63 22.7311 124.825 21.8812 124.233 20.7685C123.646 19.6558 123.352 18.3087 123.352 16.7273C123.352 15.1411 123.651 13.7917 124.247 12.679C124.844 11.5663 125.653 10.7187 126.676 10.1364C127.699 9.54924 128.849 9.25568 130.128 9.25568C130.971 9.25568 131.752 9.37405 132.472 9.6108C133.196 9.84754 133.838 10.1932 134.396 10.6477C134.955 11.0975 135.41 11.6491 135.76 12.3026C136.115 12.956 136.342 13.7041 136.442 14.5469Z" fill="#110C22"/>
</svg>
