<svg width="24" height="24" viewBox="0 0 24 24" fill="none" xmlns="http://www.w3.org/2000/svg">
<path d="M14.0663 9.60734C14.2718 9.52273 14.4773 9.72821 14.3927 9.9337L13.2904 12.6106C13.1635 12.9188 12.9188 13.1636 12.6105 13.2905L9.93365 14.3927C9.72817 14.4773 9.52269 14.2719 9.6073 14.0664L10.7095 11.3895C10.8365 11.0813 11.0812 10.8365 11.3895 10.7096L14.0663 9.60734Z"/>
<path fill-rule="evenodd" clip-rule="evenodd" d="M15.0667 1.79564C14.2621 1.72374 13.279 1.72375 12.0352 1.72376H11.9647C10.7209 1.72375 9.73775 1.72374 8.93318 1.79564C8.10672 1.86948 7.41547 2.02252 6.76215 2.35767C6.59292 2.44449 6.4281 2.53965 6.2683 2.6428C5.65139 3.04101 5.17323 3.56314 4.69604 4.24195C4.2315 4.90278 3.73993 5.75422 3.11803 6.83139L3.08281 6.89239C2.4609 7.96956 1.96931 8.821 1.62929 9.55372C1.28001 10.3064 1.06692 10.9815 1.03051 11.7149C1.02108 11.9049 1.02108 12.0952 1.03051 12.2852C1.06692 13.0185 1.28001 13.6937 1.62929 14.4463C1.9693 15.1791 2.46087 16.0305 3.08275 17.1076L3.11801 17.1686C3.73991 18.2458 4.2315 19.0973 4.69604 19.7581C5.17323 20.4369 5.65139 20.9591 6.26829 21.3573C6.42809 21.4604 6.59292 21.5556 6.76215 21.6424C7.41546 21.9775 8.10672 22.1306 8.93318 22.2044C9.73774 22.2763 10.7209 22.2763 11.9647 22.2763H12.0351C13.2789 22.2763 14.2621 22.2763 15.0667 22.2044C15.8931 22.1306 16.5844 21.9775 17.2377 21.6424C17.4069 21.5556 17.5718 21.4604 17.7316 21.3573C18.3485 20.9591 18.8266 20.4369 19.3038 19.7581C19.7684 19.0973 20.2599 18.2459 20.8818 17.1687L20.9171 17.1077C21.539 16.0305 22.0306 15.1791 22.3706 14.4463C22.7199 13.6937 22.9329 13.0185 22.9694 12.2852C22.9788 12.0952 22.9788 11.9049 22.9694 11.7149C22.9329 10.9815 22.7199 10.3064 22.3706 9.55372C22.0306 8.82099 21.539 7.96955 20.917 6.89237L20.8818 6.83133C20.2599 5.75419 19.7684 4.90277 19.3038 4.24195C18.8266 3.56314 18.3485 3.04101 17.7316 2.6428C17.5718 2.53965 17.407 2.44449 17.2377 2.35767C16.5844 2.02252 15.8932 1.86948 15.0667 1.79564ZM15.7797 10.5048C16.372 9.06644 14.9336 7.62805 13.4952 8.22033L10.8183 9.32257C10.1402 9.60179 9.60174 10.1403 9.32253 10.8184L8.22028 13.4952C7.62801 14.9336 9.06639 16.372 10.5048 15.7797L13.1817 14.6775C13.8598 14.3983 14.3982 13.8598 14.6775 13.1817L15.7797 10.5048Z"/>
</svg>
