<svg width="91" height="102" viewBox="0 0 91 102" fill="none" xmlns="http://www.w3.org/2000/svg">
<path d="M61.3535 15.3818L34.0854 8.1503C24.1946 5.52724 16.884 9.73194 14.2251 19.5535L5.21947 52.8181C2.51693 62.8007 6.75882 69.931 16.6496 72.5541L43.9177 79.7856C53.968 82.451 61.081 78.3319 63.7836 68.3493L72.7891 35.0848C75.4481 25.2632 71.4038 18.0472 61.3535 15.3818Z" fill="url(#paint0_linear_115_4396)"/>
<g opacity="0.5" filter="url(#filter0_f_115_4396)">
<path d="M31.1662 43.0291C25.5971 42.4427 21.3694 37.7465 21.3694 32.1466C21.3694 26.5467 25.5971 21.8504 31.1663 21.264L39.4934 20.3873C46.475 19.6522 52.5558 25.1264 52.5558 32.1466C52.5558 39.1668 46.475 44.641 39.4933 43.9059L31.1662 43.0291Z" fill="#0062FF"/>
</g>
<g filter="url(#filter1_b_115_4396)">
<path d="M82.6522 49.3266C82.6522 35.7504 74.3367 27.7539 60.2646 27.7539H23.3912C9.31549 27.7539 1 35.7504 1 49.3266V78.8958C1 92.472 9.31549 100.5 23.3912 100.5H60.2791C74.3512 100.5 82.6667 92.472 82.6667 78.8958C82.6667 65.3196 82.6522 50.8265 82.6522 49.3266Z" fill="#3EA0FE" fill-opacity="0.35"/>
<path d="M83.1522 49.3266C83.1522 42.435 81.0391 36.8998 77.0822 33.089C73.1279 29.2807 67.3936 27.2539 60.2646 27.2539H23.3912C16.2604 27.2539 10.5252 29.2807 6.57039 33.089C2.61308 36.8997 0.5 42.435 0.5 49.3266V78.8958C0.5 85.7874 2.61304 91.3303 6.57 95.1488C10.5246 98.9651 16.2599 101 23.3912 101H60.2791C67.4086 101 73.143 98.965 77.0971 95.1488C81.0536 91.3303 83.1667 85.7874 83.1667 78.8958C83.1667 72.1076 83.163 65.0901 83.1594 59.5823C83.1576 56.8276 83.1558 54.4507 83.1544 52.6689C83.1531 50.8879 83.1522 49.7014 83.1522 49.3266Z" stroke="url(#paint1_linear_115_4396)" stroke-linecap="round" stroke-linejoin="round"/>
</g>
<g filter="url(#filter2_b_115_4396)">
<path d="M53.1971 65.9408C54.2993 70.8833 58.6944 74.3606 63.7123 74.2702H86.2187C88.3065 74.2702 90 72.5654 90 70.4582V57.3038C89.9955 55.2011 88.3065 53.4918 86.2187 53.4873H63.3091C57.6012 53.5054 52.9911 58.1766 53 63.933C53 64.6068 53.0672 65.2806 53.1971 65.9408Z" fill="#3EA0FE" fill-opacity="0.35"/>
<path d="M52.7066 66.0373L52.7064 66.0373L52.7091 66.0496C53.8621 71.2199 58.4606 74.8628 63.7167 74.7702H86.2187C88.5862 74.7702 90.5 72.838 90.5 70.4582V57.3038V57.3028C90.4949 54.9295 88.5876 52.9924 86.2197 52.9873H86.2187L63.3091 52.9873L63.3075 52.9873C57.32 53.0063 52.4908 57.9053 52.5 63.9334C52.5 64.6402 52.5705 65.3462 52.7066 66.0373Z" stroke="url(#paint2_linear_115_4396)" stroke-linecap="round" stroke-linejoin="round"/>
</g>
<g filter="url(#filter3_bd_115_4396)">
<ellipse cx="63.5" cy="63.8796" rx="4.5" ry="4.45385" fill="url(#paint3_linear_115_4396)"/>
<path d="M67.9 63.8796C67.9 66.2832 65.931 68.2335 63.5 68.2335C61.069 68.2335 59.1 66.2832 59.1 63.8796C59.1 61.476 61.069 59.5258 63.5 59.5258C65.931 59.5258 67.9 61.476 67.9 63.8796Z" stroke="url(#paint4_linear_115_4396)" stroke-opacity="0.5" stroke-width="0.2"/>
</g>
<g filter="url(#filter4_bd_115_4396)">
<path d="M43.4121 49.4532H20.3821C18.658 49.4462 17.2643 48.0907 17.2715 46.4269C17.2788 44.7702 18.6689 43.4287 20.3821 43.4217H43.4266C45.1507 43.4147 46.559 44.7597 46.5663 46.4234C46.5735 48.0907 45.1797 49.4462 43.4557 49.4532H43.4266H43.4121Z" fill="url(#paint5_linear_115_4396)"/>
<path d="M43.4266 43.5217L43.427 43.5217C45.0994 43.5149 46.4593 44.8188 46.4663 46.4238C46.4733 48.0325 45.1276 49.3463 43.4555 49.3532H43.4266H43.4121H20.3823C18.7101 49.3463 17.3645 48.0324 17.3715 46.4274C17.3785 44.8288 18.7208 43.5286 20.3823 43.5217L43.4266 43.5217Z" stroke="url(#paint6_linear_115_4396)" stroke-opacity="0.5" stroke-width="0.2"/>
</g>
<defs>
<filter id="filter0_f_115_4396" x="1.36938" y="0.321045" width="71.1864" height="63.6511" filterUnits="userSpaceOnUse" color-interpolation-filters="sRGB">
<feFlood flood-opacity="0" result="BackgroundImageFix"/>
<feBlend mode="normal" in="SourceGraphic" in2="BackgroundImageFix" result="shape"/>
<feGaussianBlur stdDeviation="10" result="effect1_foregroundBlur_115_4396"/>
</filter>
<filter id="filter1_b_115_4396" x="-24" y="2.75391" width="131.667" height="122.746" filterUnits="userSpaceOnUse" color-interpolation-filters="sRGB">
<feFlood flood-opacity="0" result="BackgroundImageFix"/>
<feGaussianBlur in="BackgroundImageFix" stdDeviation="12"/>
<feComposite in2="SourceAlpha" operator="in" result="effect1_backgroundBlur_115_4396"/>
<feBlend mode="normal" in="SourceGraphic" in2="effect1_backgroundBlur_115_4396" result="shape"/>
</filter>
<filter id="filter2_b_115_4396" x="28" y="28.4873" width="87" height="70.7847" filterUnits="userSpaceOnUse" color-interpolation-filters="sRGB">
<feFlood flood-opacity="0" result="BackgroundImageFix"/>
<feGaussianBlur in="BackgroundImageFix" stdDeviation="12"/>
<feComposite in2="SourceAlpha" operator="in" result="effect1_backgroundBlur_115_4396"/>
<feBlend mode="normal" in="SourceGraphic" in2="effect1_backgroundBlur_115_4396" result="shape"/>
</filter>
<filter id="filter3_bd_115_4396" x="44" y="44.4258" width="39" height="38.9077" filterUnits="userSpaceOnUse" color-interpolation-filters="sRGB">
<feFlood flood-opacity="0" result="BackgroundImageFix"/>
<feGaussianBlur in="BackgroundImageFix" stdDeviation="7.5"/>
<feComposite in2="SourceAlpha" operator="in" result="effect1_backgroundBlur_115_4396"/>
<feColorMatrix in="SourceAlpha" type="matrix" values="0 0 0 0 0 0 0 0 0 0 0 0 0 0 0 0 0 0 127 0" result="hardAlpha"/>
<feOffset dx="5" dy="5"/>
<feGaussianBlur stdDeviation="5"/>
<feColorMatrix type="matrix" values="0 0 0 0 0.15375 0 0 0 0 0.522433 0 0 0 0 0.9 0 0 0 0.5 0"/>
<feBlend mode="normal" in2="effect1_backgroundBlur_115_4396" result="effect2_dropShadow_115_4396"/>
<feBlend mode="normal" in="SourceGraphic" in2="effect2_dropShadow_115_4396" result="shape"/>
</filter>
<filter id="filter4_bd_115_4396" x="2.27148" y="28.4216" width="59.2948" height="36.0315" filterUnits="userSpaceOnUse" color-interpolation-filters="sRGB">
<feFlood flood-opacity="0" result="BackgroundImageFix"/>
<feGaussianBlur in="BackgroundImageFix" stdDeviation="7.5"/>
<feComposite in2="SourceAlpha" operator="in" result="effect1_backgroundBlur_115_4396"/>
<feColorMatrix in="SourceAlpha" type="matrix" values="0 0 0 0 0 0 0 0 0 0 0 0 0 0 0 0 0 0 127 0" result="hardAlpha"/>
<feOffset dx="5" dy="5"/>
<feGaussianBlur stdDeviation="5"/>
<feColorMatrix type="matrix" values="0 0 0 0 0.15375 0 0 0 0 0.522433 0 0 0 0 0.9 0 0 0 0.5 0"/>
<feBlend mode="normal" in2="effect1_backgroundBlur_115_4396" result="effect2_dropShadow_115_4396"/>
<feBlend mode="normal" in="SourceGraphic" in2="effect2_dropShadow_115_4396" result="shape"/>
</filter>
<linearGradient id="paint0_linear_115_4396" x1="72.811" y1="18.4204" x2="-3.3781" y2="41.7408" gradientUnits="userSpaceOnUse">
<stop stop-color="#39AFFD"/>
<stop offset="1" stop-color="#477FFF"/>
</linearGradient>
<linearGradient id="paint1_linear_115_4396" x1="14" y1="36.2289" x2="72.9475" y2="103.641" gradientUnits="userSpaceOnUse">
<stop stop-color="white" stop-opacity="0.25"/>
<stop offset="1" stop-color="white" stop-opacity="0"/>
</linearGradient>
<linearGradient id="paint2_linear_115_4396" x1="58.8898" y1="55.9087" x2="73.2619" y2="81.9712" gradientUnits="userSpaceOnUse">
<stop stop-color="white" stop-opacity="0.25"/>
<stop offset="1" stop-color="white" stop-opacity="0"/>
</linearGradient>
<linearGradient id="paint3_linear_115_4396" x1="67.3619" y1="61.0343" x2="57.337" y2="61.3646" gradientUnits="userSpaceOnUse">
<stop stop-color="white"/>
<stop offset="1" stop-color="white" stop-opacity="0.2"/>
</linearGradient>
<linearGradient id="paint4_linear_115_4396" x1="59.9695" y1="62.4139" x2="67.6117" y2="62.4565" gradientUnits="userSpaceOnUse">
<stop stop-color="white"/>
<stop offset="1" stop-color="white" stop-opacity="0"/>
</linearGradient>
<linearGradient id="paint5_linear_115_4396" x1="44.4893" y1="44.5108" x2="12.6221" y2="49.5572" gradientUnits="userSpaceOnUse">
<stop stop-color="white"/>
<stop offset="1" stop-color="white" stop-opacity="0.2"/>
</linearGradient>
<linearGradient id="paint6_linear_115_4396" x1="20.4272" y1="45.4449" x2="45.2854" y2="46.1114" gradientUnits="userSpaceOnUse">
<stop stop-color="white"/>
<stop offset="1" stop-color="white" stop-opacity="0"/>
</linearGradient>
</defs>
</svg>
